<?xml version="1.0" encoding="UTF-8" standalone="no"?><svg xmlns="http://www.w3.org/2000/svg" xmlns:xlink="http://www.w3.org/1999/xlink" contentScriptType="application/ecmascript" contentStyleType="text/css" height="425px" preserveAspectRatio="none" style="width:417px;height:425px;background:#FFFFFF;" version="1.1" viewBox="0 0 417 425" width="417px" zoomAndPan="magnify"><defs><filter height="300%" id="f1it0j3x4459ea" width="300%" x="-1" y="-1"><feGaussianBlur result="blurOut" stdDeviation="2.0"/><feColorMatrix in="blurOut" result="blurOut2" type="matrix" values="0 0 0 0 0 0 0 0 0 0 0 0 0 0 0 0 0 0 .4 0"/><feOffset dx="4.0" dy="4.0" in="blurOut2" result="blurOut3"/><feBlend in="SourceGraphic" in2="blurOut3" mode="normal"/></filter></defs><g><!--MD5=[f98b547d18484eb8e9c80dc1b7bc008d]
class dim_user_info--><rect codeLine="1" fill="#FEFECE" filter="url(#f1it0j3x4459ea)" height="60.8047" id="dim_user_info" style="stroke:#A80036;stroke-width:1.5;" width="115" x="9" y="191.5"/><ellipse cx="24" cy="207.5" fill="#ADD1B2" rx="11" ry="11" style="stroke:#A80036;stroke-width:1.0;"/><path d="M22.7969,208.375 L24.25,208.375 L24.25,208.4844 C24.25,208.8906 24.2813,209.0469 24.3594,209.2031 C24.5156,209.4531 24.7969,209.6094 25.0938,209.6094 C25.3438,209.6094 25.6094,209.4688 25.7656,209.25 C25.8906,209.0938 25.9219,208.9375 25.9219,208.4844 L25.9219,206.5625 C25.9219,206.4063 25.9219,206.3594 25.9063,206.2031 C25.8438,205.7344 25.5313,205.4219 25.0781,205.4219 C24.8281,205.4219 24.5625,205.5625 24.3906,205.7813 C24.2813,205.9531 24.25,206.1094 24.25,206.5625 L24.25,206.6875 L22.7969,206.6875 L22.7969,204.2813 L26.7813,204.2813 L26.7813,205.1406 C26.7813,205.5469 26.8125,205.7188 26.8906,205.875 C27.0625,206.125 27.3438,206.2813 27.625,206.2813 C27.8906,206.2813 28.1563,206.1406 28.3281,205.9219 C28.4375,205.75 28.4688,205.6094 28.4688,205.1406 L28.4688,202.5938 L20.8438,202.5938 C20.4063,202.5938 20.2813,202.6094 20.125,202.7031 C19.875,202.8594 19.7188,203.1563 19.7188,203.4375 C19.7188,203.7188 19.8594,203.9688 20.0781,204.1406 C20.2344,204.25 20.4219,204.2813 20.8438,204.2813 L21.0938,204.2813 L21.0938,210.7969 L20.8438,210.7969 C20.4375,210.7969 20.2813,210.8125 20.125,210.9219 C19.875,211.0938 19.7188,211.3594 19.7188,211.6563 C19.7188,211.9219 19.8594,212.1719 20.0781,212.3281 C20.2188,212.4531 20.4531,212.5 20.8438,212.5 L28.8438,212.5 L28.8438,209.9219 C28.8438,209.4844 28.8125,209.3438 28.7344,209.1875 C28.5625,208.9375 28.2813,208.7813 28,208.7813 C27.7344,208.7813 27.4688,208.8906 27.2969,209.1406 C27.1875,209.2969 27.1563,209.4375 27.1563,209.9219 L27.1563,210.7969 L22.7969,210.7969 L22.7969,208.375 Z " fill="#000000"/><text fill="#000000" font-family="sans-serif" font-size="12" lengthAdjust="spacing" textLength="83" x="38" y="211.6543">dim_user_info</text><line style="stroke:#A80036;stroke-width:1.5;" x1="10" x2="123" y1="223.5" y2="223.5"/><ellipse cx="20" cy="234.5" fill="#000000" rx="3" ry="3" style="stroke:#000000;stroke-width:1.0;"/><text fill="#000000" font-family="sans-serif" font-size="11" lengthAdjust="spacing" textLength="17" x="29" y="237.7104">uid</text><line style="stroke:#A80036;stroke-width:1.5;" x1="10" x2="123" y1="244.3047" y2="244.3047"/><!--MD5=[d1a104dcc3064b5ecd75c1edae6d9e78]
class credit_change--><rect codeLine="4" fill="#FEFECE" filter="url(#f1it0j3x4459ea)" height="60.8047" id="credit_change" style="stroke:#A80036;stroke-width:1.5;" width="117" x="7" y="351"/><ellipse cx="22" cy="367" fill="#ADD1B2" rx="11" ry="11" style="stroke:#A80036;stroke-width:1.0;"/><path d="M20.7969,367.875 L22.25,367.875 L22.25,367.9844 C22.25,368.3906 22.2813,368.5469 22.3594,368.7031 C22.5156,368.9531 22.7969,369.1094 23.0938,369.1094 C23.3438,369.1094 23.6094,368.9688 23.7656,368.75 C23.8906,368.5938 23.9219,368.4375 23.9219,367.9844 L23.9219,366.0625 C23.9219,365.9063 23.9219,365.8594 23.9063,365.7031 C23.8438,365.2344 23.5313,364.9219 23.0781,364.9219 C22.8281,364.9219 22.5625,365.0625 22.3906,365.2813 C22.2813,365.4531 22.25,365.6094 22.25,366.0625 L22.25,366.1875 L20.7969,366.1875 L20.7969,363.7813 L24.7813,363.7813 L24.7813,364.6406 C24.7813,365.0469 24.8125,365.2188 24.8906,365.375 C25.0625,365.625 25.3438,365.7813 25.625,365.7813 C25.8906,365.7813 26.1563,365.6406 26.3281,365.4219 C26.4375,365.25 26.4688,365.1094 26.4688,364.6406 L26.4688,362.0938 L18.8438,362.0938 C18.4063,362.0938 18.2813,362.1094 18.125,362.2031 C17.875,362.3594 17.7188,362.6563 17.7188,362.9375 C17.7188,363.2188 17.8594,363.4688 18.0781,363.6406 C18.2344,363.75 18.4219,363.7813 18.8438,363.7813 L19.0938,363.7813 L19.0938,370.2969 L18.8438,370.2969 C18.4375,370.2969 18.2813,370.3125 18.125,370.4219 C17.875,370.5938 17.7188,370.8594 17.7188,371.1563 C17.7188,371.4219 17.8594,371.6719 18.0781,371.8281 C18.2188,371.9531 18.4531,372 18.8438,372 L26.8438,372 L26.8438,369.4219 C26.8438,368.9844 26.8125,368.8438 26.7344,368.6875 C26.5625,368.4375 26.2813,368.2813 26,368.2813 C25.7344,368.2813 25.4688,368.3906 25.2969,368.6406 C25.1875,368.7969 25.1563,368.9375 25.1563,369.4219 L25.1563,370.2969 L20.7969,370.2969 L20.7969,367.875 Z " fill="#000000"/><text fill="#000000" font-family="sans-serif" font-size="12" lengthAdjust="spacing" textLength="85" x="36" y="371.1543">credit_change</text><line style="stroke:#A80036;stroke-width:1.5;" x1="8" x2="123" y1="383" y2="383"/><ellipse cx="18" cy="394" fill="#000000" rx="3" ry="3" style="stroke:#000000;stroke-width:1.0;"/><text fill="#000000" font-family="sans-serif" font-size="11" lengthAdjust="spacing" textLength="17" x="27" y="397.2104">uid</text><line style="stroke:#A80036;stroke-width:1.5;" x1="8" x2="123" y1="403.8047" y2="403.8047"/><!--MD5=[0416f5fb6205a93aa5aff6ba1dff641f]
class dim_car_info--><rect codeLine="7" fill="#FEFECE" filter="url(#f1it0j3x4459ea)" height="60.8047" id="dim_car_info" style="stroke:#A80036;stroke-width:1.5;" width="107" x="160" y="191.5"/><ellipse cx="175" cy="207.5" fill="#ADD1B2" rx="11" ry="11" style="stroke:#A80036;stroke-width:1.0;"/><path d="M173.7969,208.375 L175.25,208.375 L175.25,208.4844 C175.25,208.8906 175.2813,209.0469 175.3594,209.2031 C175.5156,209.4531 175.7969,209.6094 176.0938,209.6094 C176.3438,209.6094 176.6094,209.4688 176.7656,209.25 C176.8906,209.0938 176.9219,208.9375 176.9219,208.4844 L176.9219,206.5625 C176.9219,206.4063 176.9219,206.3594 176.9063,206.2031 C176.8438,205.7344 176.5313,205.4219 176.0781,205.4219 C175.8281,205.4219 175.5625,205.5625 175.3906,205.7813 C175.2813,205.9531 175.25,206.1094 175.25,206.5625 L175.25,206.6875 L173.7969,206.6875 L173.7969,204.2813 L177.7813,204.2813 L177.7813,205.1406 C177.7813,205.5469 177.8125,205.7188 177.8906,205.875 C178.0625,206.125 178.3438,206.2813 178.625,206.2813 C178.8906,206.2813 179.1563,206.1406 179.3281,205.9219 C179.4375,205.75 179.4688,205.6094 179.4688,205.1406 L179.4688,202.5938 L171.8438,202.5938 C171.4063,202.5938 171.2813,202.6094 171.125,202.7031 C170.875,202.8594 170.7188,203.1563 170.7188,203.4375 C170.7188,203.7188 170.8594,203.9688 171.0781,204.1406 C171.2344,204.25 171.4219,204.2813 171.8438,204.2813 L172.0938,204.2813 L172.0938,210.7969 L171.8438,210.7969 C171.4375,210.7969 171.2813,210.8125 171.125,210.9219 C170.875,211.0938 170.7188,211.3594 170.7188,211.6563 C170.7188,211.9219 170.8594,212.1719 171.0781,212.3281 C171.2188,212.4531 171.4531,212.5 171.8438,212.5 L179.8438,212.5 L179.8438,209.9219 C179.8438,209.4844 179.8125,209.3438 179.7344,209.1875 C179.5625,208.9375 179.2813,208.7813 179,208.7813 C178.7344,208.7813 178.4688,208.8906 178.2969,209.1406 C178.1875,209.2969 178.1563,209.4375 178.1563,209.9219 L178.1563,210.7969 L173.7969,210.7969 L173.7969,208.375 Z " fill="#000000"/><text fill="#000000" font-family="sans-serif" font-size="12" lengthAdjust="spacing" textLength="75" x="189" y="211.6543">dim_car_info</text><line style="stroke:#A80036;stroke-width:1.5;" x1="161" x2="266" y1="223.5" y2="223.5"/><ellipse cx="171" cy="234.5" fill="#000000" rx="3" ry="3" style="stroke:#000000;stroke-width:1.0;"/><text fill="#000000" font-family="sans-serif" font-size="11" lengthAdjust="spacing" textLength="16" x="180" y="237.7104">cid</text><line style="stroke:#A80036;stroke-width:1.5;" x1="161" x2="266" y1="244.3047" y2="244.3047"/><!--MD5=[3ddbcbd6f8b10df5d38539e834874a60]
class car_live_data--><rect codeLine="10" fill="#FEFECE" filter="url(#f1it0j3x4459ea)" height="60.8047" id="car_live_data" style="stroke:#A80036;stroke-width:1.5;" width="110" x="159.5" y="351"/><ellipse cx="174.5" cy="367" fill="#ADD1B2" rx="11" ry="11" style="stroke:#A80036;stroke-width:1.0;"/><path d="M173.2969,367.875 L174.75,367.875 L174.75,367.9844 C174.75,368.3906 174.7813,368.5469 174.8594,368.7031 C175.0156,368.9531 175.2969,369.1094 175.5938,369.1094 C175.8438,369.1094 176.1094,368.9688 176.2656,368.75 C176.3906,368.5938 176.4219,368.4375 176.4219,367.9844 L176.4219,366.0625 C176.4219,365.9063 176.4219,365.8594 176.4063,365.7031 C176.3438,365.2344 176.0313,364.9219 175.5781,364.9219 C175.3281,364.9219 175.0625,365.0625 174.8906,365.2813 C174.7813,365.4531 174.75,365.6094 174.75,366.0625 L174.75,366.1875 L173.2969,366.1875 L173.2969,363.7813 L177.2813,363.7813 L177.2813,364.6406 C177.2813,365.0469 177.3125,365.2188 177.3906,365.375 C177.5625,365.625 177.8438,365.7813 178.125,365.7813 C178.3906,365.7813 178.6563,365.6406 178.8281,365.4219 C178.9375,365.25 178.9688,365.1094 178.9688,364.6406 L178.9688,362.0938 L171.3438,362.0938 C170.9063,362.0938 170.7813,362.1094 170.625,362.2031 C170.375,362.3594 170.2188,362.6563 170.2188,362.9375 C170.2188,363.2188 170.3594,363.4688 170.5781,363.6406 C170.7344,363.75 170.9219,363.7813 171.3438,363.7813 L171.5938,363.7813 L171.5938,370.2969 L171.3438,370.2969 C170.9375,370.2969 170.7813,370.3125 170.625,370.4219 C170.375,370.5938 170.2188,370.8594 170.2188,371.1563 C170.2188,371.4219 170.3594,371.6719 170.5781,371.8281 C170.7188,371.9531 170.9531,372 171.3438,372 L179.3438,372 L179.3438,369.4219 C179.3438,368.9844 179.3125,368.8438 179.2344,368.6875 C179.0625,368.4375 178.7813,368.2813 178.5,368.2813 C178.2344,368.2813 177.9688,368.3906 177.7969,368.6406 C177.6875,368.7969 177.6563,368.9375 177.6563,369.4219 L177.6563,370.2969 L173.2969,370.2969 L173.2969,367.875 Z " fill="#000000"/><text fill="#000000" font-family="sans-serif" font-size="12" lengthAdjust="spacing" textLength="78" x="188.5" y="371.1543">car_live_data</text><line style="stroke:#A80036;stroke-width:1.5;" x1="160.5" x2="268.5" y1="383" y2="383"/><ellipse cx="170.5" cy="394" fill="#000000" rx="3" ry="3" style="stroke:#000000;stroke-width:1.0;"/><text fill="#000000" font-family="sans-serif" font-size="11" lengthAdjust="spacing" textLength="16" x="179.5" y="397.2104">cid</text><line style="stroke:#A80036;stroke-width:1.5;" x1="160.5" x2="268.5" y1="403.8047" y2="403.8047"/><!--MD5=[01a729e2354d5d6d9c7570641d172f66]
class trips--><rect codeLine="13" fill="#FEFECE" filter="url(#f1it0j3x4459ea)" height="137.6328" id="trips" style="stroke:#A80036;stroke-width:1.5;" width="101" x="302" y="153"/><ellipse cx="335.9" cy="169" fill="#ADD1B2" rx="11" ry="11" style="stroke:#A80036;stroke-width:1.0;"/><path d="M334.6969,169.875 L336.15,169.875 L336.15,169.9844 C336.15,170.3906 336.1813,170.5469 336.2594,170.7031 C336.4156,170.9531 336.6969,171.1094 336.9938,171.1094 C337.2438,171.1094 337.5094,170.9688 337.6656,170.75 C337.7906,170.5938 337.8219,170.4375 337.8219,169.9844 L337.8219,168.0625 C337.8219,167.9063 337.8219,167.8594 337.8063,167.7031 C337.7438,167.2344 337.4313,166.9219 336.9781,166.9219 C336.7281,166.9219 336.4625,167.0625 336.2906,167.2813 C336.1813,167.4531 336.15,167.6094 336.15,168.0625 L336.15,168.1875 L334.6969,168.1875 L334.6969,165.7813 L338.6813,165.7813 L338.6813,166.6406 C338.6813,167.0469 338.7125,167.2188 338.7906,167.375 C338.9625,167.625 339.2438,167.7813 339.525,167.7813 C339.7906,167.7813 340.0563,167.6406 340.2281,167.4219 C340.3375,167.25 340.3688,167.1094 340.3688,166.6406 L340.3688,164.0938 L332.7438,164.0938 C332.3063,164.0938 332.1813,164.1094 332.025,164.2031 C331.775,164.3594 331.6188,164.6563 331.6188,164.9375 C331.6188,165.2188 331.7594,165.4688 331.9781,165.6406 C332.1344,165.75 332.3219,165.7813 332.7438,165.7813 L332.9938,165.7813 L332.9938,172.2969 L332.7438,172.2969 C332.3375,172.2969 332.1813,172.3125 332.025,172.4219 C331.775,172.5938 331.6188,172.8594 331.6188,173.1563 C331.6188,173.4219 331.7594,173.6719 331.9781,173.8281 C332.1188,173.9531 332.3531,174 332.7438,174 L340.7438,174 L340.7438,171.4219 C340.7438,170.9844 340.7125,170.8438 340.6344,170.6875 C340.4625,170.4375 340.1813,170.2813 339.9,170.2813 C339.6344,170.2813 339.3688,170.3906 339.1969,170.6406 C339.0875,170.7969 339.0563,170.9375 339.0563,171.4219 L339.0563,172.2969 L334.6969,172.2969 L334.6969,169.875 Z " fill="#000000"/><text fill="#000000" font-family="sans-serif" font-size="12" lengthAdjust="spacing" textLength="27" x="354.1" y="173.1543">trips</text><line style="stroke:#A80036;stroke-width:1.5;" x1="303" x2="402" y1="185" y2="185"/><ellipse cx="313" cy="196" fill="#000000" rx="3" ry="3" style="stroke:#000000;stroke-width:1.0;"/><text fill="#000000" font-family="sans-serif" font-size="11" lengthAdjust="spacing" textLength="14" x="322" y="199.2104">tid</text><ellipse cx="313" cy="208.8047" fill="#000000" rx="3" ry="3" style="stroke:#000000;stroke-width:1.0;"/><text fill="#000000" font-family="sans-serif" font-size="11" lengthAdjust="spacing" textLength="17" x="322" y="212.0151">bid</text><ellipse cx="313" cy="221.6094" fill="#000000" rx="3" ry="3" style="stroke:#000000;stroke-width:1.0;"/><text fill="#000000" font-family="sans-serif" font-size="11" lengthAdjust="spacing" textLength="57" x="322" y="224.8198">start_time</text><ellipse cx="313" cy="234.4141" fill="#000000" rx="3" ry="3" style="stroke:#000000;stroke-width:1.0;"/><text fill="#000000" font-family="sans-serif" font-size="11" lengthAdjust="spacing" textLength="54" x="322" y="237.6245">end_time</text><ellipse cx="313" cy="247.2188" fill="#000000" rx="3" ry="3" style="stroke:#000000;stroke-width:1.0;"/><text fill="#000000" font-family="sans-serif" font-size="11" lengthAdjust="spacing" textLength="75" x="322" y="250.4292">start_location</text><ellipse cx="313" cy="260.0234" fill="#000000" rx="3" ry="3" style="stroke:#000000;stroke-width:1.0;"/><text fill="#000000" font-family="sans-serif" font-size="11" lengthAdjust="spacing" textLength="72" x="322" y="263.2339">end_location</text><ellipse cx="313" cy="272.8281" fill="#000000" rx="3" ry="3" style="stroke:#000000;stroke-width:1.0;"/><text fill="#000000" font-family="sans-serif" font-size="11" lengthAdjust="spacing" textLength="43" x="322" y="276.0386">amount</text><line style="stroke:#A80036;stroke-width:1.5;" x1="303" x2="402" y1="282.6328" y2="282.6328"/><!--MD5=[04bb89374d3619c5f648bc9ec908bf2f]
class bookings--><rect codeLine="22" fill="#FEFECE" filter="url(#f1it0j3x4459ea)" height="86.4141" id="bookings" style="stroke:#A80036;stroke-width:1.5;" width="88" x="169.5" y="7"/><ellipse cx="184.5" cy="23" fill="#ADD1B2" rx="11" ry="11" style="stroke:#A80036;stroke-width:1.0;"/><path d="M183.2969,23.875 L184.75,23.875 L184.75,23.9844 C184.75,24.3906 184.7813,24.5469 184.8594,24.7031 C185.0156,24.9531 185.2969,25.1094 185.5938,25.1094 C185.8438,25.1094 186.1094,24.9688 186.2656,24.75 C186.3906,24.5938 186.4219,24.4375 186.4219,23.9844 L186.4219,22.0625 C186.4219,21.9063 186.4219,21.8594 186.4063,21.7031 C186.3438,21.2344 186.0313,20.9219 185.5781,20.9219 C185.3281,20.9219 185.0625,21.0625 184.8906,21.2813 C184.7813,21.4531 184.75,21.6094 184.75,22.0625 L184.75,22.1875 L183.2969,22.1875 L183.2969,19.7813 L187.2813,19.7813 L187.2813,20.6406 C187.2813,21.0469 187.3125,21.2188 187.3906,21.375 C187.5625,21.625 187.8438,21.7813 188.125,21.7813 C188.3906,21.7813 188.6563,21.6406 188.8281,21.4219 C188.9375,21.25 188.9688,21.1094 188.9688,20.6406 L188.9688,18.0938 L181.3438,18.0938 C180.9063,18.0938 180.7813,18.1094 180.625,18.2031 C180.375,18.3594 180.2188,18.6563 180.2188,18.9375 C180.2188,19.2188 180.3594,19.4688 180.5781,19.6406 C180.7344,19.75 180.9219,19.7813 181.3438,19.7813 L181.5938,19.7813 L181.5938,26.2969 L181.3438,26.2969 C180.9375,26.2969 180.7813,26.3125 180.625,26.4219 C180.375,26.5938 180.2188,26.8594 180.2188,27.1563 C180.2188,27.4219 180.3594,27.6719 180.5781,27.8281 C180.7188,27.9531 180.9531,28 181.3438,28 L189.3438,28 L189.3438,25.4219 C189.3438,24.9844 189.3125,24.8438 189.2344,24.6875 C189.0625,24.4375 188.7813,24.2813 188.5,24.2813 C188.2344,24.2813 187.9688,24.3906 187.7969,24.6406 C187.6875,24.7969 187.6563,24.9375 187.6563,25.4219 L187.6563,26.2969 L183.2969,26.2969 L183.2969,23.875 Z " fill="#000000"/><text fill="#000000" font-family="sans-serif" font-size="12" lengthAdjust="spacing" textLength="56" x="198.5" y="27.1543">bookings</text><line style="stroke:#A80036;stroke-width:1.5;" x1="170.5" x2="256.5" y1="39" y2="39"/><ellipse cx="180.5" cy="50" fill="#000000" rx="3" ry="3" style="stroke:#000000;stroke-width:1.0;"/><text fill="#000000" font-family="sans-serif" font-size="11" lengthAdjust="spacing" textLength="17" x="189.5" y="53.2104">bid</text><ellipse cx="180.5" cy="62.8047" fill="#000000" rx="3" ry="3" style="stroke:#000000;stroke-width:1.0;"/><text fill="#000000" font-family="sans-serif" font-size="11" lengthAdjust="spacing" textLength="17" x="189.5" y="66.0151">uid</text><ellipse cx="180.5" cy="75.6094" fill="#000000" rx="3" ry="3" style="stroke:#000000;stroke-width:1.0;"/><text fill="#000000" font-family="sans-serif" font-size="11" lengthAdjust="spacing" textLength="16" x="189.5" y="78.8198">cid</text><line style="stroke:#A80036;stroke-width:1.5;" x1="170.5" x2="256.5" y1="85.4141" y2="85.4141"/><!--MD5=[2250c4ac3ee818c1eeb2b66f8b5d71f5]
link dim_car_info to car_live_data--><path codeLine="28" d="M213.688,252.625 C213.866,280.694 214.133,322.6274 214.311,350.741 " fill="none" id="dim_car_info-car_live_data" style="stroke:#A80036;stroke-width:1.0;"/><!--MD5=[d8e782a567a87fa4a94d01c1a007cd6b]
link bookings to trips--><path codeLine="29" d="M247.86,93.022 C264.18,112.982 284.008,137.233 301.997,159.234 " fill="none" id="bookings-trips" style="stroke:#A80036;stroke-width:1.0;"/><!--MD5=[08db4cd29bd3f60a6c55a827d338ccf0]
link bookings to dim_user_info--><path codeLine="30" d="M177.163,93.022 C150.721,123.601 115.572,164.25 92.049,191.454 " fill="none" id="bookings-dim_user_info" style="stroke:#A80036;stroke-width:1.0;"/><!--MD5=[1284f4c2456e4f67b854d893d2cf56e4]
link bookings to dim_car_info--><path codeLine="31" d="M213.5,93.022 C213.5,123.601 213.5,164.25 213.5,191.454 " fill="none" id="bookings-dim_car_info" style="stroke:#A80036;stroke-width:1.0;"/><!--MD5=[ab453f9fbb5e0bd1a4c762a001ad40ef]
link dim_user_info to credit_change--><path codeLine="32" d="M66.3119,252.625 C66.1337,280.694 65.8674,322.6274 65.6889,350.741 " fill="none" id="dim_user_info-credit_change" style="stroke:#A80036;stroke-width:1.0;"/><!--MD5=[f3fedc41b7b0c0ef25d49f33e2bfe2e9]
@startuml
entity dim_user_info{
* uid
}
entity credit_change{
* uid
}
entity dim_car_info{
* cid
}
entity car_live_data{
* cid
}
entity trips{
* tid
* bid
* start_time
* end_time
* start_location
* end_location
* amount
}
entity bookings{
* bid
* uid
* cid
}

dim_car_info - - car_live_data
bookings - - trips
bookings - - dim_user_info
bookings - - dim_car_info
dim_user_info - - credit_change
@enduml

PlantUML version 1.2022.1beta1(Unknown compile time)
(GPL source distribution)
Java Runtime: Java(TM) SE Runtime Environment
JVM: Java HotSpot(TM) 64-Bit Server VM
Default Encoding: UTF-8
Language: en
Country: US
--></g></svg>