<?xml version="1.0" encoding="UTF-8" standalone="no"?>
<!DOCTYPE svg PUBLIC "-//W3C//DTD SVG 1.1//EN"
 "http://www.w3.org/Graphics/SVG/1.1/DTD/svg11.dtd">
<!-- Generated by graphviz version 13.0.1 (20250615.1724)
 -->
<!-- Pages: 1 -->
<svg width="1653pt" height="422pt"
 viewBox="0.00 0.00 1653.00 422.00" xmlns="http://www.w3.org/2000/svg" xmlns:xlink="http://www.w3.org/1999/xlink">
<g id="graph0" class="graph" transform="scale(1 1) rotate(0) translate(4 418)">
<polygon fill="white" stroke="none" points="-4,4 -4,-418 1648.5,-418 1648.5,4 -4,4"/>
<!-- n5243694104 -->
<g id="node1" class="node">
<title>n5243694104</title>
<polygon fill="none" stroke="black" points="341.5,-279 0,-279 0,-243 341.5,-243 341.5,-279"/>
<text xml:space="preserve" text-anchor="middle" x="170.75" y="-255.95" font-family="Times,serif" font-size="14.00">StreamingStoreSource:stream=default.device_utils,shard=0</text>
</g>
<!-- n5248280088 -->
<g id="node2" class="node">
<title>n5248280088</title>
<polygon fill="none" stroke="black" points="511.25,-279 377.5,-279 377.5,-243 511.25,-243 511.25,-279"/>
<text xml:space="preserve" text-anchor="middle" x="444.38" y="-255.95" font-family="Times,serif" font-size="14.00">ExpressionTransform</text>
</g>
<!-- n5243694104&#45;&gt;n5248280088 -->
<g id="edge1" class="edge">
<title>n5243694104&#45;&gt;n5248280088</title>
<path fill="none" stroke="black" d="M341.85,-261C350.01,-261 358,-261 365.68,-261"/>
<polygon fill="black" stroke="black" points="365.57,-264.5 375.57,-261 365.57,-257.5 365.57,-264.5"/>
</g>
<!-- n5248278552 -->
<g id="node7" class="node">
<title>n5248278552</title>
<polygon fill="none" stroke="black" points="701.25,-279 547.25,-279 547.25,-243 701.25,-243 701.25,-279"/>
<text xml:space="preserve" text-anchor="middle" x="624.25" y="-255.95" font-family="Times,serif" font-size="14.00">LightShufflingTransform</text>
</g>
<!-- n5248280088&#45;&gt;n5248278552 -->
<g id="edge2" class="edge">
<title>n5248280088&#45;&gt;n5248278552</title>
<path fill="none" stroke="black" d="M511.61,-261C519.4,-261 527.43,-261 535.46,-261"/>
<polygon fill="black" stroke="black" points="535.25,-264.5 545.25,-261 535.25,-257.5 535.25,-264.5"/>
</g>
<!-- n5352261656 -->
<g id="node3" class="node">
<title>n5352261656</title>
<polygon fill="none" stroke="black" points="341.5,-225 0,-225 0,-189 341.5,-189 341.5,-225"/>
<text xml:space="preserve" text-anchor="middle" x="170.75" y="-201.95" font-family="Times,serif" font-size="14.00">StreamingStoreSource:stream=default.device_utils,shard=1</text>
</g>
<!-- n5248280600 -->
<g id="node4" class="node">
<title>n5248280600</title>
<polygon fill="none" stroke="black" points="511.25,-225 377.5,-225 377.5,-189 511.25,-189 511.25,-225"/>
<text xml:space="preserve" text-anchor="middle" x="444.38" y="-201.95" font-family="Times,serif" font-size="14.00">ExpressionTransform</text>
</g>
<!-- n5352261656&#45;&gt;n5248280600 -->
<g id="edge3" class="edge">
<title>n5352261656&#45;&gt;n5248280600</title>
<path fill="none" stroke="black" d="M341.85,-207C350.01,-207 358,-207 365.68,-207"/>
<polygon fill="black" stroke="black" points="365.57,-210.5 375.57,-207 365.57,-203.5 365.57,-210.5"/>
</g>
<!-- n5248278040 -->
<g id="node8" class="node">
<title>n5248278040</title>
<polygon fill="none" stroke="black" points="701.25,-225 547.25,-225 547.25,-189 701.25,-189 701.25,-225"/>
<text xml:space="preserve" text-anchor="middle" x="624.25" y="-201.95" font-family="Times,serif" font-size="14.00">LightShufflingTransform</text>
</g>
<!-- n5248280600&#45;&gt;n5248278040 -->
<g id="edge4" class="edge">
<title>n5248280600&#45;&gt;n5248278040</title>
<path fill="none" stroke="black" d="M511.61,-207C519.4,-207 527.43,-207 535.46,-207"/>
<polygon fill="black" stroke="black" points="535.25,-210.5 545.25,-207 535.25,-203.5 535.25,-210.5"/>
</g>
<!-- n5243686936 -->
<g id="node5" class="node">
<title>n5243686936</title>
<polygon fill="none" stroke="black" points="341.5,-171 0,-171 0,-135 341.5,-135 341.5,-171"/>
<text xml:space="preserve" text-anchor="middle" x="170.75" y="-147.95" font-family="Times,serif" font-size="14.00">StreamingStoreSource:stream=default.device_utils,shard=2</text>
</g>
<!-- n5248281112 -->
<g id="node6" class="node">
<title>n5248281112</title>
<polygon fill="none" stroke="black" points="511.25,-171 377.5,-171 377.5,-135 511.25,-135 511.25,-171"/>
<text xml:space="preserve" text-anchor="middle" x="444.38" y="-147.95" font-family="Times,serif" font-size="14.00">ExpressionTransform</text>
</g>
<!-- n5243686936&#45;&gt;n5248281112 -->
<g id="edge5" class="edge">
<title>n5243686936&#45;&gt;n5248281112</title>
<path fill="none" stroke="black" d="M341.85,-153C350.01,-153 358,-153 365.68,-153"/>
<polygon fill="black" stroke="black" points="365.57,-156.5 375.57,-153 365.57,-149.5 365.57,-156.5"/>
</g>
<!-- n5348156440 -->
<g id="node9" class="node">
<title>n5348156440</title>
<polygon fill="none" stroke="black" points="701.25,-171 547.25,-171 547.25,-135 701.25,-135 701.25,-171"/>
<text xml:space="preserve" text-anchor="middle" x="624.25" y="-147.95" font-family="Times,serif" font-size="14.00">LightShufflingTransform</text>
</g>
<!-- n5248281112&#45;&gt;n5348156440 -->
<g id="edge6" class="edge">
<title>n5248281112&#45;&gt;n5348156440</title>
<path fill="none" stroke="black" d="M511.61,-153C519.4,-153 527.43,-153 535.46,-153"/>
<polygon fill="black" stroke="black" points="535.25,-156.5 545.25,-153 535.25,-149.5 535.25,-156.5"/>
</g>
<!-- n5231623960 -->
<g id="node10" class="node">
<title>n5231623960</title>
<polygon fill="none" stroke="black" points="881.5,-414 737.25,-414 737.25,-378 881.5,-378 881.5,-414"/>
<text xml:space="preserve" text-anchor="middle" x="809.38" y="-390.95" font-family="Times,serif" font-size="14.00">StreamingShrinkResize</text>
</g>
<!-- n5248278552&#45;&gt;n5231623960 -->
<g id="edge7" class="edge">
<title>n5248278552&#45;&gt;n5231623960</title>
<path fill="none" stroke="black" d="M640.14,-279.4C660.08,-302.98 697.55,-343.83 737.25,-369 739.09,-370.17 740.99,-371.3 742.93,-372.39"/>
<polygon fill="black" stroke="black" points="741.09,-375.37 751.58,-376.83 744.29,-369.15 741.09,-375.37"/>
</g>
<!-- n5231624408 -->
<g id="node11" class="node">
<title>n5231624408</title>
<polygon fill="none" stroke="black" points="881.5,-360 737.25,-360 737.25,-324 881.5,-324 881.5,-360"/>
<text xml:space="preserve" text-anchor="middle" x="809.38" y="-336.95" font-family="Times,serif" font-size="14.00">StreamingShrinkResize</text>
</g>
<!-- n5248278552&#45;&gt;n5231624408 -->
<g id="edge8" class="edge">
<title>n5248278552&#45;&gt;n5231624408</title>
<path fill="none" stroke="black" d="M661.45,-279.44C683.21,-290.27 711.57,-303.96 737.25,-315 740.59,-316.43 744.03,-317.87 747.51,-319.3"/>
<polygon fill="black" stroke="black" points="746.04,-322.48 756.63,-322.95 748.64,-315.98 746.04,-322.48"/>
</g>
<!-- n5231624856 -->
<g id="node12" class="node">
<title>n5231624856</title>
<polygon fill="none" stroke="black" points="881.5,-306 737.25,-306 737.25,-270 881.5,-270 881.5,-306"/>
<text xml:space="preserve" text-anchor="middle" x="809.38" y="-282.95" font-family="Times,serif" font-size="14.00">StreamingShrinkResize</text>
</g>
<!-- n5248278552&#45;&gt;n5231624856 -->
<g id="edge9" class="edge">
<title>n5248278552&#45;&gt;n5231624856</title>
<path fill="none" stroke="black" d="M701.59,-272.25C709.52,-273.43 717.62,-274.62 725.62,-275.8"/>
<polygon fill="black" stroke="black" points="724.95,-279.24 735.36,-277.23 725.97,-272.31 724.95,-279.24"/>
</g>
<!-- n5231609624 -->
<g id="node13" class="node">
<title>n5231609624</title>
<polygon fill="none" stroke="black" points="881.5,-252 737.25,-252 737.25,-216 881.5,-216 881.5,-252"/>
<text xml:space="preserve" text-anchor="middle" x="809.38" y="-228.95" font-family="Times,serif" font-size="14.00">StreamingShrinkResize</text>
</g>
<!-- n5248278552&#45;&gt;n5231609624 -->
<g id="edge10" class="edge">
<title>n5248278552&#45;&gt;n5231609624</title>
<path fill="none" stroke="black" d="M701.59,-249.75C709.52,-248.57 717.62,-247.38 725.62,-246.2"/>
<polygon fill="black" stroke="black" points="725.97,-249.69 735.36,-244.77 724.95,-242.76 725.97,-249.69"/>
</g>
<!-- n5231621720 -->
<g id="node14" class="node">
<title>n5231621720</title>
<polygon fill="none" stroke="black" points="881.5,-198 737.25,-198 737.25,-162 881.5,-162 881.5,-198"/>
<text xml:space="preserve" text-anchor="middle" x="809.38" y="-174.95" font-family="Times,serif" font-size="14.00">StreamingShrinkResize</text>
</g>
<!-- n5248278552&#45;&gt;n5231621720 -->
<g id="edge11" class="edge">
<title>n5248278552&#45;&gt;n5231621720</title>
<path fill="none" stroke="black" d="M682.91,-242.62C689.22,-239.99 695.45,-237.11 701.25,-234 718.87,-224.54 719.73,-216.64 737.25,-207 739.59,-205.71 742.01,-204.46 744.48,-203.24"/>
<polygon fill="black" stroke="black" points="745.84,-206.47 753.44,-199.09 742.89,-200.11 745.84,-206.47"/>
</g>
<!-- n5231622168 -->
<g id="node15" class="node">
<title>n5231622168</title>
<polygon fill="none" stroke="black" points="881.5,-144 737.25,-144 737.25,-108 881.5,-108 881.5,-144"/>
<text xml:space="preserve" text-anchor="middle" x="809.38" y="-120.95" font-family="Times,serif" font-size="14.00">StreamingShrinkResize</text>
</g>
<!-- n5248278552&#45;&gt;n5231622168 -->
<g id="edge12" class="edge">
<title>n5248278552&#45;&gt;n5231622168</title>
<path fill="none" stroke="black" d="M689.7,-242.6C693.85,-240.09 697.76,-237.23 701.25,-234 730.16,-207.23 708.63,-180.07 737.25,-153 738.01,-152.29 738.78,-151.59 739.58,-150.91"/>
<polygon fill="black" stroke="black" points="741.44,-153.88 747.5,-145.19 737.34,-148.21 741.44,-153.88"/>
</g>
<!-- n5231622616 -->
<g id="node16" class="node">
<title>n5231622616</title>
<polygon fill="none" stroke="black" points="881.5,-90 737.25,-90 737.25,-54 881.5,-54 881.5,-90"/>
<text xml:space="preserve" text-anchor="middle" x="809.38" y="-66.95" font-family="Times,serif" font-size="14.00">StreamingShrinkResize</text>
</g>
<!-- n5248278552&#45;&gt;n5231622616 -->
<g id="edge13" class="edge">
<title>n5248278552&#45;&gt;n5231622616</title>
<path fill="none" stroke="black" d="M691.01,-242.73C694.75,-240.19 698.21,-237.29 701.25,-234 743.35,-188.35 695.64,-145.09 737.25,-99 737.62,-98.6 737.99,-98.2 738.36,-97.8"/>
<polygon fill="black" stroke="black" points="740.59,-100.5 745.98,-91.38 736.08,-95.15 740.59,-100.5"/>
</g>
<!-- n5231623064 -->
<g id="node17" class="node">
<title>n5231623064</title>
<polygon fill="none" stroke="black" points="881.5,-36 737.25,-36 737.25,0 881.5,0 881.5,-36"/>
<text xml:space="preserve" text-anchor="middle" x="809.38" y="-12.95" font-family="Times,serif" font-size="14.00">StreamingShrinkResize</text>
</g>
<!-- n5248278552&#45;&gt;n5231623064 -->
<g id="edge14" class="edge">
<title>n5248278552&#45;&gt;n5231623064</title>
<path fill="none" stroke="black" d="M691.63,-242.73C695.17,-240.19 698.42,-237.3 701.25,-234 756.91,-169.09 682.29,-110.51 737.25,-45 737.5,-44.7 737.76,-44.4 738.03,-44.1"/>
<polygon fill="black" stroke="black" points="740.35,-46.72 745.42,-37.42 735.66,-41.52 740.35,-46.72"/>
</g>
<!-- n5248278040&#45;&gt;n5231623960 -->
<g id="edge15" class="edge">
<title>n5248278040&#45;&gt;n5231623960</title>
<path fill="none" stroke="black" d="M691.01,-225.27C694.75,-227.81 698.21,-230.71 701.25,-234 743.35,-279.65 695.64,-322.91 737.25,-369 737.62,-369.4 737.99,-369.8 738.36,-370.2"/>
<polygon fill="black" stroke="black" points="736.08,-372.85 745.98,-376.62 740.59,-367.5 736.08,-372.85"/>
</g>
<!-- n5248278040&#45;&gt;n5231624408 -->
<g id="edge16" class="edge">
<title>n5248278040&#45;&gt;n5231624408</title>
<path fill="none" stroke="black" d="M689.7,-225.4C693.85,-227.91 697.76,-230.77 701.25,-234 730.16,-260.77 708.63,-287.93 737.25,-315 738.01,-315.71 738.78,-316.41 739.58,-317.09"/>
<polygon fill="black" stroke="black" points="737.34,-319.79 747.5,-322.81 741.44,-314.12 737.34,-319.79"/>
</g>
<!-- n5248278040&#45;&gt;n5231624856 -->
<g id="edge17" class="edge">
<title>n5248278040&#45;&gt;n5231624856</title>
<path fill="none" stroke="black" d="M682.91,-225.38C689.22,-228.01 695.45,-230.89 701.25,-234 718.87,-243.46 719.73,-251.36 737.25,-261 739.59,-262.29 742.01,-263.54 744.48,-264.76"/>
<polygon fill="black" stroke="black" points="742.89,-267.89 753.44,-268.91 745.84,-261.53 742.89,-267.89"/>
</g>
<!-- n5248278040&#45;&gt;n5231609624 -->
<g id="edge18" class="edge">
<title>n5248278040&#45;&gt;n5231609624</title>
<path fill="none" stroke="black" d="M701.59,-218.25C709.52,-219.43 717.62,-220.62 725.62,-221.8"/>
<polygon fill="black" stroke="black" points="724.95,-225.24 735.36,-223.23 725.97,-218.31 724.95,-225.24"/>
</g>
<!-- n5248278040&#45;&gt;n5231621720 -->
<g id="edge19" class="edge">
<title>n5248278040&#45;&gt;n5231621720</title>
<path fill="none" stroke="black" d="M701.59,-195.75C709.52,-194.57 717.62,-193.38 725.62,-192.2"/>
<polygon fill="black" stroke="black" points="725.97,-195.69 735.36,-190.77 724.95,-188.76 725.97,-195.69"/>
</g>
<!-- n5248278040&#45;&gt;n5231622168 -->
<g id="edge20" class="edge">
<title>n5248278040&#45;&gt;n5231622168</title>
<path fill="none" stroke="black" d="M682.91,-188.62C689.22,-185.99 695.45,-183.11 701.25,-180 718.87,-170.54 719.73,-162.64 737.25,-153 739.59,-151.71 742.01,-150.46 744.48,-149.24"/>
<polygon fill="black" stroke="black" points="745.84,-152.47 753.44,-145.09 742.89,-146.11 745.84,-152.47"/>
</g>
<!-- n5248278040&#45;&gt;n5231622616 -->
<g id="edge21" class="edge">
<title>n5248278040&#45;&gt;n5231622616</title>
<path fill="none" stroke="black" d="M689.7,-188.6C693.85,-186.09 697.76,-183.23 701.25,-180 730.16,-153.23 708.63,-126.07 737.25,-99 738.01,-98.29 738.78,-97.59 739.58,-96.91"/>
<polygon fill="black" stroke="black" points="741.44,-99.88 747.5,-91.19 737.34,-94.21 741.44,-99.88"/>
</g>
<!-- n5248278040&#45;&gt;n5231623064 -->
<g id="edge22" class="edge">
<title>n5248278040&#45;&gt;n5231623064</title>
<path fill="none" stroke="black" d="M691.01,-188.73C694.75,-186.19 698.21,-183.29 701.25,-180 743.35,-134.35 695.64,-91.09 737.25,-45 737.62,-44.6 737.99,-44.2 738.36,-43.8"/>
<polygon fill="black" stroke="black" points="740.59,-46.5 745.98,-37.38 736.08,-41.15 740.59,-46.5"/>
</g>
<!-- n5348156440&#45;&gt;n5231623960 -->
<g id="edge23" class="edge">
<title>n5348156440&#45;&gt;n5231623960</title>
<path fill="none" stroke="black" d="M691.63,-171.27C695.17,-173.81 698.42,-176.7 701.25,-180 756.91,-244.91 682.29,-303.49 737.25,-369 737.5,-369.3 737.76,-369.6 738.03,-369.9"/>
<polygon fill="black" stroke="black" points="735.66,-372.48 745.42,-376.58 740.35,-367.28 735.66,-372.48"/>
</g>
<!-- n5348156440&#45;&gt;n5231624408 -->
<g id="edge24" class="edge">
<title>n5348156440&#45;&gt;n5231624408</title>
<path fill="none" stroke="black" d="M691.01,-171.27C694.75,-173.81 698.21,-176.71 701.25,-180 743.35,-225.65 695.64,-268.91 737.25,-315 737.62,-315.4 737.99,-315.8 738.36,-316.2"/>
<polygon fill="black" stroke="black" points="736.08,-318.85 745.98,-322.62 740.59,-313.5 736.08,-318.85"/>
</g>
<!-- n5348156440&#45;&gt;n5231624856 -->
<g id="edge25" class="edge">
<title>n5348156440&#45;&gt;n5231624856</title>
<path fill="none" stroke="black" d="M689.7,-171.4C693.85,-173.91 697.76,-176.77 701.25,-180 730.16,-206.77 708.63,-233.93 737.25,-261 738.01,-261.71 738.78,-262.41 739.58,-263.09"/>
<polygon fill="black" stroke="black" points="737.34,-265.79 747.5,-268.81 741.44,-260.12 737.34,-265.79"/>
</g>
<!-- n5348156440&#45;&gt;n5231609624 -->
<g id="edge26" class="edge">
<title>n5348156440&#45;&gt;n5231609624</title>
<path fill="none" stroke="black" d="M682.91,-171.38C689.22,-174.01 695.45,-176.89 701.25,-180 718.87,-189.46 719.73,-197.36 737.25,-207 739.59,-208.29 742.01,-209.54 744.48,-210.76"/>
<polygon fill="black" stroke="black" points="742.89,-213.89 753.44,-214.91 745.84,-207.53 742.89,-213.89"/>
</g>
<!-- n5348156440&#45;&gt;n5231621720 -->
<g id="edge27" class="edge">
<title>n5348156440&#45;&gt;n5231621720</title>
<path fill="none" stroke="black" d="M701.59,-164.25C709.52,-165.43 717.62,-166.62 725.62,-167.8"/>
<polygon fill="black" stroke="black" points="724.95,-171.24 735.36,-169.23 725.97,-164.31 724.95,-171.24"/>
</g>
<!-- n5348156440&#45;&gt;n5231622168 -->
<g id="edge28" class="edge">
<title>n5348156440&#45;&gt;n5231622168</title>
<path fill="none" stroke="black" d="M701.59,-141.75C709.52,-140.57 717.62,-139.38 725.62,-138.2"/>
<polygon fill="black" stroke="black" points="725.97,-141.69 735.36,-136.77 724.95,-134.76 725.97,-141.69"/>
</g>
<!-- n5348156440&#45;&gt;n5231622616 -->
<g id="edge29" class="edge">
<title>n5348156440&#45;&gt;n5231622616</title>
<path fill="none" stroke="black" d="M661.45,-134.56C683.21,-123.73 711.57,-110.04 737.25,-99 740.59,-97.57 744.03,-96.13 747.51,-94.7"/>
<polygon fill="black" stroke="black" points="748.64,-98.02 756.63,-91.05 746.04,-91.52 748.64,-98.02"/>
</g>
<!-- n5348156440&#45;&gt;n5231623064 -->
<g id="edge30" class="edge">
<title>n5348156440&#45;&gt;n5231623064</title>
<path fill="none" stroke="black" d="M640.14,-134.6C660.08,-111.02 697.55,-70.17 737.25,-45 739.09,-43.83 740.99,-42.7 742.93,-41.61"/>
<polygon fill="black" stroke="black" points="744.29,-44.85 751.58,-37.17 741.09,-38.63 744.29,-44.85"/>
</g>
<!-- n5348159000 -->
<g id="node18" class="node">
<title>n5348159000</title>
<polygon fill="none" stroke="black" points="1052.75,-414 917.5,-414 917.5,-378 1052.75,-378 1052.75,-414"/>
<text xml:space="preserve" text-anchor="middle" x="985.12" y="-390.95" font-family="Times,serif" font-size="14.00">WatermarkTransform</text>
</g>
<!-- n5231623960&#45;&gt;n5348159000 -->
<g id="edge31" class="edge">
<title>n5231623960&#45;&gt;n5348159000</title>
<path fill="none" stroke="black" d="M881.8,-396C889.75,-396 897.88,-396 905.91,-396"/>
<polygon fill="black" stroke="black" points="905.66,-399.5 915.66,-396 905.66,-392.5 905.66,-399.5"/>
</g>
<!-- n5352033816 -->
<g id="node19" class="node">
<title>n5352033816</title>
<polygon fill="none" stroke="black" points="1052.75,-360 917.5,-360 917.5,-324 1052.75,-324 1052.75,-360"/>
<text xml:space="preserve" text-anchor="middle" x="985.12" y="-336.95" font-family="Times,serif" font-size="14.00">WatermarkTransform</text>
</g>
<!-- n5231624408&#45;&gt;n5352033816 -->
<g id="edge32" class="edge">
<title>n5231624408&#45;&gt;n5352033816</title>
<path fill="none" stroke="black" d="M881.8,-342C889.75,-342 897.88,-342 905.91,-342"/>
<polygon fill="black" stroke="black" points="905.66,-345.5 915.66,-342 905.66,-338.5 905.66,-345.5"/>
</g>
<!-- n5248274456 -->
<g id="node20" class="node">
<title>n5248274456</title>
<polygon fill="none" stroke="black" points="1052.75,-306 917.5,-306 917.5,-270 1052.75,-270 1052.75,-306"/>
<text xml:space="preserve" text-anchor="middle" x="985.12" y="-282.95" font-family="Times,serif" font-size="14.00">WatermarkTransform</text>
</g>
<!-- n5231624856&#45;&gt;n5248274456 -->
<g id="edge33" class="edge">
<title>n5231624856&#45;&gt;n5248274456</title>
<path fill="none" stroke="black" d="M881.8,-288C889.75,-288 897.88,-288 905.91,-288"/>
<polygon fill="black" stroke="black" points="905.66,-291.5 915.66,-288 905.66,-284.5 905.66,-291.5"/>
</g>
<!-- n5248274968 -->
<g id="node21" class="node">
<title>n5248274968</title>
<polygon fill="none" stroke="black" points="1052.75,-252 917.5,-252 917.5,-216 1052.75,-216 1052.75,-252"/>
<text xml:space="preserve" text-anchor="middle" x="985.12" y="-228.95" font-family="Times,serif" font-size="14.00">WatermarkTransform</text>
</g>
<!-- n5231609624&#45;&gt;n5248274968 -->
<g id="edge34" class="edge">
<title>n5231609624&#45;&gt;n5248274968</title>
<path fill="none" stroke="black" d="M881.8,-234C889.75,-234 897.88,-234 905.91,-234"/>
<polygon fill="black" stroke="black" points="905.66,-237.5 915.66,-234 905.66,-230.5 905.66,-237.5"/>
</g>
<!-- n5248275480 -->
<g id="node22" class="node">
<title>n5248275480</title>
<polygon fill="none" stroke="black" points="1052.75,-198 917.5,-198 917.5,-162 1052.75,-162 1052.75,-198"/>
<text xml:space="preserve" text-anchor="middle" x="985.12" y="-174.95" font-family="Times,serif" font-size="14.00">WatermarkTransform</text>
</g>
<!-- n5231621720&#45;&gt;n5248275480 -->
<g id="edge35" class="edge">
<title>n5231621720&#45;&gt;n5248275480</title>
<path fill="none" stroke="black" d="M881.8,-180C889.75,-180 897.88,-180 905.91,-180"/>
<polygon fill="black" stroke="black" points="905.66,-183.5 915.66,-180 905.66,-176.5 905.66,-183.5"/>
</g>
<!-- n5248275992 -->
<g id="node23" class="node">
<title>n5248275992</title>
<polygon fill="none" stroke="black" points="1052.75,-144 917.5,-144 917.5,-108 1052.75,-108 1052.75,-144"/>
<text xml:space="preserve" text-anchor="middle" x="985.12" y="-120.95" font-family="Times,serif" font-size="14.00">WatermarkTransform</text>
</g>
<!-- n5231622168&#45;&gt;n5248275992 -->
<g id="edge36" class="edge">
<title>n5231622168&#45;&gt;n5248275992</title>
<path fill="none" stroke="black" d="M881.8,-126C889.75,-126 897.88,-126 905.91,-126"/>
<polygon fill="black" stroke="black" points="905.66,-129.5 915.66,-126 905.66,-122.5 905.66,-129.5"/>
</g>
<!-- n5248276504 -->
<g id="node24" class="node">
<title>n5248276504</title>
<polygon fill="none" stroke="black" points="1052.75,-90 917.5,-90 917.5,-54 1052.75,-54 1052.75,-90"/>
<text xml:space="preserve" text-anchor="middle" x="985.12" y="-66.95" font-family="Times,serif" font-size="14.00">WatermarkTransform</text>
</g>
<!-- n5231622616&#45;&gt;n5248276504 -->
<g id="edge37" class="edge">
<title>n5231622616&#45;&gt;n5248276504</title>
<path fill="none" stroke="black" d="M881.8,-72C889.75,-72 897.88,-72 905.91,-72"/>
<polygon fill="black" stroke="black" points="905.66,-75.5 915.66,-72 905.66,-68.5 905.66,-75.5"/>
</g>
<!-- n5248277016 -->
<g id="node25" class="node">
<title>n5248277016</title>
<polygon fill="none" stroke="black" points="1052.75,-36 917.5,-36 917.5,0 1052.75,0 1052.75,-36"/>
<text xml:space="preserve" text-anchor="middle" x="985.12" y="-12.95" font-family="Times,serif" font-size="14.00">WatermarkTransform</text>
</g>
<!-- n5231623064&#45;&gt;n5248277016 -->
<g id="edge38" class="edge">
<title>n5231623064&#45;&gt;n5248277016</title>
<path fill="none" stroke="black" d="M881.8,-18C889.75,-18 897.88,-18 905.91,-18"/>
<polygon fill="black" stroke="black" points="905.66,-21.5 915.66,-18 905.66,-14.5 905.66,-21.5"/>
</g>
<!-- n5348160536 -->
<g id="node26" class="node">
<title>n5348160536</title>
<polygon fill="none" stroke="black" points="1222.5,-414 1088.75,-414 1088.75,-378 1222.5,-378 1222.5,-414"/>
<text xml:space="preserve" text-anchor="middle" x="1155.62" y="-390.95" font-family="Times,serif" font-size="14.00">ExpressionTransform</text>
</g>
<!-- n5348159000&#45;&gt;n5348160536 -->
<g id="edge39" class="edge">
<title>n5348159000&#45;&gt;n5348160536</title>
<path fill="none" stroke="black" d="M1053.2,-396C1060.97,-396 1068.95,-396 1076.84,-396"/>
<polygon fill="black" stroke="black" points="1076.81,-399.5 1086.81,-396 1076.81,-392.5 1076.81,-399.5"/>
</g>
<!-- n5348161048 -->
<g id="node27" class="node">
<title>n5348161048</title>
<polygon fill="none" stroke="black" points="1222.5,-360 1088.75,-360 1088.75,-324 1222.5,-324 1222.5,-360"/>
<text xml:space="preserve" text-anchor="middle" x="1155.62" y="-336.95" font-family="Times,serif" font-size="14.00">ExpressionTransform</text>
</g>
<!-- n5352033816&#45;&gt;n5348161048 -->
<g id="edge40" class="edge">
<title>n5352033816&#45;&gt;n5348161048</title>
<path fill="none" stroke="black" d="M1053.2,-342C1060.97,-342 1068.95,-342 1076.84,-342"/>
<polygon fill="black" stroke="black" points="1076.81,-345.5 1086.81,-342 1076.81,-338.5 1076.81,-345.5"/>
</g>
<!-- n5348161560 -->
<g id="node28" class="node">
<title>n5348161560</title>
<polygon fill="none" stroke="black" points="1222.5,-306 1088.75,-306 1088.75,-270 1222.5,-270 1222.5,-306"/>
<text xml:space="preserve" text-anchor="middle" x="1155.62" y="-282.95" font-family="Times,serif" font-size="14.00">ExpressionTransform</text>
</g>
<!-- n5248274456&#45;&gt;n5348161560 -->
<g id="edge41" class="edge">
<title>n5248274456&#45;&gt;n5348161560</title>
<path fill="none" stroke="black" d="M1053.2,-288C1060.97,-288 1068.95,-288 1076.84,-288"/>
<polygon fill="black" stroke="black" points="1076.81,-291.5 1086.81,-288 1076.81,-284.5 1076.81,-291.5"/>
</g>
<!-- n5348162072 -->
<g id="node29" class="node">
<title>n5348162072</title>
<polygon fill="none" stroke="black" points="1222.5,-252 1088.75,-252 1088.75,-216 1222.5,-216 1222.5,-252"/>
<text xml:space="preserve" text-anchor="middle" x="1155.62" y="-228.95" font-family="Times,serif" font-size="14.00">ExpressionTransform</text>
</g>
<!-- n5248274968&#45;&gt;n5348162072 -->
<g id="edge42" class="edge">
<title>n5248274968&#45;&gt;n5348162072</title>
<path fill="none" stroke="black" d="M1053.2,-234C1060.97,-234 1068.95,-234 1076.84,-234"/>
<polygon fill="black" stroke="black" points="1076.81,-237.5 1086.81,-234 1076.81,-230.5 1076.81,-237.5"/>
</g>
<!-- n5348162584 -->
<g id="node30" class="node">
<title>n5348162584</title>
<polygon fill="none" stroke="black" points="1222.5,-198 1088.75,-198 1088.75,-162 1222.5,-162 1222.5,-198"/>
<text xml:space="preserve" text-anchor="middle" x="1155.62" y="-174.95" font-family="Times,serif" font-size="14.00">ExpressionTransform</text>
</g>
<!-- n5248275480&#45;&gt;n5348162584 -->
<g id="edge43" class="edge">
<title>n5248275480&#45;&gt;n5348162584</title>
<path fill="none" stroke="black" d="M1053.2,-180C1060.97,-180 1068.95,-180 1076.84,-180"/>
<polygon fill="black" stroke="black" points="1076.81,-183.5 1086.81,-180 1076.81,-176.5 1076.81,-183.5"/>
</g>
<!-- n5348163096 -->
<g id="node31" class="node">
<title>n5348163096</title>
<polygon fill="none" stroke="black" points="1222.5,-144 1088.75,-144 1088.75,-108 1222.5,-108 1222.5,-144"/>
<text xml:space="preserve" text-anchor="middle" x="1155.62" y="-120.95" font-family="Times,serif" font-size="14.00">ExpressionTransform</text>
</g>
<!-- n5248275992&#45;&gt;n5348163096 -->
<g id="edge44" class="edge">
<title>n5248275992&#45;&gt;n5348163096</title>
<path fill="none" stroke="black" d="M1053.2,-126C1060.97,-126 1068.95,-126 1076.84,-126"/>
<polygon fill="black" stroke="black" points="1076.81,-129.5 1086.81,-126 1076.81,-122.5 1076.81,-129.5"/>
</g>
<!-- n5352030232 -->
<g id="node32" class="node">
<title>n5352030232</title>
<polygon fill="none" stroke="black" points="1222.5,-90 1088.75,-90 1088.75,-54 1222.5,-54 1222.5,-90"/>
<text xml:space="preserve" text-anchor="middle" x="1155.62" y="-66.95" font-family="Times,serif" font-size="14.00">ExpressionTransform</text>
</g>
<!-- n5248276504&#45;&gt;n5352030232 -->
<g id="edge45" class="edge">
<title>n5248276504&#45;&gt;n5352030232</title>
<path fill="none" stroke="black" d="M1053.2,-72C1060.97,-72 1068.95,-72 1076.84,-72"/>
<polygon fill="black" stroke="black" points="1076.81,-75.5 1086.81,-72 1076.81,-68.5 1076.81,-75.5"/>
</g>
<!-- n5348152344 -->
<g id="node33" class="node">
<title>n5348152344</title>
<polygon fill="none" stroke="black" points="1222.5,-36 1088.75,-36 1088.75,0 1222.5,0 1222.5,-36"/>
<text xml:space="preserve" text-anchor="middle" x="1155.62" y="-12.95" font-family="Times,serif" font-size="14.00">ExpressionTransform</text>
</g>
<!-- n5248277016&#45;&gt;n5348152344 -->
<g id="edge46" class="edge">
<title>n5248277016&#45;&gt;n5348152344</title>
<path fill="none" stroke="black" d="M1053.2,-18C1060.97,-18 1068.95,-18 1076.84,-18"/>
<polygon fill="black" stroke="black" points="1076.81,-21.5 1086.81,-18 1076.81,-14.5 1076.81,-21.5"/>
</g>
<!-- n5351512856 -->
<g id="node34" class="node">
<title>n5351512856</title>
<polygon fill="none" stroke="black" points="1474.75,-414 1258.5,-414 1258.5,-378 1474.75,-378 1474.75,-414"/>
<text xml:space="preserve" text-anchor="middle" x="1366.62" y="-390.95" font-family="Times,serif" font-size="14.00">HybridGlobalAggregatingTransform</text>
</g>
<!-- n5348160536&#45;&gt;n5351512856 -->
<g id="edge47" class="edge">
<title>n5348160536&#45;&gt;n5351512856</title>
<path fill="none" stroke="black" d="M1222.75,-396C1230.56,-396 1238.71,-396 1246.97,-396"/>
<polygon fill="black" stroke="black" points="1246.78,-399.5 1256.78,-396 1246.78,-392.5 1246.78,-399.5"/>
</g>
<!-- n5351514392 -->
<g id="node35" class="node">
<title>n5351514392</title>
<polygon fill="none" stroke="black" points="1474.75,-360 1258.5,-360 1258.5,-324 1474.75,-324 1474.75,-360"/>
<text xml:space="preserve" text-anchor="middle" x="1366.62" y="-336.95" font-family="Times,serif" font-size="14.00">HybridGlobalAggregatingTransform</text>
</g>
<!-- n5348161048&#45;&gt;n5351514392 -->
<g id="edge48" class="edge">
<title>n5348161048&#45;&gt;n5351514392</title>
<path fill="none" stroke="black" d="M1222.75,-342C1230.56,-342 1238.71,-342 1246.97,-342"/>
<polygon fill="black" stroke="black" points="1246.78,-345.5 1256.78,-342 1246.78,-338.5 1246.78,-345.5"/>
</g>
<!-- n5351515160 -->
<g id="node36" class="node">
<title>n5351515160</title>
<polygon fill="none" stroke="black" points="1474.75,-306 1258.5,-306 1258.5,-270 1474.75,-270 1474.75,-306"/>
<text xml:space="preserve" text-anchor="middle" x="1366.62" y="-282.95" font-family="Times,serif" font-size="14.00">HybridGlobalAggregatingTransform</text>
</g>
<!-- n5348161560&#45;&gt;n5351515160 -->
<g id="edge49" class="edge">
<title>n5348161560&#45;&gt;n5351515160</title>
<path fill="none" stroke="black" d="M1222.75,-288C1230.56,-288 1238.71,-288 1246.97,-288"/>
<polygon fill="black" stroke="black" points="1246.78,-291.5 1256.78,-288 1246.78,-284.5 1246.78,-291.5"/>
</g>
<!-- n5351509784 -->
<g id="node37" class="node">
<title>n5351509784</title>
<polygon fill="none" stroke="black" points="1474.75,-252 1258.5,-252 1258.5,-216 1474.75,-216 1474.75,-252"/>
<text xml:space="preserve" text-anchor="middle" x="1366.62" y="-228.95" font-family="Times,serif" font-size="14.00">HybridGlobalAggregatingTransform</text>
</g>
<!-- n5348162072&#45;&gt;n5351509784 -->
<g id="edge50" class="edge">
<title>n5348162072&#45;&gt;n5351509784</title>
<path fill="none" stroke="black" d="M1222.75,-234C1230.56,-234 1238.71,-234 1246.97,-234"/>
<polygon fill="black" stroke="black" points="1246.78,-237.5 1256.78,-234 1246.78,-230.5 1246.78,-237.5"/>
</g>
<!-- n5351510552 -->
<g id="node38" class="node">
<title>n5351510552</title>
<polygon fill="none" stroke="black" points="1474.75,-198 1258.5,-198 1258.5,-162 1474.75,-162 1474.75,-198"/>
<text xml:space="preserve" text-anchor="middle" x="1366.62" y="-174.95" font-family="Times,serif" font-size="14.00">HybridGlobalAggregatingTransform</text>
</g>
<!-- n5348162584&#45;&gt;n5351510552 -->
<g id="edge51" class="edge">
<title>n5348162584&#45;&gt;n5351510552</title>
<path fill="none" stroke="black" d="M1222.75,-180C1230.56,-180 1238.71,-180 1246.97,-180"/>
<polygon fill="black" stroke="black" points="1246.78,-183.5 1256.78,-180 1246.78,-176.5 1246.78,-183.5"/>
</g>
<!-- n5351509016 -->
<g id="node39" class="node">
<title>n5351509016</title>
<polygon fill="none" stroke="black" points="1474.75,-144 1258.5,-144 1258.5,-108 1474.75,-108 1474.75,-144"/>
<text xml:space="preserve" text-anchor="middle" x="1366.62" y="-120.95" font-family="Times,serif" font-size="14.00">HybridGlobalAggregatingTransform</text>
</g>
<!-- n5348163096&#45;&gt;n5351509016 -->
<g id="edge52" class="edge">
<title>n5348163096&#45;&gt;n5351509016</title>
<path fill="none" stroke="black" d="M1222.75,-126C1230.56,-126 1238.71,-126 1246.97,-126"/>
<polygon fill="black" stroke="black" points="1246.78,-129.5 1256.78,-126 1246.78,-122.5 1246.78,-129.5"/>
</g>
<!-- n5351515928 -->
<g id="node40" class="node">
<title>n5351515928</title>
<polygon fill="none" stroke="black" points="1474.75,-90 1258.5,-90 1258.5,-54 1474.75,-54 1474.75,-90"/>
<text xml:space="preserve" text-anchor="middle" x="1366.62" y="-66.95" font-family="Times,serif" font-size="14.00">HybridGlobalAggregatingTransform</text>
</g>
<!-- n5352030232&#45;&gt;n5351515928 -->
<g id="edge53" class="edge">
<title>n5352030232&#45;&gt;n5351515928</title>
<path fill="none" stroke="black" d="M1222.75,-72C1230.56,-72 1238.71,-72 1246.97,-72"/>
<polygon fill="black" stroke="black" points="1246.78,-75.5 1256.78,-72 1246.78,-68.5 1246.78,-75.5"/>
</g>
<!-- n5351506712 -->
<g id="node41" class="node">
<title>n5351506712</title>
<polygon fill="none" stroke="black" points="1474.75,-36 1258.5,-36 1258.5,0 1474.75,0 1474.75,-36"/>
<text xml:space="preserve" text-anchor="middle" x="1366.62" y="-12.95" font-family="Times,serif" font-size="14.00">HybridGlobalAggregatingTransform</text>
</g>
<!-- n5348152344&#45;&gt;n5351506712 -->
<g id="edge54" class="edge">
<title>n5348152344&#45;&gt;n5351506712</title>
<path fill="none" stroke="black" d="M1222.75,-18C1230.56,-18 1238.71,-18 1246.97,-18"/>
<polygon fill="black" stroke="black" points="1246.78,-21.5 1256.78,-18 1246.78,-14.5 1246.78,-21.5"/>
</g>
<!-- n5352030744 -->
<g id="node42" class="node">
<title>n5352030744</title>
<polygon fill="none" stroke="black" points="1644.5,-414 1510.75,-414 1510.75,-378 1644.5,-378 1644.5,-414"/>
<text xml:space="preserve" text-anchor="middle" x="1577.62" y="-390.95" font-family="Times,serif" font-size="14.00">ExpressionTransform</text>
</g>
<!-- n5351512856&#45;&gt;n5352030744 -->
<g id="edge55" class="edge">
<title>n5351512856&#45;&gt;n5352030744</title>
<path fill="none" stroke="black" d="M1475.19,-396C1483.25,-396 1491.29,-396 1499.11,-396"/>
<polygon fill="black" stroke="black" points="1498.88,-399.5 1508.88,-396 1498.88,-392.5 1498.88,-399.5"/>
</g>
<!-- n5348147224 -->
<g id="node43" class="node">
<title>n5348147224</title>
<polygon fill="none" stroke="black" points="1644.5,-360 1510.75,-360 1510.75,-324 1644.5,-324 1644.5,-360"/>
<text xml:space="preserve" text-anchor="middle" x="1577.62" y="-336.95" font-family="Times,serif" font-size="14.00">ExpressionTransform</text>
</g>
<!-- n5351514392&#45;&gt;n5348147224 -->
<g id="edge56" class="edge">
<title>n5351514392&#45;&gt;n5348147224</title>
<path fill="none" stroke="black" d="M1475.19,-342C1483.25,-342 1491.29,-342 1499.11,-342"/>
<polygon fill="black" stroke="black" points="1498.88,-345.5 1508.88,-342 1498.88,-338.5 1498.88,-345.5"/>
</g>
<!-- n5348160024 -->
<g id="node44" class="node">
<title>n5348160024</title>
<polygon fill="none" stroke="black" points="1644.5,-306 1510.75,-306 1510.75,-270 1644.5,-270 1644.5,-306"/>
<text xml:space="preserve" text-anchor="middle" x="1577.62" y="-282.95" font-family="Times,serif" font-size="14.00">ExpressionTransform</text>
</g>
<!-- n5351515160&#45;&gt;n5348160024 -->
<g id="edge57" class="edge">
<title>n5351515160&#45;&gt;n5348160024</title>
<path fill="none" stroke="black" d="M1475.19,-288C1483.25,-288 1491.29,-288 1499.11,-288"/>
<polygon fill="black" stroke="black" points="1498.88,-291.5 1508.88,-288 1498.88,-284.5 1498.88,-291.5"/>
</g>
<!-- n5348159512 -->
<g id="node45" class="node">
<title>n5348159512</title>
<polygon fill="none" stroke="black" points="1644.5,-252 1510.75,-252 1510.75,-216 1644.5,-216 1644.5,-252"/>
<text xml:space="preserve" text-anchor="middle" x="1577.62" y="-228.95" font-family="Times,serif" font-size="14.00">ExpressionTransform</text>
</g>
<!-- n5351509784&#45;&gt;n5348159512 -->
<g id="edge58" class="edge">
<title>n5351509784&#45;&gt;n5348159512</title>
<path fill="none" stroke="black" d="M1475.19,-234C1483.25,-234 1491.29,-234 1499.11,-234"/>
<polygon fill="black" stroke="black" points="1498.88,-237.5 1508.88,-234 1498.88,-230.5 1498.88,-237.5"/>
</g>
<!-- n5348157464 -->
<g id="node46" class="node">
<title>n5348157464</title>
<polygon fill="none" stroke="black" points="1644.5,-198 1510.75,-198 1510.75,-162 1644.5,-162 1644.5,-198"/>
<text xml:space="preserve" text-anchor="middle" x="1577.62" y="-174.95" font-family="Times,serif" font-size="14.00">ExpressionTransform</text>
</g>
<!-- n5351510552&#45;&gt;n5348157464 -->
<g id="edge59" class="edge">
<title>n5351510552&#45;&gt;n5348157464</title>
<path fill="none" stroke="black" d="M1475.19,-180C1483.25,-180 1491.29,-180 1499.11,-180"/>
<polygon fill="black" stroke="black" points="1498.88,-183.5 1508.88,-180 1498.88,-176.5 1498.88,-183.5"/>
</g>
<!-- n5352045592 -->
<g id="node47" class="node">
<title>n5352045592</title>
<polygon fill="none" stroke="black" points="1644.5,-144 1510.75,-144 1510.75,-108 1644.5,-108 1644.5,-144"/>
<text xml:space="preserve" text-anchor="middle" x="1577.62" y="-120.95" font-family="Times,serif" font-size="14.00">ExpressionTransform</text>
</g>
<!-- n5351509016&#45;&gt;n5352045592 -->
<g id="edge60" class="edge">
<title>n5351509016&#45;&gt;n5352045592</title>
<path fill="none" stroke="black" d="M1475.19,-126C1483.25,-126 1491.29,-126 1499.11,-126"/>
<polygon fill="black" stroke="black" points="1498.88,-129.5 1508.88,-126 1498.88,-122.5 1498.88,-129.5"/>
</g>
<!-- n5248279064 -->
<g id="node48" class="node">
<title>n5248279064</title>
<polygon fill="none" stroke="black" points="1644.5,-90 1510.75,-90 1510.75,-54 1644.5,-54 1644.5,-90"/>
<text xml:space="preserve" text-anchor="middle" x="1577.62" y="-66.95" font-family="Times,serif" font-size="14.00">ExpressionTransform</text>
</g>
<!-- n5351515928&#45;&gt;n5248279064 -->
<g id="edge61" class="edge">
<title>n5351515928&#45;&gt;n5248279064</title>
<path fill="none" stroke="black" d="M1475.19,-72C1483.25,-72 1491.29,-72 1499.11,-72"/>
<polygon fill="black" stroke="black" points="1498.88,-75.5 1508.88,-72 1498.88,-68.5 1498.88,-75.5"/>
</g>
<!-- n5248279576 -->
<g id="node49" class="node">
<title>n5248279576</title>
<polygon fill="none" stroke="black" points="1644.5,-36 1510.75,-36 1510.75,0 1644.5,0 1644.5,-36"/>
<text xml:space="preserve" text-anchor="middle" x="1577.62" y="-12.95" font-family="Times,serif" font-size="14.00">ExpressionTransform</text>
</g>
<!-- n5351506712&#45;&gt;n5248279576 -->
<g id="edge62" class="edge">
<title>n5351506712&#45;&gt;n5248279576</title>
<path fill="none" stroke="black" d="M1475.19,-18C1483.25,-18 1491.29,-18 1499.11,-18"/>
<polygon fill="black" stroke="black" points="1498.88,-21.5 1508.88,-18 1498.88,-14.5 1498.88,-21.5"/>
</g>
</g>
</svg>
