<svg width="610" height="189" viewBox="0 0 610 189" fill="none" xmlns="http://www.w3.org/2000/svg">
<path d="M595.241 174.68C593.092 174.68 591.132 174.321 589.36 173.604C587.588 172.849 586.194 171.812 585.176 170.491C584.158 169.132 583.649 167.585 583.649 165.849C583.649 165.739 583.654 165.614 583.664 165.474C583.7 164.973 584.135 164.604 584.638 164.604H588.918C589.517 164.604 589.969 165.128 590.046 165.722C590.168 166.668 590.599 167.484 591.339 168.17C592.357 169.113 593.79 169.585 595.637 169.585C597.447 169.585 598.936 169.264 600.104 168.623C601.273 167.981 601.857 167.038 601.857 165.792C601.857 164.736 601.367 163.887 600.387 163.245C599.445 162.604 597.918 161.887 595.807 161.094C593.809 160.302 592.188 159.566 590.944 158.887C589.7 158.207 588.625 157.283 587.72 156.113C586.816 154.905 586.363 153.415 586.363 151.641C586.363 149.83 586.872 148.245 587.89 146.886C588.946 145.49 590.397 144.414 592.244 143.659C594.129 142.867 596.278 142.471 598.691 142.471C600.877 142.471 602.818 142.848 604.515 143.603C606.249 144.32 607.587 145.358 608.53 146.716C609.51 148.037 610 149.565 610 151.301C610 151.412 609.999 151.517 609.998 151.617C609.989 152.119 609.57 152.49 609.068 152.49H604.954C604.356 152.49 603.905 151.968 603.832 151.374C603.715 150.405 603.282 149.588 602.536 148.924C601.556 148.018 600.142 147.565 598.295 147.565C596.674 147.565 595.354 147.905 594.336 148.584C593.356 149.263 592.866 150.188 592.866 151.358C592.866 152.528 593.375 153.471 594.393 154.188C595.411 154.867 596.975 155.622 599.086 156.452C601.009 157.207 602.573 157.924 603.78 158.603C604.986 159.283 606.023 160.188 606.89 161.321C607.757 162.453 608.19 163.868 608.19 165.566C608.19 167.415 607.625 169.038 606.494 170.434C605.401 171.793 603.874 172.849 601.914 173.604C599.953 174.321 597.729 174.68 595.241 174.68Z" fill="#D53F8C"/>
<path d="M583.498 142.979C584.125 142.979 584.6 143.545 584.492 144.163L579.362 173.334C579.277 173.817 578.858 174.169 578.368 174.169H573.963C573.338 174.169 572.863 173.607 572.968 172.991L573.391 170.489C572.146 171.772 570.639 172.791 568.867 173.546C567.133 174.263 565.342 174.621 563.495 174.621C560.215 174.621 557.595 173.735 555.635 171.961C553.674 170.187 552.694 167.678 552.694 164.432C552.694 163.564 552.788 162.527 552.977 161.319L556.053 143.813C556.138 143.331 556.558 142.979 557.048 142.979H561.388C562.015 142.979 562.491 143.545 562.382 144.163L559.536 160.357C559.386 161.413 559.31 162.168 559.31 162.621C559.31 164.696 559.876 166.281 561.007 167.376C562.175 168.47 563.777 169.017 565.813 169.017C568.188 169.017 570.205 168.319 571.864 166.923C573.522 165.489 574.616 163.432 575.143 160.753L578.107 143.814C578.192 143.331 578.611 142.979 579.102 142.979H583.498Z" fill="#D53F8C"/>
<path d="M552.697 132.281C553.325 132.281 553.8 132.848 553.691 133.466L546.64 173.336C546.555 173.818 546.136 174.17 545.646 174.17H541.25C540.622 174.17 540.147 173.603 540.256 172.985L547.307 133.115C547.392 132.633 547.811 132.281 548.301 132.281H552.697Z" fill="#D53F8C"/>
<path d="M516.82 147.565C518.177 146.131 519.874 144.924 521.909 143.942C523.983 142.961 526.207 142.471 528.582 142.471C530.957 142.471 533.068 142.98 534.915 143.999C536.763 145.018 538.195 146.471 539.213 148.358C540.231 150.245 540.74 152.452 540.74 154.981C540.74 156.075 540.627 157.226 540.4 158.434C539.835 161.566 538.685 164.377 536.951 166.868C535.255 169.321 533.162 171.246 530.674 172.642C528.224 174 525.642 174.68 522.927 174.68C520.552 174.68 518.517 174.208 516.82 173.264C515.162 172.283 513.861 171.076 512.918 169.642L510.521 183.322C509.945 186.606 507.094 189.001 503.76 189.001C503.405 189.001 503.136 188.68 503.197 188.33L511.019 143.815C511.104 143.332 511.523 142.98 512.013 142.98H516.413C517.039 142.98 517.514 143.544 517.408 144.161L516.82 147.565ZM533.841 158.434C533.992 157.717 534.067 156.943 534.067 156.113C534.067 153.584 533.313 151.622 531.805 150.226C530.335 148.792 528.469 148.075 526.207 148.075C524.586 148.075 522.965 148.49 521.344 149.32C519.761 150.15 518.385 151.358 517.216 152.943C516.047 154.528 515.275 156.396 514.898 158.547C514.747 159.264 514.671 160.037 514.671 160.868C514.671 163.396 515.407 165.396 516.877 166.868C518.385 168.34 520.251 169.076 522.475 169.076C524.134 169.076 525.755 168.661 527.338 167.83C528.959 166.962 530.354 165.717 531.523 164.094C532.691 162.472 533.464 160.585 533.841 158.434Z" fill="#D53F8C"/>
<path d="M506.236 157.811C506.236 158.64 506.198 159.412 506.122 160.128C506.07 160.621 505.644 160.981 505.148 160.981H482.203C482.391 163.472 483.315 165.472 484.974 166.981C486.632 168.491 488.668 169.245 491.081 169.245C494.321 169.245 496.673 167.977 498.136 165.441C498.329 165.108 498.675 164.887 499.06 164.887H503.993C504.68 164.887 505.166 165.559 504.891 166.189C503.892 168.477 502.342 170.401 500.242 171.963C497.791 173.774 494.738 174.68 491.081 174.68C488.103 174.68 485.426 174.019 483.051 172.698C480.714 171.34 478.867 169.453 477.509 167.038C476.19 164.585 475.53 161.755 475.53 158.547C475.53 155.339 476.171 152.528 477.453 150.113C478.772 147.66 480.601 145.773 482.938 144.452C485.313 143.131 488.027 142.471 491.081 142.471C494.021 142.471 496.641 143.112 498.941 144.395C501.241 145.678 503.031 147.49 504.313 149.83C505.595 152.131 506.236 154.792 506.236 157.811ZM499.506 155.773C499.469 153.396 498.62 151.49 496.962 150.056C495.303 148.622 493.248 147.905 490.798 147.905C488.574 147.905 486.67 148.622 485.087 150.056C483.504 151.452 482.561 153.358 482.259 155.773H499.506Z" fill="#D53F8C"/>
<path d="M460.598 142.471C463.049 142.471 465.235 142.98 467.158 143.999C469.118 145.018 470.645 146.527 471.738 148.528C472.869 150.528 473.434 152.943 473.434 155.773V173.161C473.434 173.718 472.982 174.17 472.425 174.17H468.054C467.496 174.17 467.045 173.718 467.045 173.161V156.735C467.045 153.943 466.347 151.811 464.952 150.339C463.557 148.829 461.654 148.075 459.241 148.075C456.828 148.075 454.906 148.829 453.473 150.339C452.078 151.811 451.381 153.943 451.381 156.735V173.161C451.381 173.718 450.929 174.17 450.372 174.17H446C445.443 174.17 444.991 173.718 444.991 173.161V156.735C444.991 153.943 444.294 151.811 442.899 150.339C441.504 148.829 439.6 148.075 437.188 148.075C434.775 148.075 432.852 148.829 431.42 150.339C430.025 151.811 429.327 153.943 429.327 156.735V173.161C429.327 173.718 428.876 174.17 428.318 174.17H423.89C423.333 174.17 422.881 173.718 422.881 173.161V143.99C422.881 143.432 423.333 142.98 423.89 142.98H428.318C428.876 142.98 429.327 143.432 429.327 143.99V146.546C430.383 145.263 431.721 144.263 433.342 143.546C434.963 142.829 436.697 142.471 438.545 142.471C441.033 142.471 443.257 142.999 445.217 144.056C447.178 145.112 448.685 146.641 449.741 148.641C450.683 146.754 452.154 145.263 454.152 144.169C456.15 143.037 458.299 142.471 460.598 142.471Z" fill="#D53F8C"/>
<path d="M418.557 142.979C419.115 142.979 419.567 143.43 419.567 143.988V173.159C419.567 173.717 419.115 174.169 418.557 174.169H414.129C413.572 174.169 413.12 173.717 413.12 173.159V143.988C413.12 143.43 413.572 142.979 414.129 142.979H418.557Z" fill="#D53F8C"/>
<path d="M418.557 142.979C419.115 142.979 419.567 143.43 419.567 143.988V173.159C419.567 173.717 419.115 174.169 418.557 174.169H414.129C413.572 174.169 413.12 173.717 413.12 173.159V143.988C413.12 143.43 413.572 142.979 414.129 142.979H418.557Z" fill="#D53F8C"/>
<path d="M418.557 132.725C419.115 132.725 419.567 133.177 419.567 133.734V138.164C419.567 138.722 419.115 139.174 418.557 139.174H414.129C413.572 139.174 413.12 138.722 413.12 138.164V133.734C413.12 133.177 413.572 132.725 414.129 132.725H418.557Z" fill="#D53F8C"/>
<path d="M418.557 132.725C419.115 132.725 419.567 133.177 419.567 133.734V138.164C419.567 138.722 419.115 139.174 418.557 139.174H414.129C413.572 139.174 413.12 138.722 413.12 138.164V133.734C413.12 133.177 413.572 132.725 414.129 132.725H418.557Z" fill="#D53F8C"/>
<path d="M402.369 148.243V165.508C402.369 166.677 402.633 167.527 403.161 168.055C403.726 168.545 404.669 168.791 405.988 168.791H408.937C409.494 168.791 409.946 169.243 409.946 169.8V173.159C409.946 173.716 409.494 174.168 408.937 174.168H404.857C401.954 174.168 399.73 173.489 398.184 172.131C396.639 170.772 395.866 168.564 395.866 165.508V148.243H393.2C392.642 148.243 392.19 147.791 392.19 147.233V143.988C392.19 143.43 392.642 142.978 393.2 142.978H395.866V133.734C395.866 133.177 396.318 132.725 396.875 132.725H401.36C401.917 132.725 402.369 133.177 402.369 133.734V142.978H408.937C409.494 142.978 409.946 143.43 409.946 143.988V147.233C409.946 147.791 409.494 148.243 408.937 148.243H402.369Z" fill="#D53F8C"/>
<path d="M34.4134 27.9341C38.0323 27.056 41.7351 26.6336 45.4361 26.668C45.7094 26.6705 45.7741 27.0475 45.5206 27.1498C41.0882 28.9391 36.9349 31.3855 33.2049 34.4181C30.7905 36.3811 28.5794 38.568 26.5994 40.9448C26.5815 40.9664 26.5601 40.9847 26.5361 40.9992C22.4894 43.4406 18.9393 46.6721 16.113 50.5312C11.6093 56.681 9.17642 64.1056 9.16584 71.7309C9.1782 79.3612 11.6165 86.7897 16.1277 92.9403C18.9478 96.7852 22.4868 100.005 26.5195 102.441C26.5435 102.455 26.5649 102.474 26.5828 102.495C28.5672 104.88 30.7834 107.075 33.2049 109.044C36.9351 112.076 41.0888 114.523 45.5216 116.312C45.775 116.414 45.7104 116.791 45.4371 116.794C41.7357 116.828 38.0327 116.407 34.4134 115.529C27.9067 113.95 21.8337 110.937 16.6366 106.712C11.4396 102.487 7.2499 97.154 4.3719 91.1026C1.49388 85.0512 0 78.4331 0 71.7309C3.03359e-05 65.0287 1.49391 58.4105 4.3719 52.3591C7.24991 46.3078 11.4397 40.9749 16.6366 36.7496C21.8336 32.5243 27.9068 29.5129 34.4134 27.9341Z" fill="#EA9FC5"/>
<path d="M81.9506 26.666C73.0468 26.666 64.343 29.309 56.9398 34.2609C49.5366 39.2127 43.7665 46.2509 40.3591 54.4855C36.9518 62.7201 36.0603 71.7812 37.7973 80.523C39.5344 89.2648 43.8219 97.2946 50.1179 103.597C56.4138 109.9 64.4353 114.192 73.168 115.93C81.9007 117.669 90.9524 116.777 99.1784 113.366C107.404 109.955 114.435 104.179 119.382 96.7681C124.329 89.3571 126.969 80.6443 126.969 71.7312C126.955 59.7834 122.208 48.329 113.768 39.8806C105.328 31.4323 93.886 26.6799 81.9506 26.666ZM117.782 71.7312C117.782 78.8266 115.681 85.7629 111.744 91.663C107.807 97.563 102.21 102.162 95.6618 104.877C89.1135 107.593 81.9077 108.304 74.9558 106.92C68.004 105.536 61.6182 102.119 56.6062 97.102C51.5942 92.0848 48.1811 85.6924 46.7985 78.7333C45.416 71.7741 46.126 64.5609 48.8389 58.0058C51.5518 51.4506 56.1457 45.8481 62.0396 41.9067C67.9335 37.9653 74.8626 35.862 81.9506 35.863C91.4501 35.8743 100.557 39.6569 107.274 46.3811C113.991 53.1052 117.77 62.2218 117.782 71.7312Z" fill="#D53F8C"/>
<path d="M52.874 27.9345C57.3454 26.8496 61.9444 26.4598 66.5104 26.7682C66.7821 26.7866 66.8261 27.1648 66.5689 27.2539C62.7956 28.5614 59.1839 30.3512 55.8284 32.5956C52.8371 34.5963 50.1023 36.9244 47.6657 39.5236C47.6451 39.5455 47.6208 39.5636 47.5938 39.577C42.4644 42.1163 37.9911 45.8599 34.5766 50.5229C30.0718 56.6746 27.6431 64.1038 27.6431 71.7313C27.6431 79.3588 30.0718 86.7879 34.5766 92.9397C37.9904 97.6017 42.4628 101.344 47.5909 103.884C47.6178 103.897 47.6422 103.915 47.6628 103.937C48.0036 104.301 48.3494 104.66 48.7024 105.014C53.753 110.07 59.8676 113.886 66.5649 116.208C66.8221 116.297 66.778 116.675 66.5064 116.693C61.9417 117.001 57.3441 116.613 52.874 115.528C46.3673 113.949 40.2943 110.938 35.0973 106.713C29.9002 102.487 25.7096 97.1545 22.8316 91.1031C19.9535 85.0516 18.4606 78.4335 18.4606 71.7313C18.4606 65.029 19.9535 58.4109 22.8316 52.3595C25.7096 46.3081 29.9002 40.9754 35.0973 36.75C40.2943 32.5247 46.3674 29.5133 52.874 27.9345Z" fill="#DF6FA9"/>
<path d="M75.1277 38.5618C75.2833 38.5297 75.4448 38.5749 75.5615 38.6827C79.9012 42.6924 83.4139 47.5227 85.8914 52.9017C88.6107 58.8058 90.0186 65.2302 90.019 71.7317C90.0162 78.2307 88.6067 84.6523 85.8875 90.5538C83.3717 96.0136 79.7892 100.907 75.358 104.952C75.3548 104.955 75.3503 104.956 75.3461 104.956C71.9428 104.278 68.6837 103.083 65.674 101.431C65.5121 101.342 65.5017 101.114 65.6528 101.008C69.9742 97.9609 73.5778 93.988 76.1921 89.3646C79.2359 83.9814 80.8365 77.9007 80.8366 71.715C80.8366 65.5292 79.236 59.4487 76.1921 54.0655C73.5845 49.4538 69.9934 45.4882 65.6867 42.4444C65.5358 42.3378 65.5464 42.1098 65.7085 42.0211C68.665 40.4022 71.8407 39.2388 75.1277 38.5618Z" fill="#EA9FC5"/>
<path d="M92.7518 105.94C92.7517 105.94 92.7515 105.94 92.7513 105.94C92.3074 106.081 91.861 106.211 91.4132 106.333C91.8611 106.211 92.3069 106.078 92.7505 105.938C92.7518 105.938 92.7528 105.939 92.7518 105.94Z" fill="#DF6FA9"/>
<path d="M81.9484 37.8652C87.036 37.8714 92.0039 39.025 96.509 41.1794C96.5658 41.2066 96.6169 41.2444 96.6595 41.2908C99.8142 44.7248 102.425 48.6367 104.386 52.8928C107.108 58.7989 108.517 65.2263 108.518 71.7306C108.518 78.2351 107.109 84.6623 104.387 90.5684C102.417 94.8435 99.7916 98.7708 96.6177 102.215C96.575 102.262 96.5237 102.3 96.4668 102.327C95.95 102.573 95.4265 102.807 94.896 103.027C89.353 105.326 83.3111 106.101 77.3903 105.296C77.1381 105.261 77.0991 104.915 77.3338 104.817C83.0635 102.418 88.1003 98.5578 91.9182 93.5835C96.7285 87.3163 99.3363 79.6341 99.3363 71.7306C99.3363 63.827 96.7287 56.1441 91.9182 49.8768C88.1042 44.9076 83.0737 41.0504 77.3512 38.6504C77.1165 38.552 77.1557 38.2063 77.4079 38.1721C78.9071 37.9687 80.4238 37.8651 81.9484 37.8652Z" fill="#DF6FA9"/>
<path d="M574.594 27.6523C581.383 27.6523 587.441 29.0638 592.767 31.8866C598.198 34.7095 602.428 38.8915 605.457 44.4327C608.486 49.9739 610 56.6651 610 64.5064V114.863C610 115.201 609.726 115.475 609.388 115.475H592.909C592.571 115.475 592.297 115.201 592.297 114.863V67.1724C592.297 59.4357 590.365 53.5286 586.501 49.4511C582.636 45.2691 577.362 43.1781 570.678 43.1781C563.993 43.1781 558.667 45.2691 554.698 49.4511C550.834 53.5286 548.902 59.4357 548.902 67.1724V114.863C548.902 115.201 548.628 115.475 548.29 115.475H531.654C531.316 115.475 531.042 115.201 531.042 114.863V29.6755C531.042 29.3377 531.316 29.0638 531.654 29.0638H548.29C548.628 29.0638 548.902 29.3376 548.902 29.6755V37.2374C548.902 37.8114 549.634 38.0798 550.024 37.659C552.756 34.7148 556.09 32.3724 560.025 30.632C564.62 28.6456 569.477 27.6523 574.594 27.6523Z" fill="#D53F8C"/>
<path d="M476.415 116.886C468.268 116.886 460.905 115.057 454.325 111.397C447.745 107.633 442.575 102.406 438.816 95.7147C435.056 88.9189 433.176 81.0777 433.176 72.1909C433.176 63.4086 435.108 55.6196 438.972 48.8238C442.837 42.028 448.111 36.8005 454.795 33.1412C461.479 29.482 468.947 27.6523 477.198 27.6523C485.449 27.6523 492.916 29.482 499.601 33.1412C506.285 36.8005 511.559 42.028 515.424 48.8238C519.288 55.6196 521.22 63.4086 521.22 72.1909C521.22 80.9731 519.236 88.7621 515.267 95.5579C511.298 102.354 505.867 107.633 498.974 111.397C492.185 115.057 484.665 116.886 476.415 116.886ZM476.415 101.36C481.01 101.36 485.292 100.263 489.261 98.0671C493.334 95.8716 496.624 92.5782 499.131 88.1871C501.637 83.796 502.891 78.4639 502.891 72.1909C502.891 65.9178 501.689 60.638 499.287 56.3515C496.885 51.9603 493.7 48.667 489.731 46.4714C485.762 44.2759 481.48 43.1781 476.885 43.1781C472.289 43.1781 468.007 44.2759 464.038 46.4714C460.174 48.667 457.093 51.9603 454.795 56.3515C452.497 60.638 451.349 65.9178 451.349 72.1909C451.349 81.4959 453.699 88.7098 458.398 93.8328C463.203 98.8512 469.208 101.36 476.415 101.36Z" fill="#D53F8C"/>
<path d="M333.888 116.886C325.742 116.886 318.379 115.057 311.799 111.397C305.219 107.633 300.049 102.406 296.289 95.7147C292.529 88.9189 290.649 81.0777 290.649 72.1909C290.649 63.4086 292.581 55.6196 296.446 48.8238C300.31 42.028 305.584 36.8005 312.269 33.1412C318.953 29.482 326.421 27.6523 334.671 27.6523C342.922 27.6523 350.39 29.482 357.074 33.1412C363.758 36.8005 369.033 42.028 372.897 48.8238C376.761 55.6196 378.694 63.4086 378.694 72.1909C378.694 80.9731 376.709 88.7621 372.74 95.5579C368.772 102.354 363.341 107.633 356.448 111.397C349.659 115.057 342.139 116.886 333.888 116.886ZM333.888 101.36C338.484 101.36 342.766 100.263 346.734 98.0671C350.808 95.8716 354.098 92.5782 356.604 88.1871C359.111 83.796 360.364 78.4639 360.364 72.1909C360.364 65.9178 359.163 60.638 356.761 56.3515C354.359 51.9603 351.173 48.667 347.204 46.4714C343.236 44.2759 338.954 43.1781 334.358 43.1781C329.763 43.1781 325.481 44.2759 321.512 46.4714C317.647 48.667 314.566 51.9603 312.269 56.3515C309.971 60.638 308.822 65.9178 308.822 72.1909C308.822 81.4959 311.172 88.7098 315.872 93.8328C320.676 98.8512 326.682 101.36 333.888 101.36Z" fill="#D53F8C"/>
<path d="M262.013 39.3842C262.013 40.0059 262.863 40.2489 263.218 39.7388C265.655 36.2418 268.7 33.4676 272.353 31.4162C276.589 28.9933 281.555 27.7402 287.251 27.6568C287.589 27.6519 287.863 27.9262 287.863 28.2641V45.5461C287.863 45.8839 287.589 46.1578 287.251 46.1578H283.319C276.322 46.1578 270.995 47.9351 267.34 51.4899C263.789 55.0446 262.013 61.2131 262.013 69.9953V114.863C262.013 115.201 261.739 115.475 261.402 115.475H244.766C244.428 115.475 244.154 115.201 244.154 114.863V29.6755C244.154 29.3377 244.428 29.0638 244.766 29.0638H261.402C261.739 29.0638 262.013 29.3377 262.013 29.6755V39.3842Z" fill="#D53F8C"/>
<path d="M163.671 39.9553C163.671 40.5407 164.429 40.8036 164.811 40.36C167.708 36.9979 171.453 34.1211 176.047 31.7298C181.269 29.0115 187.17 27.6523 193.75 27.6523C201.27 27.6523 208.111 29.5343 214.273 33.2981C220.539 36.9573 225.448 42.1326 228.999 48.8238C232.55 55.5151 234.326 63.1995 234.326 71.8772C234.326 80.5549 232.55 88.3439 228.999 95.2443C225.448 102.04 220.539 107.372 214.273 111.24C208.111 115.004 201.27 116.886 193.75 116.886C187.17 116.886 181.321 115.579 176.204 112.966C171.657 110.55 167.852 107.64 164.789 104.234C164.404 103.806 163.671 104.072 163.671 104.648V155.951C163.671 156.289 163.397 156.563 163.059 156.563H146.423C146.085 156.563 145.811 156.289 145.811 155.951V29.6755C145.811 29.3377 146.085 29.0638 146.423 29.0638H163.059C163.397 29.0638 163.671 29.3377 163.671 29.6755V39.9553ZM216.153 71.8772C216.153 65.9178 214.899 60.7949 212.393 56.5083C209.991 52.1172 206.753 48.8238 202.68 46.6283C198.711 44.3281 194.429 43.1781 189.833 43.1781C185.342 43.1781 181.06 44.3281 176.987 46.6283C173.018 48.9284 169.781 52.274 167.274 56.6651C164.872 61.0562 163.671 66.2315 163.671 72.1909C163.671 78.1502 164.872 83.3778 167.274 87.8734C169.781 92.2646 173.018 95.6102 176.987 97.9103C181.06 100.21 185.342 101.36 189.833 101.36C194.429 101.36 198.711 100.21 202.68 97.9103C206.753 95.5056 209.991 92.0555 212.393 87.5598C214.899 83.0641 216.153 77.8366 216.153 71.8772Z" fill="#D53F8C"/>
<path d="M409.799 43.4959C409.462 43.4959 409.188 43.7698 409.188 44.1076V91.3278C409.188 94.5688 409.919 96.9212 411.381 98.3849C412.948 99.7441 415.559 100.424 419.214 100.424H429.569C429.907 100.424 430.181 100.698 430.181 101.035V114.71C430.181 115.048 429.907 115.322 429.569 115.322H416.081C408.039 115.322 401.877 113.44 397.595 109.676C393.313 105.913 391.172 99.7964 391.172 91.3278V44.1076C391.172 43.7698 390.898 43.4959 390.56 43.4959H381.6C381.262 43.4959 380.989 43.222 380.989 42.8842V29.5228C380.989 29.185 381.262 28.9111 381.6 28.9111H390.56C390.898 28.9111 391.172 28.6372 391.172 28.2994V0.611713C391.172 0.273872 391.445 0 391.783 0H408.576C408.914 0 409.188 0.273874 409.188 0.611714V28.2994C409.188 28.6372 409.462 28.9111 409.799 28.9111H429.569C429.907 28.9111 430.181 29.185 430.181 29.5228V42.8842C430.181 43.222 429.907 43.4959 429.569 43.4959H409.799Z" fill="#D53F8C"/>
</svg>
