<?xml version="1.0" encoding="UTF-8" standalone="no"?>
<!DOCTYPE svg PUBLIC "-//W3C//DTD SVG 1.1//EN"
 "http://www.w3.org/Graphics/SVG/1.1/DTD/svg11.dtd">
<!-- Generated by graphviz version 13.0.1 (20250615.1724)
 -->
<!-- Pages: 1 -->
<svg width="1074pt" height="152pt"
 viewBox="0.00 0.00 1074.00 152.00" xmlns="http://www.w3.org/2000/svg" xmlns:xlink="http://www.w3.org/1999/xlink">
<g id="graph0" class="graph" transform="scale(1 1) rotate(0) translate(4 148)">
<polygon fill="white" stroke="none" points="-4,4 -4,-148 1070.25,-148 1070.25,4 -4,4"/>
<!-- n5352264728 -->
<g id="node1" class="node">
<title>n5352264728</title>
<polygon fill="none" stroke="black" points="341.5,-36 0,-36 0,0 341.5,0 341.5,-36"/>
<text xml:space="preserve" text-anchor="middle" x="170.75" y="-12.95" font-family="Times,serif" font-size="14.00">StreamingStoreSource:stream=default.device_utils,shard=0</text>
</g>
<!-- n5352032280 -->
<g id="node4" class="node">
<title>n5352032280</title>
<polygon fill="none" stroke="black" points="512.75,-36 377.5,-36 377.5,0 512.75,0 512.75,-36"/>
<text xml:space="preserve" text-anchor="middle" x="445.12" y="-12.95" font-family="Times,serif" font-size="14.00">WatermarkTransform</text>
</g>
<!-- n5352264728&#45;&gt;n5352032280 -->
<g id="edge1" class="edge">
<title>n5352264728&#45;&gt;n5352032280</title>
<path fill="none" stroke="black" d="M341.93,-18C350.07,-18 358.04,-18 365.7,-18"/>
<polygon fill="black" stroke="black" points="365.58,-21.5 375.58,-18 365.58,-14.5 365.58,-21.5"/>
</g>
<!-- n5352261656 -->
<g id="node2" class="node">
<title>n5352261656</title>
<polygon fill="none" stroke="black" points="341.5,-90 0,-90 0,-54 341.5,-54 341.5,-90"/>
<text xml:space="preserve" text-anchor="middle" x="170.75" y="-66.95" font-family="Times,serif" font-size="14.00">StreamingStoreSource:stream=default.device_utils,shard=1</text>
</g>
<!-- n5352032792 -->
<g id="node5" class="node">
<title>n5352032792</title>
<polygon fill="none" stroke="black" points="512.75,-90 377.5,-90 377.5,-54 512.75,-54 512.75,-90"/>
<text xml:space="preserve" text-anchor="middle" x="445.12" y="-66.95" font-family="Times,serif" font-size="14.00">WatermarkTransform</text>
</g>
<!-- n5352261656&#45;&gt;n5352032792 -->
<g id="edge2" class="edge">
<title>n5352261656&#45;&gt;n5352032792</title>
<path fill="none" stroke="black" d="M341.93,-72C350.07,-72 358.04,-72 365.7,-72"/>
<polygon fill="black" stroke="black" points="365.58,-75.5 375.58,-72 365.58,-68.5 365.58,-75.5"/>
</g>
<!-- n5352262680 -->
<g id="node3" class="node">
<title>n5352262680</title>
<polygon fill="none" stroke="black" points="341.5,-144 0,-144 0,-108 341.5,-108 341.5,-144"/>
<text xml:space="preserve" text-anchor="middle" x="170.75" y="-120.95" font-family="Times,serif" font-size="14.00">StreamingStoreSource:stream=default.device_utils,shard=2</text>
</g>
<!-- n5352033304 -->
<g id="node6" class="node">
<title>n5352033304</title>
<polygon fill="none" stroke="black" points="512.75,-144 377.5,-144 377.5,-108 512.75,-108 512.75,-144"/>
<text xml:space="preserve" text-anchor="middle" x="445.12" y="-120.95" font-family="Times,serif" font-size="14.00">WatermarkTransform</text>
</g>
<!-- n5352262680&#45;&gt;n5352033304 -->
<g id="edge3" class="edge">
<title>n5352262680&#45;&gt;n5352033304</title>
<path fill="none" stroke="black" d="M341.93,-126C350.07,-126 358.04,-126 365.7,-126"/>
<polygon fill="black" stroke="black" points="365.58,-129.5 375.58,-126 365.58,-122.5 365.58,-129.5"/>
</g>
<!-- n5352033816 -->
<g id="node7" class="node">
<title>n5352033816</title>
<polygon fill="none" stroke="black" points="682.5,-36 548.75,-36 548.75,0 682.5,0 682.5,-36"/>
<text xml:space="preserve" text-anchor="middle" x="615.62" y="-12.95" font-family="Times,serif" font-size="14.00">ExpressionTransform</text>
</g>
<!-- n5352032280&#45;&gt;n5352033816 -->
<g id="edge4" class="edge">
<title>n5352032280&#45;&gt;n5352033816</title>
<path fill="none" stroke="black" d="M513.2,-18C520.97,-18 528.95,-18 536.84,-18"/>
<polygon fill="black" stroke="black" points="536.81,-21.5 546.81,-18 536.81,-14.5 536.81,-21.5"/>
</g>
<!-- n5352034328 -->
<g id="node8" class="node">
<title>n5352034328</title>
<polygon fill="none" stroke="black" points="682.5,-90 548.75,-90 548.75,-54 682.5,-54 682.5,-90"/>
<text xml:space="preserve" text-anchor="middle" x="615.62" y="-66.95" font-family="Times,serif" font-size="14.00">ExpressionTransform</text>
</g>
<!-- n5352032792&#45;&gt;n5352034328 -->
<g id="edge5" class="edge">
<title>n5352032792&#45;&gt;n5352034328</title>
<path fill="none" stroke="black" d="M513.2,-72C520.97,-72 528.95,-72 536.84,-72"/>
<polygon fill="black" stroke="black" points="536.81,-75.5 546.81,-72 536.81,-68.5 536.81,-75.5"/>
</g>
<!-- n5352034840 -->
<g id="node9" class="node">
<title>n5352034840</title>
<polygon fill="none" stroke="black" points="682.5,-144 548.75,-144 548.75,-108 682.5,-108 682.5,-144"/>
<text xml:space="preserve" text-anchor="middle" x="615.62" y="-120.95" font-family="Times,serif" font-size="14.00">ExpressionTransform</text>
</g>
<!-- n5352033304&#45;&gt;n5352034840 -->
<g id="edge6" class="edge">
<title>n5352033304&#45;&gt;n5352034840</title>
<path fill="none" stroke="black" d="M513.2,-126C520.97,-126 528.95,-126 536.84,-126"/>
<polygon fill="black" stroke="black" points="536.81,-129.5 546.81,-126 536.81,-122.5 536.81,-129.5"/>
</g>
<!-- n5351512856 -->
<g id="node10" class="node">
<title>n5351512856</title>
<polygon fill="none" stroke="black" points="896.5,-36 718.5,-36 718.5,0 896.5,0 896.5,-36"/>
<text xml:space="preserve" text-anchor="middle" x="807.5" y="-12.95" font-family="Times,serif" font-size="14.00">GlobalAggregatingTransform</text>
</g>
<!-- n5352033816&#45;&gt;n5351512856 -->
<g id="edge7" class="edge">
<title>n5352033816&#45;&gt;n5351512856</title>
<path fill="none" stroke="black" d="M682.77,-18C690.55,-18 698.62,-18 706.74,-18"/>
<polygon fill="black" stroke="black" points="706.7,-21.5 716.7,-18 706.7,-14.5 706.7,-21.5"/>
</g>
<!-- n5351509016 -->
<g id="node11" class="node">
<title>n5351509016</title>
<polygon fill="none" stroke="black" points="896.5,-90 718.5,-90 718.5,-54 896.5,-54 896.5,-90"/>
<text xml:space="preserve" text-anchor="middle" x="807.5" y="-66.95" font-family="Times,serif" font-size="14.00">GlobalAggregatingTransform</text>
</g>
<!-- n5352034328&#45;&gt;n5351509016 -->
<g id="edge8" class="edge">
<title>n5352034328&#45;&gt;n5351509016</title>
<path fill="none" stroke="black" d="M682.77,-72C690.55,-72 698.62,-72 706.74,-72"/>
<polygon fill="black" stroke="black" points="706.7,-75.5 716.7,-72 706.7,-68.5 706.7,-75.5"/>
</g>
<!-- n5351506712 -->
<g id="node12" class="node">
<title>n5351506712</title>
<polygon fill="none" stroke="black" points="896.5,-144 718.5,-144 718.5,-108 896.5,-108 896.5,-144"/>
<text xml:space="preserve" text-anchor="middle" x="807.5" y="-120.95" font-family="Times,serif" font-size="14.00">GlobalAggregatingTransform</text>
</g>
<!-- n5352034840&#45;&gt;n5351506712 -->
<g id="edge9" class="edge">
<title>n5352034840&#45;&gt;n5351506712</title>
<path fill="none" stroke="black" d="M682.77,-126C690.55,-126 698.62,-126 706.74,-126"/>
<polygon fill="black" stroke="black" points="706.7,-129.5 716.7,-126 706.7,-122.5 706.7,-129.5"/>
</g>
<!-- n5348159000 -->
<g id="node13" class="node">
<title>n5348159000</title>
<polygon fill="none" stroke="black" points="1066.25,-36 932.5,-36 932.5,0 1066.25,0 1066.25,-36"/>
<text xml:space="preserve" text-anchor="middle" x="999.38" y="-12.95" font-family="Times,serif" font-size="14.00">ExpressionTransform</text>
</g>
<!-- n5351512856&#45;&gt;n5348159000 -->
<g id="edge10" class="edge">
<title>n5351512856&#45;&gt;n5348159000</title>
<path fill="none" stroke="black" d="M896.77,-18C904.77,-18 912.84,-18 920.74,-18"/>
<polygon fill="black" stroke="black" points="920.66,-21.5 930.66,-18 920.66,-14.5 920.66,-21.5"/>
</g>
<!-- n5348159512 -->
<g id="node14" class="node">
<title>n5348159512</title>
<polygon fill="none" stroke="black" points="1066.25,-90 932.5,-90 932.5,-54 1066.25,-54 1066.25,-90"/>
<text xml:space="preserve" text-anchor="middle" x="999.38" y="-66.95" font-family="Times,serif" font-size="14.00">ExpressionTransform</text>
</g>
<!-- n5351509016&#45;&gt;n5348159512 -->
<g id="edge11" class="edge">
<title>n5351509016&#45;&gt;n5348159512</title>
<path fill="none" stroke="black" d="M896.77,-72C904.77,-72 912.84,-72 920.74,-72"/>
<polygon fill="black" stroke="black" points="920.66,-75.5 930.66,-72 920.66,-68.5 920.66,-75.5"/>
</g>
<!-- n5348160024 -->
<g id="node15" class="node">
<title>n5348160024</title>
<polygon fill="none" stroke="black" points="1066.25,-144 932.5,-144 932.5,-108 1066.25,-108 1066.25,-144"/>
<text xml:space="preserve" text-anchor="middle" x="999.38" y="-120.95" font-family="Times,serif" font-size="14.00">ExpressionTransform</text>
</g>
<!-- n5351506712&#45;&gt;n5348160024 -->
<g id="edge12" class="edge">
<title>n5351506712&#45;&gt;n5348160024</title>
<path fill="none" stroke="black" d="M896.77,-126C904.77,-126 912.84,-126 920.74,-126"/>
<polygon fill="black" stroke="black" points="920.66,-129.5 930.66,-126 920.66,-122.5 920.66,-129.5"/>
</g>
</g>
</svg>
