<?xml version="1.0" encoding="UTF-8" standalone="no"?>
<!DOCTYPE svg PUBLIC "-//W3C//DTD SVG 1.1//EN"
 "http://www.w3.org/Graphics/SVG/1.1/DTD/svg11.dtd">
<!-- Generated by graphviz version 13.0.1 (20250615.1724)
 -->
<!-- Pages: 1 -->
<svg width="1614pt" height="422pt"
 viewBox="0.00 0.00 1614.00 422.00" xmlns="http://www.w3.org/2000/svg" xmlns:xlink="http://www.w3.org/1999/xlink">
<g id="graph0" class="graph" transform="scale(1 1) rotate(0) translate(4 418)">
<polygon fill="white" stroke="none" points="-4,4 -4,-418 1610.25,-418 1610.25,4 -4,4"/>
<!-- n5352262680 -->
<g id="node1" class="node">
<title>n5352262680</title>
<polygon fill="none" stroke="black" points="341.5,-279 0,-279 0,-243 341.5,-243 341.5,-279"/>
<text xml:space="preserve" text-anchor="middle" x="170.75" y="-255.95" font-family="Times,serif" font-size="14.00">StreamingStoreSource:stream=default.device_utils,shard=0</text>
</g>
<!-- n5352045080 -->
<g id="node2" class="node">
<title>n5352045080</title>
<polygon fill="none" stroke="black" points="511.25,-279 377.5,-279 377.5,-243 511.25,-243 511.25,-279"/>
<text xml:space="preserve" text-anchor="middle" x="444.38" y="-255.95" font-family="Times,serif" font-size="14.00">ExpressionTransform</text>
</g>
<!-- n5352262680&#45;&gt;n5352045080 -->
<g id="edge1" class="edge">
<title>n5352262680&#45;&gt;n5352045080</title>
<path fill="none" stroke="black" d="M341.85,-261C350.01,-261 358,-261 365.68,-261"/>
<polygon fill="black" stroke="black" points="365.57,-264.5 375.57,-261 365.57,-257.5 365.57,-264.5"/>
</g>
<!-- n5352036376 -->
<g id="node7" class="node">
<title>n5352036376</title>
<polygon fill="none" stroke="black" points="701.25,-279 547.25,-279 547.25,-243 701.25,-243 701.25,-279"/>
<text xml:space="preserve" text-anchor="middle" x="624.25" y="-255.95" font-family="Times,serif" font-size="14.00">LightShufflingTransform</text>
</g>
<!-- n5352045080&#45;&gt;n5352036376 -->
<g id="edge2" class="edge">
<title>n5352045080&#45;&gt;n5352036376</title>
<path fill="none" stroke="black" d="M511.61,-261C519.4,-261 527.43,-261 535.46,-261"/>
<polygon fill="black" stroke="black" points="535.25,-264.5 545.25,-261 535.25,-257.5 535.25,-264.5"/>
</g>
<!-- n5352261656 -->
<g id="node3" class="node">
<title>n5352261656</title>
<polygon fill="none" stroke="black" points="341.5,-225 0,-225 0,-189 341.5,-189 341.5,-225"/>
<text xml:space="preserve" text-anchor="middle" x="170.75" y="-201.95" font-family="Times,serif" font-size="14.00">StreamingStoreSource:stream=default.device_utils,shard=1</text>
</g>
<!-- n5352045592 -->
<g id="node4" class="node">
<title>n5352045592</title>
<polygon fill="none" stroke="black" points="511.25,-225 377.5,-225 377.5,-189 511.25,-189 511.25,-225"/>
<text xml:space="preserve" text-anchor="middle" x="444.38" y="-201.95" font-family="Times,serif" font-size="14.00">ExpressionTransform</text>
</g>
<!-- n5352261656&#45;&gt;n5352045592 -->
<g id="edge3" class="edge">
<title>n5352261656&#45;&gt;n5352045592</title>
<path fill="none" stroke="black" d="M341.85,-207C350.01,-207 358,-207 365.68,-207"/>
<polygon fill="black" stroke="black" points="365.57,-210.5 375.57,-207 365.57,-203.5 365.57,-210.5"/>
</g>
<!-- n5348147736 -->
<g id="node8" class="node">
<title>n5348147736</title>
<polygon fill="none" stroke="black" points="701.25,-225 547.25,-225 547.25,-189 701.25,-189 701.25,-225"/>
<text xml:space="preserve" text-anchor="middle" x="624.25" y="-201.95" font-family="Times,serif" font-size="14.00">LightShufflingTransform</text>
</g>
<!-- n5352045592&#45;&gt;n5348147736 -->
<g id="edge4" class="edge">
<title>n5352045592&#45;&gt;n5348147736</title>
<path fill="none" stroke="black" d="M511.61,-207C519.4,-207 527.43,-207 535.46,-207"/>
<polygon fill="black" stroke="black" points="535.25,-210.5 545.25,-207 535.25,-203.5 535.25,-210.5"/>
</g>
<!-- n5352264728 -->
<g id="node5" class="node">
<title>n5352264728</title>
<polygon fill="none" stroke="black" points="341.5,-171 0,-171 0,-135 341.5,-135 341.5,-171"/>
<text xml:space="preserve" text-anchor="middle" x="170.75" y="-147.95" font-family="Times,serif" font-size="14.00">StreamingStoreSource:stream=default.device_utils,shard=2</text>
</g>
<!-- n5352046104 -->
<g id="node6" class="node">
<title>n5352046104</title>
<polygon fill="none" stroke="black" points="511.25,-171 377.5,-171 377.5,-135 511.25,-135 511.25,-171"/>
<text xml:space="preserve" text-anchor="middle" x="444.38" y="-147.95" font-family="Times,serif" font-size="14.00">ExpressionTransform</text>
</g>
<!-- n5352264728&#45;&gt;n5352046104 -->
<g id="edge5" class="edge">
<title>n5352264728&#45;&gt;n5352046104</title>
<path fill="none" stroke="black" d="M341.85,-153C350.01,-153 358,-153 365.68,-153"/>
<polygon fill="black" stroke="black" points="365.57,-156.5 375.57,-153 365.57,-149.5 365.57,-156.5"/>
</g>
<!-- n5352036888 -->
<g id="node9" class="node">
<title>n5352036888</title>
<polygon fill="none" stroke="black" points="701.25,-171 547.25,-171 547.25,-135 701.25,-135 701.25,-171"/>
<text xml:space="preserve" text-anchor="middle" x="624.25" y="-147.95" font-family="Times,serif" font-size="14.00">LightShufflingTransform</text>
</g>
<!-- n5352046104&#45;&gt;n5352036888 -->
<g id="edge6" class="edge">
<title>n5352046104&#45;&gt;n5352036888</title>
<path fill="none" stroke="black" d="M511.61,-153C519.4,-153 527.43,-153 535.46,-153"/>
<polygon fill="black" stroke="black" points="535.25,-156.5 545.25,-153 535.25,-149.5 535.25,-156.5"/>
</g>
<!-- n5231683544 -->
<g id="node10" class="node">
<title>n5231683544</title>
<polygon fill="none" stroke="black" points="881.5,-414 737.25,-414 737.25,-378 881.5,-378 881.5,-414"/>
<text xml:space="preserve" text-anchor="middle" x="809.38" y="-390.95" font-family="Times,serif" font-size="14.00">StreamingShrinkResize</text>
</g>
<!-- n5352036376&#45;&gt;n5231683544 -->
<g id="edge7" class="edge">
<title>n5352036376&#45;&gt;n5231683544</title>
<path fill="none" stroke="black" d="M640.14,-279.4C660.08,-302.98 697.55,-343.83 737.25,-369 739.09,-370.17 740.99,-371.3 742.93,-372.39"/>
<polygon fill="black" stroke="black" points="741.09,-375.37 751.58,-376.83 744.29,-369.15 741.09,-375.37"/>
</g>
<!-- n5231684440 -->
<g id="node11" class="node">
<title>n5231684440</title>
<polygon fill="none" stroke="black" points="881.5,-360 737.25,-360 737.25,-324 881.5,-324 881.5,-360"/>
<text xml:space="preserve" text-anchor="middle" x="809.38" y="-336.95" font-family="Times,serif" font-size="14.00">StreamingShrinkResize</text>
</g>
<!-- n5352036376&#45;&gt;n5231684440 -->
<g id="edge8" class="edge">
<title>n5352036376&#45;&gt;n5231684440</title>
<path fill="none" stroke="black" d="M661.45,-279.44C683.21,-290.27 711.57,-303.96 737.25,-315 740.59,-316.43 744.03,-317.87 747.51,-319.3"/>
<polygon fill="black" stroke="black" points="746.04,-322.48 756.63,-322.95 748.64,-315.98 746.04,-322.48"/>
</g>
<!-- n5231683992 -->
<g id="node12" class="node">
<title>n5231683992</title>
<polygon fill="none" stroke="black" points="881.5,-306 737.25,-306 737.25,-270 881.5,-270 881.5,-306"/>
<text xml:space="preserve" text-anchor="middle" x="809.38" y="-282.95" font-family="Times,serif" font-size="14.00">StreamingShrinkResize</text>
</g>
<!-- n5352036376&#45;&gt;n5231683992 -->
<g id="edge9" class="edge">
<title>n5352036376&#45;&gt;n5231683992</title>
<path fill="none" stroke="black" d="M701.59,-272.25C709.52,-273.43 717.62,-274.62 725.62,-275.8"/>
<polygon fill="black" stroke="black" points="724.95,-279.24 735.36,-277.23 725.97,-272.31 724.95,-279.24"/>
</g>
<!-- n5231653976 -->
<g id="node13" class="node">
<title>n5231653976</title>
<polygon fill="none" stroke="black" points="881.5,-252 737.25,-252 737.25,-216 881.5,-216 881.5,-252"/>
<text xml:space="preserve" text-anchor="middle" x="809.38" y="-228.95" font-family="Times,serif" font-size="14.00">StreamingShrinkResize</text>
</g>
<!-- n5352036376&#45;&gt;n5231653976 -->
<g id="edge10" class="edge">
<title>n5352036376&#45;&gt;n5231653976</title>
<path fill="none" stroke="black" d="M701.59,-249.75C709.52,-248.57 717.62,-247.38 725.62,-246.2"/>
<polygon fill="black" stroke="black" points="725.97,-249.69 735.36,-244.77 724.95,-242.76 725.97,-249.69"/>
</g>
<!-- n5231684888 -->
<g id="node14" class="node">
<title>n5231684888</title>
<polygon fill="none" stroke="black" points="881.5,-198 737.25,-198 737.25,-162 881.5,-162 881.5,-198"/>
<text xml:space="preserve" text-anchor="middle" x="809.38" y="-174.95" font-family="Times,serif" font-size="14.00">StreamingShrinkResize</text>
</g>
<!-- n5352036376&#45;&gt;n5231684888 -->
<g id="edge11" class="edge">
<title>n5352036376&#45;&gt;n5231684888</title>
<path fill="none" stroke="black" d="M682.91,-242.62C689.22,-239.99 695.45,-237.11 701.25,-234 718.87,-224.54 719.73,-216.64 737.25,-207 739.59,-205.71 742.01,-204.46 744.48,-203.24"/>
<polygon fill="black" stroke="black" points="745.84,-206.47 753.44,-199.09 742.89,-200.11 745.84,-206.47"/>
</g>
<!-- n5231681752 -->
<g id="node15" class="node">
<title>n5231681752</title>
<polygon fill="none" stroke="black" points="881.5,-144 737.25,-144 737.25,-108 881.5,-108 881.5,-144"/>
<text xml:space="preserve" text-anchor="middle" x="809.38" y="-120.95" font-family="Times,serif" font-size="14.00">StreamingShrinkResize</text>
</g>
<!-- n5352036376&#45;&gt;n5231681752 -->
<g id="edge12" class="edge">
<title>n5352036376&#45;&gt;n5231681752</title>
<path fill="none" stroke="black" d="M689.7,-242.6C693.85,-240.09 697.76,-237.23 701.25,-234 730.16,-207.23 708.63,-180.07 737.25,-153 738.01,-152.29 738.78,-151.59 739.58,-150.91"/>
<polygon fill="black" stroke="black" points="741.44,-153.88 747.5,-145.19 737.34,-148.21 741.44,-153.88"/>
</g>
<!-- n5231681304 -->
<g id="node16" class="node">
<title>n5231681304</title>
<polygon fill="none" stroke="black" points="881.5,-90 737.25,-90 737.25,-54 881.5,-54 881.5,-90"/>
<text xml:space="preserve" text-anchor="middle" x="809.38" y="-66.95" font-family="Times,serif" font-size="14.00">StreamingShrinkResize</text>
</g>
<!-- n5352036376&#45;&gt;n5231681304 -->
<g id="edge13" class="edge">
<title>n5352036376&#45;&gt;n5231681304</title>
<path fill="none" stroke="black" d="M691.01,-242.73C694.75,-240.19 698.21,-237.29 701.25,-234 743.35,-188.35 695.64,-145.09 737.25,-99 737.62,-98.6 737.99,-98.2 738.36,-97.8"/>
<polygon fill="black" stroke="black" points="740.59,-100.5 745.98,-91.38 736.08,-95.15 740.59,-100.5"/>
</g>
<!-- n5231682648 -->
<g id="node17" class="node">
<title>n5231682648</title>
<polygon fill="none" stroke="black" points="881.5,-36 737.25,-36 737.25,0 881.5,0 881.5,-36"/>
<text xml:space="preserve" text-anchor="middle" x="809.38" y="-12.95" font-family="Times,serif" font-size="14.00">StreamingShrinkResize</text>
</g>
<!-- n5352036376&#45;&gt;n5231682648 -->
<g id="edge14" class="edge">
<title>n5352036376&#45;&gt;n5231682648</title>
<path fill="none" stroke="black" d="M691.63,-242.73C695.17,-240.19 698.42,-237.3 701.25,-234 756.91,-169.09 682.29,-110.51 737.25,-45 737.5,-44.7 737.76,-44.4 738.03,-44.1"/>
<polygon fill="black" stroke="black" points="740.35,-46.72 745.42,-37.42 735.66,-41.52 740.35,-46.72"/>
</g>
<!-- n5348147736&#45;&gt;n5231683544 -->
<g id="edge15" class="edge">
<title>n5348147736&#45;&gt;n5231683544</title>
<path fill="none" stroke="black" d="M691.01,-225.27C694.75,-227.81 698.21,-230.71 701.25,-234 743.35,-279.65 695.64,-322.91 737.25,-369 737.62,-369.4 737.99,-369.8 738.36,-370.2"/>
<polygon fill="black" stroke="black" points="736.08,-372.85 745.98,-376.62 740.59,-367.5 736.08,-372.85"/>
</g>
<!-- n5348147736&#45;&gt;n5231684440 -->
<g id="edge16" class="edge">
<title>n5348147736&#45;&gt;n5231684440</title>
<path fill="none" stroke="black" d="M689.7,-225.4C693.85,-227.91 697.76,-230.77 701.25,-234 730.16,-260.77 708.63,-287.93 737.25,-315 738.01,-315.71 738.78,-316.41 739.58,-317.09"/>
<polygon fill="black" stroke="black" points="737.34,-319.79 747.5,-322.81 741.44,-314.12 737.34,-319.79"/>
</g>
<!-- n5348147736&#45;&gt;n5231683992 -->
<g id="edge17" class="edge">
<title>n5348147736&#45;&gt;n5231683992</title>
<path fill="none" stroke="black" d="M682.91,-225.38C689.22,-228.01 695.45,-230.89 701.25,-234 718.87,-243.46 719.73,-251.36 737.25,-261 739.59,-262.29 742.01,-263.54 744.48,-264.76"/>
<polygon fill="black" stroke="black" points="742.89,-267.89 753.44,-268.91 745.84,-261.53 742.89,-267.89"/>
</g>
<!-- n5348147736&#45;&gt;n5231653976 -->
<g id="edge18" class="edge">
<title>n5348147736&#45;&gt;n5231653976</title>
<path fill="none" stroke="black" d="M701.59,-218.25C709.52,-219.43 717.62,-220.62 725.62,-221.8"/>
<polygon fill="black" stroke="black" points="724.95,-225.24 735.36,-223.23 725.97,-218.31 724.95,-225.24"/>
</g>
<!-- n5348147736&#45;&gt;n5231684888 -->
<g id="edge19" class="edge">
<title>n5348147736&#45;&gt;n5231684888</title>
<path fill="none" stroke="black" d="M701.59,-195.75C709.52,-194.57 717.62,-193.38 725.62,-192.2"/>
<polygon fill="black" stroke="black" points="725.97,-195.69 735.36,-190.77 724.95,-188.76 725.97,-195.69"/>
</g>
<!-- n5348147736&#45;&gt;n5231681752 -->
<g id="edge20" class="edge">
<title>n5348147736&#45;&gt;n5231681752</title>
<path fill="none" stroke="black" d="M682.91,-188.62C689.22,-185.99 695.45,-183.11 701.25,-180 718.87,-170.54 719.73,-162.64 737.25,-153 739.59,-151.71 742.01,-150.46 744.48,-149.24"/>
<polygon fill="black" stroke="black" points="745.84,-152.47 753.44,-145.09 742.89,-146.11 745.84,-152.47"/>
</g>
<!-- n5348147736&#45;&gt;n5231681304 -->
<g id="edge21" class="edge">
<title>n5348147736&#45;&gt;n5231681304</title>
<path fill="none" stroke="black" d="M689.7,-188.6C693.85,-186.09 697.76,-183.23 701.25,-180 730.16,-153.23 708.63,-126.07 737.25,-99 738.01,-98.29 738.78,-97.59 739.58,-96.91"/>
<polygon fill="black" stroke="black" points="741.44,-99.88 747.5,-91.19 737.34,-94.21 741.44,-99.88"/>
</g>
<!-- n5348147736&#45;&gt;n5231682648 -->
<g id="edge22" class="edge">
<title>n5348147736&#45;&gt;n5231682648</title>
<path fill="none" stroke="black" d="M691.01,-188.73C694.75,-186.19 698.21,-183.29 701.25,-180 743.35,-134.35 695.64,-91.09 737.25,-45 737.62,-44.6 737.99,-44.2 738.36,-43.8"/>
<polygon fill="black" stroke="black" points="740.59,-46.5 745.98,-37.38 736.08,-41.15 740.59,-46.5"/>
</g>
<!-- n5352036888&#45;&gt;n5231683544 -->
<g id="edge23" class="edge">
<title>n5352036888&#45;&gt;n5231683544</title>
<path fill="none" stroke="black" d="M691.63,-171.27C695.17,-173.81 698.42,-176.7 701.25,-180 756.91,-244.91 682.29,-303.49 737.25,-369 737.5,-369.3 737.76,-369.6 738.03,-369.9"/>
<polygon fill="black" stroke="black" points="735.66,-372.48 745.42,-376.58 740.35,-367.28 735.66,-372.48"/>
</g>
<!-- n5352036888&#45;&gt;n5231684440 -->
<g id="edge24" class="edge">
<title>n5352036888&#45;&gt;n5231684440</title>
<path fill="none" stroke="black" d="M691.01,-171.27C694.75,-173.81 698.21,-176.71 701.25,-180 743.35,-225.65 695.64,-268.91 737.25,-315 737.62,-315.4 737.99,-315.8 738.36,-316.2"/>
<polygon fill="black" stroke="black" points="736.08,-318.85 745.98,-322.62 740.59,-313.5 736.08,-318.85"/>
</g>
<!-- n5352036888&#45;&gt;n5231683992 -->
<g id="edge25" class="edge">
<title>n5352036888&#45;&gt;n5231683992</title>
<path fill="none" stroke="black" d="M689.7,-171.4C693.85,-173.91 697.76,-176.77 701.25,-180 730.16,-206.77 708.63,-233.93 737.25,-261 738.01,-261.71 738.78,-262.41 739.58,-263.09"/>
<polygon fill="black" stroke="black" points="737.34,-265.79 747.5,-268.81 741.44,-260.12 737.34,-265.79"/>
</g>
<!-- n5352036888&#45;&gt;n5231653976 -->
<g id="edge26" class="edge">
<title>n5352036888&#45;&gt;n5231653976</title>
<path fill="none" stroke="black" d="M682.91,-171.38C689.22,-174.01 695.45,-176.89 701.25,-180 718.87,-189.46 719.73,-197.36 737.25,-207 739.59,-208.29 742.01,-209.54 744.48,-210.76"/>
<polygon fill="black" stroke="black" points="742.89,-213.89 753.44,-214.91 745.84,-207.53 742.89,-213.89"/>
</g>
<!-- n5352036888&#45;&gt;n5231684888 -->
<g id="edge27" class="edge">
<title>n5352036888&#45;&gt;n5231684888</title>
<path fill="none" stroke="black" d="M701.59,-164.25C709.52,-165.43 717.62,-166.62 725.62,-167.8"/>
<polygon fill="black" stroke="black" points="724.95,-171.24 735.36,-169.23 725.97,-164.31 724.95,-171.24"/>
</g>
<!-- n5352036888&#45;&gt;n5231681752 -->
<g id="edge28" class="edge">
<title>n5352036888&#45;&gt;n5231681752</title>
<path fill="none" stroke="black" d="M701.59,-141.75C709.52,-140.57 717.62,-139.38 725.62,-138.2"/>
<polygon fill="black" stroke="black" points="725.97,-141.69 735.36,-136.77 724.95,-134.76 725.97,-141.69"/>
</g>
<!-- n5352036888&#45;&gt;n5231681304 -->
<g id="edge29" class="edge">
<title>n5352036888&#45;&gt;n5231681304</title>
<path fill="none" stroke="black" d="M661.45,-134.56C683.21,-123.73 711.57,-110.04 737.25,-99 740.59,-97.57 744.03,-96.13 747.51,-94.7"/>
<polygon fill="black" stroke="black" points="748.64,-98.02 756.63,-91.05 746.04,-91.52 748.64,-98.02"/>
</g>
<!-- n5352036888&#45;&gt;n5231682648 -->
<g id="edge30" class="edge">
<title>n5352036888&#45;&gt;n5231682648</title>
<path fill="none" stroke="black" d="M640.14,-134.6C660.08,-111.02 697.55,-70.17 737.25,-45 739.09,-43.83 740.99,-42.7 742.93,-41.61"/>
<polygon fill="black" stroke="black" points="744.29,-44.85 751.58,-37.17 741.09,-38.63 744.29,-44.85"/>
</g>
<!-- n5348148248 -->
<g id="node18" class="node">
<title>n5348148248</title>
<polygon fill="none" stroke="black" points="1052.75,-414 917.5,-414 917.5,-378 1052.75,-378 1052.75,-414"/>
<text xml:space="preserve" text-anchor="middle" x="985.12" y="-390.95" font-family="Times,serif" font-size="14.00">WatermarkTransform</text>
</g>
<!-- n5231683544&#45;&gt;n5348148248 -->
<g id="edge31" class="edge">
<title>n5231683544&#45;&gt;n5348148248</title>
<path fill="none" stroke="black" d="M881.8,-396C889.75,-396 897.88,-396 905.91,-396"/>
<polygon fill="black" stroke="black" points="905.66,-399.5 915.66,-396 905.66,-392.5 905.66,-399.5"/>
</g>
<!-- n5348149272 -->
<g id="node19" class="node">
<title>n5348149272</title>
<polygon fill="none" stroke="black" points="1052.75,-360 917.5,-360 917.5,-324 1052.75,-324 1052.75,-360"/>
<text xml:space="preserve" text-anchor="middle" x="985.12" y="-336.95" font-family="Times,serif" font-size="14.00">WatermarkTransform</text>
</g>
<!-- n5231684440&#45;&gt;n5348149272 -->
<g id="edge32" class="edge">
<title>n5231684440&#45;&gt;n5348149272</title>
<path fill="none" stroke="black" d="M881.8,-342C889.75,-342 897.88,-342 905.91,-342"/>
<polygon fill="black" stroke="black" points="905.66,-345.5 915.66,-342 905.66,-338.5 905.66,-345.5"/>
</g>
<!-- n5348148760 -->
<g id="node20" class="node">
<title>n5348148760</title>
<polygon fill="none" stroke="black" points="1052.75,-306 917.5,-306 917.5,-270 1052.75,-270 1052.75,-306"/>
<text xml:space="preserve" text-anchor="middle" x="985.12" y="-282.95" font-family="Times,serif" font-size="14.00">WatermarkTransform</text>
</g>
<!-- n5231683992&#45;&gt;n5348148760 -->
<g id="edge33" class="edge">
<title>n5231683992&#45;&gt;n5348148760</title>
<path fill="none" stroke="black" d="M881.8,-288C889.75,-288 897.88,-288 905.91,-288"/>
<polygon fill="black" stroke="black" points="905.66,-291.5 915.66,-288 905.66,-284.5 905.66,-291.5"/>
</g>
<!-- n5348149784 -->
<g id="node21" class="node">
<title>n5348149784</title>
<polygon fill="none" stroke="black" points="1052.75,-252 917.5,-252 917.5,-216 1052.75,-216 1052.75,-252"/>
<text xml:space="preserve" text-anchor="middle" x="985.12" y="-228.95" font-family="Times,serif" font-size="14.00">WatermarkTransform</text>
</g>
<!-- n5231653976&#45;&gt;n5348149784 -->
<g id="edge34" class="edge">
<title>n5231653976&#45;&gt;n5348149784</title>
<path fill="none" stroke="black" d="M881.8,-234C889.75,-234 897.88,-234 905.91,-234"/>
<polygon fill="black" stroke="black" points="905.66,-237.5 915.66,-234 905.66,-230.5 905.66,-237.5"/>
</g>
<!-- n5348150296 -->
<g id="node22" class="node">
<title>n5348150296</title>
<polygon fill="none" stroke="black" points="1052.75,-198 917.5,-198 917.5,-162 1052.75,-162 1052.75,-198"/>
<text xml:space="preserve" text-anchor="middle" x="985.12" y="-174.95" font-family="Times,serif" font-size="14.00">WatermarkTransform</text>
</g>
<!-- n5231684888&#45;&gt;n5348150296 -->
<g id="edge35" class="edge">
<title>n5231684888&#45;&gt;n5348150296</title>
<path fill="none" stroke="black" d="M881.8,-180C889.75,-180 897.88,-180 905.91,-180"/>
<polygon fill="black" stroke="black" points="905.66,-183.5 915.66,-180 905.66,-176.5 905.66,-183.5"/>
</g>
<!-- n5348150808 -->
<g id="node23" class="node">
<title>n5348150808</title>
<polygon fill="none" stroke="black" points="1052.75,-144 917.5,-144 917.5,-108 1052.75,-108 1052.75,-144"/>
<text xml:space="preserve" text-anchor="middle" x="985.12" y="-120.95" font-family="Times,serif" font-size="14.00">WatermarkTransform</text>
</g>
<!-- n5231681752&#45;&gt;n5348150808 -->
<g id="edge36" class="edge">
<title>n5231681752&#45;&gt;n5348150808</title>
<path fill="none" stroke="black" d="M881.8,-126C889.75,-126 897.88,-126 905.91,-126"/>
<polygon fill="black" stroke="black" points="905.66,-129.5 915.66,-126 905.66,-122.5 905.66,-129.5"/>
</g>
<!-- n5348151320 -->
<g id="node24" class="node">
<title>n5348151320</title>
<polygon fill="none" stroke="black" points="1052.75,-90 917.5,-90 917.5,-54 1052.75,-54 1052.75,-90"/>
<text xml:space="preserve" text-anchor="middle" x="985.12" y="-66.95" font-family="Times,serif" font-size="14.00">WatermarkTransform</text>
</g>
<!-- n5231681304&#45;&gt;n5348151320 -->
<g id="edge37" class="edge">
<title>n5231681304&#45;&gt;n5348151320</title>
<path fill="none" stroke="black" d="M881.8,-72C889.75,-72 897.88,-72 905.91,-72"/>
<polygon fill="black" stroke="black" points="905.66,-75.5 915.66,-72 905.66,-68.5 905.66,-75.5"/>
</g>
<!-- n5348151832 -->
<g id="node25" class="node">
<title>n5348151832</title>
<polygon fill="none" stroke="black" points="1052.75,-36 917.5,-36 917.5,0 1052.75,0 1052.75,-36"/>
<text xml:space="preserve" text-anchor="middle" x="985.12" y="-12.95" font-family="Times,serif" font-size="14.00">WatermarkTransform</text>
</g>
<!-- n5231682648&#45;&gt;n5348151832 -->
<g id="edge38" class="edge">
<title>n5231682648&#45;&gt;n5348151832</title>
<path fill="none" stroke="black" d="M881.8,-18C889.75,-18 897.88,-18 905.91,-18"/>
<polygon fill="black" stroke="black" points="905.66,-21.5 915.66,-18 905.66,-14.5 905.66,-21.5"/>
</g>
<!-- n5348152344 -->
<g id="node26" class="node">
<title>n5348152344</title>
<polygon fill="none" stroke="black" points="1222.5,-414 1088.75,-414 1088.75,-378 1222.5,-378 1222.5,-414"/>
<text xml:space="preserve" text-anchor="middle" x="1155.62" y="-390.95" font-family="Times,serif" font-size="14.00">ExpressionTransform</text>
</g>
<!-- n5348148248&#45;&gt;n5348152344 -->
<g id="edge39" class="edge">
<title>n5348148248&#45;&gt;n5348152344</title>
<path fill="none" stroke="black" d="M1053.2,-396C1060.97,-396 1068.95,-396 1076.84,-396"/>
<polygon fill="black" stroke="black" points="1076.81,-399.5 1086.81,-396 1076.81,-392.5 1076.81,-399.5"/>
</g>
<!-- n5348152856 -->
<g id="node27" class="node">
<title>n5348152856</title>
<polygon fill="none" stroke="black" points="1222.5,-360 1088.75,-360 1088.75,-324 1222.5,-324 1222.5,-360"/>
<text xml:space="preserve" text-anchor="middle" x="1155.62" y="-336.95" font-family="Times,serif" font-size="14.00">ExpressionTransform</text>
</g>
<!-- n5348149272&#45;&gt;n5348152856 -->
<g id="edge40" class="edge">
<title>n5348149272&#45;&gt;n5348152856</title>
<path fill="none" stroke="black" d="M1053.2,-342C1060.97,-342 1068.95,-342 1076.84,-342"/>
<polygon fill="black" stroke="black" points="1076.81,-345.5 1086.81,-342 1076.81,-338.5 1076.81,-345.5"/>
</g>
<!-- n5348153368 -->
<g id="node28" class="node">
<title>n5348153368</title>
<polygon fill="none" stroke="black" points="1222.5,-306 1088.75,-306 1088.75,-270 1222.5,-270 1222.5,-306"/>
<text xml:space="preserve" text-anchor="middle" x="1155.62" y="-282.95" font-family="Times,serif" font-size="14.00">ExpressionTransform</text>
</g>
<!-- n5348148760&#45;&gt;n5348153368 -->
<g id="edge41" class="edge">
<title>n5348148760&#45;&gt;n5348153368</title>
<path fill="none" stroke="black" d="M1053.2,-288C1060.97,-288 1068.95,-288 1076.84,-288"/>
<polygon fill="black" stroke="black" points="1076.81,-291.5 1086.81,-288 1076.81,-284.5 1076.81,-291.5"/>
</g>
<!-- n5348153880 -->
<g id="node29" class="node">
<title>n5348153880</title>
<polygon fill="none" stroke="black" points="1222.5,-252 1088.75,-252 1088.75,-216 1222.5,-216 1222.5,-252"/>
<text xml:space="preserve" text-anchor="middle" x="1155.62" y="-228.95" font-family="Times,serif" font-size="14.00">ExpressionTransform</text>
</g>
<!-- n5348149784&#45;&gt;n5348153880 -->
<g id="edge42" class="edge">
<title>n5348149784&#45;&gt;n5348153880</title>
<path fill="none" stroke="black" d="M1053.2,-234C1060.97,-234 1068.95,-234 1076.84,-234"/>
<polygon fill="black" stroke="black" points="1076.81,-237.5 1086.81,-234 1076.81,-230.5 1076.81,-237.5"/>
</g>
<!-- n5348154392 -->
<g id="node30" class="node">
<title>n5348154392</title>
<polygon fill="none" stroke="black" points="1222.5,-198 1088.75,-198 1088.75,-162 1222.5,-162 1222.5,-198"/>
<text xml:space="preserve" text-anchor="middle" x="1155.62" y="-174.95" font-family="Times,serif" font-size="14.00">ExpressionTransform</text>
</g>
<!-- n5348150296&#45;&gt;n5348154392 -->
<g id="edge43" class="edge">
<title>n5348150296&#45;&gt;n5348154392</title>
<path fill="none" stroke="black" d="M1053.2,-180C1060.97,-180 1068.95,-180 1076.84,-180"/>
<polygon fill="black" stroke="black" points="1076.81,-183.5 1086.81,-180 1076.81,-176.5 1076.81,-183.5"/>
</g>
<!-- n5348154904 -->
<g id="node31" class="node">
<title>n5348154904</title>
<polygon fill="none" stroke="black" points="1222.5,-144 1088.75,-144 1088.75,-108 1222.5,-108 1222.5,-144"/>
<text xml:space="preserve" text-anchor="middle" x="1155.62" y="-120.95" font-family="Times,serif" font-size="14.00">ExpressionTransform</text>
</g>
<!-- n5348150808&#45;&gt;n5348154904 -->
<g id="edge44" class="edge">
<title>n5348150808&#45;&gt;n5348154904</title>
<path fill="none" stroke="black" d="M1053.2,-126C1060.97,-126 1068.95,-126 1076.84,-126"/>
<polygon fill="black" stroke="black" points="1076.81,-129.5 1086.81,-126 1076.81,-122.5 1076.81,-129.5"/>
</g>
<!-- n5348155416 -->
<g id="node32" class="node">
<title>n5348155416</title>
<polygon fill="none" stroke="black" points="1222.5,-90 1088.75,-90 1088.75,-54 1222.5,-54 1222.5,-90"/>
<text xml:space="preserve" text-anchor="middle" x="1155.62" y="-66.95" font-family="Times,serif" font-size="14.00">ExpressionTransform</text>
</g>
<!-- n5348151320&#45;&gt;n5348155416 -->
<g id="edge45" class="edge">
<title>n5348151320&#45;&gt;n5348155416</title>
<path fill="none" stroke="black" d="M1053.2,-72C1060.97,-72 1068.95,-72 1076.84,-72"/>
<polygon fill="black" stroke="black" points="1076.81,-75.5 1086.81,-72 1076.81,-68.5 1076.81,-75.5"/>
</g>
<!-- n5348155928 -->
<g id="node33" class="node">
<title>n5348155928</title>
<polygon fill="none" stroke="black" points="1222.5,-36 1088.75,-36 1088.75,0 1222.5,0 1222.5,-36"/>
<text xml:space="preserve" text-anchor="middle" x="1155.62" y="-12.95" font-family="Times,serif" font-size="14.00">ExpressionTransform</text>
</g>
<!-- n5348151832&#45;&gt;n5348155928 -->
<g id="edge46" class="edge">
<title>n5348151832&#45;&gt;n5348155928</title>
<path fill="none" stroke="black" d="M1053.2,-18C1060.97,-18 1068.95,-18 1076.84,-18"/>
<polygon fill="black" stroke="black" points="1076.81,-21.5 1086.81,-18 1076.81,-14.5 1076.81,-21.5"/>
</g>
<!-- n5351515160 -->
<g id="node34" class="node">
<title>n5351515160</title>
<polygon fill="none" stroke="black" points="1436.5,-414 1258.5,-414 1258.5,-378 1436.5,-378 1436.5,-414"/>
<text xml:space="preserve" text-anchor="middle" x="1347.5" y="-390.95" font-family="Times,serif" font-size="14.00">GlobalAggregatingTransform</text>
</g>
<!-- n5348152344&#45;&gt;n5351515160 -->
<g id="edge47" class="edge">
<title>n5348152344&#45;&gt;n5351515160</title>
<path fill="none" stroke="black" d="M1222.77,-396C1230.55,-396 1238.62,-396 1246.74,-396"/>
<polygon fill="black" stroke="black" points="1246.7,-399.5 1256.7,-396 1246.7,-392.5 1246.7,-399.5"/>
</g>
<!-- n5351514392 -->
<g id="node35" class="node">
<title>n5351514392</title>
<polygon fill="none" stroke="black" points="1436.5,-360 1258.5,-360 1258.5,-324 1436.5,-324 1436.5,-360"/>
<text xml:space="preserve" text-anchor="middle" x="1347.5" y="-336.95" font-family="Times,serif" font-size="14.00">GlobalAggregatingTransform</text>
</g>
<!-- n5348152856&#45;&gt;n5351514392 -->
<g id="edge48" class="edge">
<title>n5348152856&#45;&gt;n5351514392</title>
<path fill="none" stroke="black" d="M1222.77,-342C1230.55,-342 1238.62,-342 1246.74,-342"/>
<polygon fill="black" stroke="black" points="1246.7,-345.5 1256.7,-342 1246.7,-338.5 1246.7,-345.5"/>
</g>
<!-- n5351515928 -->
<g id="node36" class="node">
<title>n5351515928</title>
<polygon fill="none" stroke="black" points="1436.5,-306 1258.5,-306 1258.5,-270 1436.5,-270 1436.5,-306"/>
<text xml:space="preserve" text-anchor="middle" x="1347.5" y="-282.95" font-family="Times,serif" font-size="14.00">GlobalAggregatingTransform</text>
</g>
<!-- n5348153368&#45;&gt;n5351515928 -->
<g id="edge49" class="edge">
<title>n5348153368&#45;&gt;n5351515928</title>
<path fill="none" stroke="black" d="M1222.77,-288C1230.55,-288 1238.62,-288 1246.74,-288"/>
<polygon fill="black" stroke="black" points="1246.7,-291.5 1256.7,-288 1246.7,-284.5 1246.7,-291.5"/>
</g>
<!-- n5351507480 -->
<g id="node37" class="node">
<title>n5351507480</title>
<polygon fill="none" stroke="black" points="1436.5,-252 1258.5,-252 1258.5,-216 1436.5,-216 1436.5,-252"/>
<text xml:space="preserve" text-anchor="middle" x="1347.5" y="-228.95" font-family="Times,serif" font-size="14.00">GlobalAggregatingTransform</text>
</g>
<!-- n5348153880&#45;&gt;n5351507480 -->
<g id="edge50" class="edge">
<title>n5348153880&#45;&gt;n5351507480</title>
<path fill="none" stroke="black" d="M1222.77,-234C1230.55,-234 1238.62,-234 1246.74,-234"/>
<polygon fill="black" stroke="black" points="1246.7,-237.5 1256.7,-234 1246.7,-230.5 1246.7,-237.5"/>
</g>
<!-- n5351510552 -->
<g id="node38" class="node">
<title>n5351510552</title>
<polygon fill="none" stroke="black" points="1436.5,-198 1258.5,-198 1258.5,-162 1436.5,-162 1436.5,-198"/>
<text xml:space="preserve" text-anchor="middle" x="1347.5" y="-174.95" font-family="Times,serif" font-size="14.00">GlobalAggregatingTransform</text>
</g>
<!-- n5348154392&#45;&gt;n5351510552 -->
<g id="edge51" class="edge">
<title>n5348154392&#45;&gt;n5351510552</title>
<path fill="none" stroke="black" d="M1222.77,-180C1230.55,-180 1238.62,-180 1246.74,-180"/>
<polygon fill="black" stroke="black" points="1246.7,-183.5 1256.7,-180 1246.7,-176.5 1246.7,-183.5"/>
</g>
<!-- n5351512088 -->
<g id="node39" class="node">
<title>n5351512088</title>
<polygon fill="none" stroke="black" points="1436.5,-144 1258.5,-144 1258.5,-108 1436.5,-108 1436.5,-144"/>
<text xml:space="preserve" text-anchor="middle" x="1347.5" y="-120.95" font-family="Times,serif" font-size="14.00">GlobalAggregatingTransform</text>
</g>
<!-- n5348154904&#45;&gt;n5351512088 -->
<g id="edge52" class="edge">
<title>n5348154904&#45;&gt;n5351512088</title>
<path fill="none" stroke="black" d="M1222.77,-126C1230.55,-126 1238.62,-126 1246.74,-126"/>
<polygon fill="black" stroke="black" points="1246.7,-129.5 1256.7,-126 1246.7,-122.5 1246.7,-129.5"/>
</g>
<!-- n5351516696 -->
<g id="node40" class="node">
<title>n5351516696</title>
<polygon fill="none" stroke="black" points="1436.5,-90 1258.5,-90 1258.5,-54 1436.5,-54 1436.5,-90"/>
<text xml:space="preserve" text-anchor="middle" x="1347.5" y="-66.95" font-family="Times,serif" font-size="14.00">GlobalAggregatingTransform</text>
</g>
<!-- n5348155416&#45;&gt;n5351516696 -->
<g id="edge53" class="edge">
<title>n5348155416&#45;&gt;n5351516696</title>
<path fill="none" stroke="black" d="M1222.77,-72C1230.55,-72 1238.62,-72 1246.74,-72"/>
<polygon fill="black" stroke="black" points="1246.7,-75.5 1256.7,-72 1246.7,-68.5 1246.7,-75.5"/>
</g>
<!-- n5351518232 -->
<g id="node41" class="node">
<title>n5351518232</title>
<polygon fill="none" stroke="black" points="1436.5,-36 1258.5,-36 1258.5,0 1436.5,0 1436.5,-36"/>
<text xml:space="preserve" text-anchor="middle" x="1347.5" y="-12.95" font-family="Times,serif" font-size="14.00">GlobalAggregatingTransform</text>
</g>
<!-- n5348155928&#45;&gt;n5351518232 -->
<g id="edge54" class="edge">
<title>n5348155928&#45;&gt;n5351518232</title>
<path fill="none" stroke="black" d="M1222.77,-18C1230.55,-18 1238.62,-18 1246.74,-18"/>
<polygon fill="black" stroke="black" points="1246.7,-21.5 1256.7,-18 1246.7,-14.5 1246.7,-21.5"/>
</g>
<!-- n5352030744 -->
<g id="node42" class="node">
<title>n5352030744</title>
<polygon fill="none" stroke="black" points="1606.25,-414 1472.5,-414 1472.5,-378 1606.25,-378 1606.25,-414"/>
<text xml:space="preserve" text-anchor="middle" x="1539.38" y="-390.95" font-family="Times,serif" font-size="14.00">ExpressionTransform</text>
</g>
<!-- n5351515160&#45;&gt;n5352030744 -->
<g id="edge55" class="edge">
<title>n5351515160&#45;&gt;n5352030744</title>
<path fill="none" stroke="black" d="M1436.77,-396C1444.77,-396 1452.84,-396 1460.74,-396"/>
<polygon fill="black" stroke="black" points="1460.66,-399.5 1470.66,-396 1460.66,-392.5 1460.66,-399.5"/>
</g>
<!-- n5352031768 -->
<g id="node43" class="node">
<title>n5352031768</title>
<polygon fill="none" stroke="black" points="1606.25,-360 1472.5,-360 1472.5,-324 1606.25,-324 1606.25,-360"/>
<text xml:space="preserve" text-anchor="middle" x="1539.38" y="-336.95" font-family="Times,serif" font-size="14.00">ExpressionTransform</text>
</g>
<!-- n5351514392&#45;&gt;n5352031768 -->
<g id="edge56" class="edge">
<title>n5351514392&#45;&gt;n5352031768</title>
<path fill="none" stroke="black" d="M1436.77,-342C1444.77,-342 1452.84,-342 1460.74,-342"/>
<polygon fill="black" stroke="black" points="1460.66,-345.5 1470.66,-342 1460.66,-338.5 1460.66,-345.5"/>
</g>
<!-- n5352032280 -->
<g id="node44" class="node">
<title>n5352032280</title>
<polygon fill="none" stroke="black" points="1606.25,-306 1472.5,-306 1472.5,-270 1606.25,-270 1606.25,-306"/>
<text xml:space="preserve" text-anchor="middle" x="1539.38" y="-282.95" font-family="Times,serif" font-size="14.00">ExpressionTransform</text>
</g>
<!-- n5351515928&#45;&gt;n5352032280 -->
<g id="edge57" class="edge">
<title>n5351515928&#45;&gt;n5352032280</title>
<path fill="none" stroke="black" d="M1436.77,-288C1444.77,-288 1452.84,-288 1460.74,-288"/>
<polygon fill="black" stroke="black" points="1460.66,-291.5 1470.66,-288 1460.66,-284.5 1460.66,-291.5"/>
</g>
<!-- n5352032792 -->
<g id="node45" class="node">
<title>n5352032792</title>
<polygon fill="none" stroke="black" points="1606.25,-252 1472.5,-252 1472.5,-216 1606.25,-216 1606.25,-252"/>
<text xml:space="preserve" text-anchor="middle" x="1539.38" y="-228.95" font-family="Times,serif" font-size="14.00">ExpressionTransform</text>
</g>
<!-- n5351507480&#45;&gt;n5352032792 -->
<g id="edge58" class="edge">
<title>n5351507480&#45;&gt;n5352032792</title>
<path fill="none" stroke="black" d="M1436.77,-234C1444.77,-234 1452.84,-234 1460.74,-234"/>
<polygon fill="black" stroke="black" points="1460.66,-237.5 1470.66,-234 1460.66,-230.5 1460.66,-237.5"/>
</g>
<!-- n5352033304 -->
<g id="node46" class="node">
<title>n5352033304</title>
<polygon fill="none" stroke="black" points="1606.25,-198 1472.5,-198 1472.5,-162 1606.25,-162 1606.25,-198"/>
<text xml:space="preserve" text-anchor="middle" x="1539.38" y="-174.95" font-family="Times,serif" font-size="14.00">ExpressionTransform</text>
</g>
<!-- n5351510552&#45;&gt;n5352033304 -->
<g id="edge59" class="edge">
<title>n5351510552&#45;&gt;n5352033304</title>
<path fill="none" stroke="black" d="M1436.77,-180C1444.77,-180 1452.84,-180 1460.74,-180"/>
<polygon fill="black" stroke="black" points="1460.66,-183.5 1470.66,-180 1460.66,-176.5 1460.66,-183.5"/>
</g>
<!-- n5352033816 -->
<g id="node47" class="node">
<title>n5352033816</title>
<polygon fill="none" stroke="black" points="1606.25,-144 1472.5,-144 1472.5,-108 1606.25,-108 1606.25,-144"/>
<text xml:space="preserve" text-anchor="middle" x="1539.38" y="-120.95" font-family="Times,serif" font-size="14.00">ExpressionTransform</text>
</g>
<!-- n5351512088&#45;&gt;n5352033816 -->
<g id="edge60" class="edge">
<title>n5351512088&#45;&gt;n5352033816</title>
<path fill="none" stroke="black" d="M1436.77,-126C1444.77,-126 1452.84,-126 1460.74,-126"/>
<polygon fill="black" stroke="black" points="1460.66,-129.5 1470.66,-126 1460.66,-122.5 1460.66,-129.5"/>
</g>
<!-- n5352034328 -->
<g id="node48" class="node">
<title>n5352034328</title>
<polygon fill="none" stroke="black" points="1606.25,-90 1472.5,-90 1472.5,-54 1606.25,-54 1606.25,-90"/>
<text xml:space="preserve" text-anchor="middle" x="1539.38" y="-66.95" font-family="Times,serif" font-size="14.00">ExpressionTransform</text>
</g>
<!-- n5351516696&#45;&gt;n5352034328 -->
<g id="edge61" class="edge">
<title>n5351516696&#45;&gt;n5352034328</title>
<path fill="none" stroke="black" d="M1436.77,-72C1444.77,-72 1452.84,-72 1460.74,-72"/>
<polygon fill="black" stroke="black" points="1460.66,-75.5 1470.66,-72 1460.66,-68.5 1460.66,-75.5"/>
</g>
<!-- n5352034840 -->
<g id="node49" class="node">
<title>n5352034840</title>
<polygon fill="none" stroke="black" points="1606.25,-36 1472.5,-36 1472.5,0 1606.25,0 1606.25,-36"/>
<text xml:space="preserve" text-anchor="middle" x="1539.38" y="-12.95" font-family="Times,serif" font-size="14.00">ExpressionTransform</text>
</g>
<!-- n5351518232&#45;&gt;n5352034840 -->
<g id="edge62" class="edge">
<title>n5351518232&#45;&gt;n5352034840</title>
<path fill="none" stroke="black" d="M1436.77,-18C1444.77,-18 1452.84,-18 1460.74,-18"/>
<polygon fill="black" stroke="black" points="1460.66,-21.5 1470.66,-18 1460.66,-14.5 1460.66,-21.5"/>
</g>
</g>
</svg>
