<svg width="740" height="91" viewBox="0 0 740 91" fill="none" xmlns="http://www.w3.org/2000/svg">
<path d="M307.473 16.1289C320.33 16.1289 328.571 26.1809 325.854 41.8446C323.047 57.5083 311.187 67.9207 298.421 67.9207C290.542 67.9207 285.562 64.0266 283.208 59.9523L279.595 80.6215C279.176 83.0127 277.928 85.1796 276.069 86.7414C274.211 88.3032 271.861 89.1598 269.434 89.1606H266.258C266.145 89.1607 266.034 89.1361 265.931 89.0885C265.829 89.0409 265.738 88.9714 265.666 88.885C265.593 88.7986 265.54 88.6973 265.511 88.5883C265.482 88.4793 265.477 88.3652 265.496 88.254L277.937 17.5844C277.968 17.405 278.062 17.2424 278.201 17.1255C278.341 17.0085 278.517 16.9447 278.699 16.9454H289.895C290.008 16.9452 290.12 16.9698 290.222 17.0175C290.324 17.0651 290.415 17.1346 290.487 17.2211C290.559 17.3076 290.612 17.4089 290.641 17.5179C290.67 17.627 290.674 17.741 290.654 17.852L289.546 24.1874C291.801 21.6611 294.563 19.6379 297.652 18.2495C300.74 16.8611 304.087 16.1386 307.473 16.1289V16.1289ZM302.222 27.2677C295.431 27.2677 288.022 32.519 286.384 42.0139C284.663 51.5224 290.095 56.76 296.976 56.76C303.858 56.76 311.192 51.3258 312.913 41.82C314.538 32.336 309.112 27.2677 302.225 27.2677H302.222Z" fill="white"/>
<path d="M350.316 0.355469H339.1C338.924 0.355967 338.754 0.418316 338.619 0.531622C338.484 0.644928 338.394 0.801986 338.363 0.975354L326.861 66.107C326.841 66.2201 326.846 66.3363 326.876 66.4473C326.906 66.5583 326.96 66.6614 327.033 66.7494C327.107 66.8374 327.2 66.9081 327.304 66.9566C327.408 67.0051 327.522 67.0301 327.637 67.03H338.852C339.028 67.0301 339.198 66.9683 339.333 66.8555C339.468 66.7426 339.558 66.5859 339.589 66.4128L351.091 1.2812C351.111 1.16788 351.106 1.05159 351.076 0.940456C351.046 0.829324 350.993 0.726044 350.919 0.637853C350.845 0.549661 350.753 0.47869 350.648 0.429911C350.544 0.381131 350.431 0.355724 350.316 0.355469V0.355469Z" fill="white"/>
<path d="M401.102 16.8086H390.007C389.822 16.8089 389.643 16.8741 389.502 16.9929C389.36 17.1117 389.264 17.2765 389.232 17.4585L384.453 44.4576C383.087 52.5271 377.836 56.8772 371.037 56.8772C364.237 56.8772 360.611 52.5271 361.971 44.4576L366.703 17.7371C366.723 17.6234 366.718 17.5067 366.688 17.3953C366.658 17.2838 366.604 17.1802 366.53 17.0918C366.456 17.0033 366.363 16.9322 366.259 16.8833C366.154 16.8343 366.04 16.8089 365.925 16.8086H354.832C354.648 16.8084 354.47 16.8733 354.329 16.9917C354.188 17.1101 354.094 17.2745 354.062 17.4558L349.008 46.2709C347.162 56.6669 350.736 63.5539 357.661 66.3065L357.713 66.3311L357.861 66.383C358.451 66.6082 359.052 66.8014 359.663 66.9619C364.172 68.2454 371.405 68.9882 381.105 63.2972L380.622 66.1127C380.602 66.2253 380.607 66.3408 380.637 66.4511C380.667 66.5615 380.721 66.6639 380.794 66.7513C380.868 66.8388 380.96 66.909 381.063 66.9572C381.167 67.0054 381.28 67.0303 381.394 67.0302H392.495C392.679 67.03 392.858 66.9652 393 66.8469C393.141 66.7287 393.237 66.5645 393.27 66.383L401.875 17.7316C401.895 17.6186 401.89 17.5027 401.86 17.3919C401.831 17.2811 401.777 17.1781 401.703 17.0902C401.63 17.0022 401.538 16.9315 401.434 16.8828C401.33 16.8342 401.217 16.8088 401.102 16.8086V16.8086Z" fill="white"/>
<path d="M425.168 15.9922C413.019 15.9922 404.77 22.2484 404.77 31.1343C404.77 47.4507 429.699 44.911 429.699 53.0706C429.699 56.6206 425.802 58.2372 421.269 58.2372C416.252 58.2372 413.229 55.6839 413.172 51.9264C413.168 51.7226 413.083 51.5287 412.937 51.3866C412.791 51.2446 412.595 51.1658 412.391 51.1672H401.572C401.378 51.1659 401.191 51.2359 401.046 51.3638C400.901 51.4918 400.808 51.6688 400.785 51.8609C399.846 61.282 408.593 67.8468 420.362 67.8468C432.692 67.8468 441.935 62.2269 441.935 52.7074C441.935 37.1147 417.186 39.201 417.186 30.7711C417.186 27.598 420.269 25.6018 424.619 25.6018C429.636 25.6018 432.498 28.0595 432.539 31.817C432.542 32.0222 432.626 32.2178 432.773 32.3614C432.92 32.505 433.117 32.5851 433.322 32.5843H443.563C443.763 32.5855 443.955 32.5105 444.102 32.3746C444.249 32.2386 444.338 32.0519 444.352 31.8525C444.895 22.5406 437.102 15.9922 425.168 15.9922Z" fill="white"/>
<path d="M95.744 22.8925H88.8516V17.5402H95.744V0.355469H102.183V17.5402H115.774V22.8925H102.183V53.6328C102.183 59.7088 104.267 61.6121 109.979 61.6121H115.774V67.0545H108.983C100.367 67.0545 95.744 63.5182 95.744 53.6328V22.8925Z" fill="white"/>
<path d="M122.303 17.5391H128.652V67.0534H122.303V17.5391Z" fill="white"/>
<path d="M207.871 38.7602C207.871 27.788 202.159 22.1654 193.363 22.1654C184.384 22.1654 178.035 28.1485 178.035 40.2239V67.0674H171.779V38.7602C171.779 27.788 165.976 22.1654 157.18 22.1654C148.111 22.1654 141.855 28.1485 141.855 40.2103V67.0538H135.506V17.5394H141.855V26.0649C145.028 19.806 151.285 16.6328 158.267 16.6328C166.519 16.6328 173.592 20.5324 176.585 28.7847C179.316 20.7126 186.56 16.6328 194.45 16.6328C205.422 16.6328 214.127 23.5253 214.127 38.0339V67.0538H207.871V38.7602Z" fill="white"/>
<path d="M243.48 67.778C229.425 67.778 219.177 57.9855 219.177 42.2972C219.177 26.5188 229.242 16.8164 243.48 16.8164C257.992 16.8164 266.878 27.1524 266.878 39.7549C266.913 41.42 266.852 43.0857 266.697 44.744H225.619C226.165 56.3498 234.231 62.4257 243.48 62.4257C251.916 62.4257 257.628 57.9828 259.442 51.3634H266.151C263.885 60.7053 255.905 67.778 243.48 67.778ZM225.619 39.5774H260.438C260.712 28.059 252.369 22.2561 243.21 22.2561C234.231 22.2561 226.342 28.059 225.619 39.5774Z" fill="white"/>
<path d="M121.536 6.94209L122.658 0.355469H128.939L127.817 6.94209H121.536Z" fill="white"/>
<path d="M51.64 41.9538C51.6397 38.2281 50.8318 34.5467 49.2718 31.1632C47.7119 27.7798 45.437 24.7747 42.6038 22.3551C42.3089 22.2623 42.0113 22.1712 41.7109 22.082C39.8454 22.5807 38.06 23.341 36.4077 24.3404C39.4469 26.1649 41.9619 28.7452 43.7081 31.8302C45.4542 34.9151 46.3719 38.3995 46.3719 41.9443C46.3719 45.4891 45.4542 48.9735 43.7081 52.0584C41.9619 55.1433 39.4469 57.7236 36.4077 59.5482C38.0595 60.5478 39.8451 61.3073 41.7109 61.8038C42.0113 61.7246 42.3089 61.6372 42.6038 61.5444C45.4358 59.1256 47.71 56.1218 49.2699 52.7399C50.8298 49.358 51.6384 45.6782 51.64 41.9538Z" fill="url(#paint0_linear_19_252)"/>
<path d="M42.1721 21.9844L41.7188 22.0963C41.8635 22.0526 42.0191 22.0226 42.1721 21.9844Z" fill="url(#paint1_linear_19_252)"/>
<path d="M5.25782 41.9538C5.26386 37.584 6.6596 33.3295 9.24319 29.8053C11.8268 26.2811 15.4643 23.67 19.6298 22.3496C22.9216 19.5218 26.8741 17.5709 31.1208 16.6778C27.3617 15.8901 23.4742 15.9509 19.7415 16.8556C16.0088 17.7603 12.525 19.4863 9.54364 21.9077C6.56232 24.3291 4.15863 27.385 2.50766 30.8528C0.856687 34.3206 0 38.113 0 41.9538C0 45.7946 0.856687 49.587 2.50766 53.0548C4.15863 56.5226 6.56232 59.5785 9.54364 61.9999C12.525 64.4213 16.0088 66.1473 19.7415 67.052C23.4742 67.9567 27.3617 68.0175 31.1208 67.2298C26.8814 66.3343 22.9365 64.3835 19.6516 61.558C15.4819 60.2418 11.8393 57.6324 9.25148 54.1078C6.66365 50.5832 5.26491 46.3264 5.25782 41.9538V41.9538Z" fill="url(#paint2_linear_19_252)"/>
<path d="M41.7104 61.8125C41.8606 61.8535 42.0136 61.889 42.1638 61.9272C42.019 61.8835 41.8634 61.8535 41.7104 61.8125Z" fill="url(#paint3_linear_19_252)"/>
<path d="M62.2513 41.9529C62.251 38.2256 61.4423 34.5426 59.8809 31.1581C58.3194 27.7736 56.0425 24.768 53.207 22.3487C49.4812 21.1758 45.4986 21.0868 41.7241 22.092C46.1005 23.2587 49.969 25.8382 52.7285 29.4297C55.488 33.0213 56.984 37.4237 56.984 41.9529C56.984 46.4821 55.488 50.8846 52.7285 54.4761C49.969 58.0676 46.1005 60.6471 41.7241 61.8138C45.4982 62.8228 49.4818 62.7338 53.207 61.5571C56.0429 59.1381 58.3202 56.1326 59.8816 52.748C61.4431 49.3634 62.2516 45.6803 62.2513 41.9529V41.9529Z" fill="url(#paint4_linear_19_252)"/>
<path d="M30.2278 61.558C26.0595 60.2425 22.4189 57.6327 19.8348 54.1074C17.2506 50.5821 15.8574 46.3248 15.8574 41.9538C15.8574 37.5828 17.2506 33.3255 19.8348 29.8002C22.4189 26.2749 26.0595 23.6651 30.2278 22.3496C33.5173 19.523 37.4668 17.5722 41.7106 16.6778C37.9515 15.8901 34.064 15.9509 30.3313 16.8556C26.5987 17.7603 23.1148 19.4863 20.1335 21.9077C17.1522 24.3291 14.7485 27.385 13.0975 30.8528C11.4465 34.3206 10.5898 38.113 10.5898 41.9538C10.5898 45.7946 11.4465 49.587 13.0975 53.0548C14.7485 56.5226 17.1522 59.5785 20.1335 61.9999C23.1148 64.4213 26.5987 66.1473 30.3313 67.052C34.064 67.9567 37.9515 68.0175 41.7106 67.2298C37.4664 66.3365 33.5166 64.3856 30.2278 61.558V61.558Z" fill="url(#paint5_linear_19_252)"/>
<path d="M47.0108 16.1289C41.9031 16.1289 36.9102 17.6435 32.6633 20.4812C28.4165 23.3189 25.1064 27.3522 23.1518 32.071C21.1972 36.7899 20.6858 41.9825 21.6823 46.992C22.6787 52.0015 25.1383 56.6031 28.7499 60.2148C32.3616 63.8264 36.9631 66.286 41.9726 67.2825C46.9821 68.2789 52.1746 67.7675 56.8935 65.8129C61.6123 63.8583 65.6456 60.5482 68.4832 56.3013C71.3209 52.0545 72.8355 47.0615 72.8355 41.9538C72.8275 35.1071 70.1042 28.543 65.2628 23.7016C60.4215 18.8602 53.8575 16.1369 47.0108 16.1289V16.1289ZM67.5651 41.9538C67.5657 46.0199 66.3604 49.9948 64.1018 53.3758C61.8431 56.7569 58.6326 59.3922 54.8762 60.9484C51.1197 62.5047 46.9862 62.912 42.9982 62.1189C39.0103 61.3258 35.3471 59.3678 32.472 56.4927C29.5968 53.6176 27.6389 49.9543 26.8458 45.9664C26.0527 41.9784 26.46 37.8448 28.0163 34.0884C29.5725 30.3319 32.2078 27.1213 35.5888 24.8627C38.9698 22.604 42.9447 21.3988 47.0108 21.3993C52.4601 21.4058 57.6844 23.5734 61.5377 27.4268C65.391 31.2801 67.5586 36.5044 67.5651 41.9538V41.9538Z" fill="white"/>
<path d="M719.449 16.0352C723.389 16.0352 726.905 16.8536 729.997 18.4904C733.15 20.1273 735.605 22.5522 737.363 25.7653C739.121 28.9784 740 32.8583 740 37.4051V64.9593C740 66.0639 739.105 66.9593 738 66.9593H731.724C730.62 66.9593 729.724 66.0639 729.724 64.9593V38.951C729.724 34.4648 728.603 31.0396 726.36 28.6753C724.117 26.2503 721.055 25.0378 717.175 25.0378C713.295 25.0378 710.204 26.2503 707.9 28.6753C705.657 31.0396 704.535 34.4648 704.535 38.951V64.9593C704.535 66.0639 703.64 66.9593 702.535 66.9593H696.168C695.064 66.9593 694.168 66.0639 694.168 64.9593V18.8536C694.168 17.749 695.064 16.8536 696.168 16.8536H703.023C703.858 16.8536 704.535 17.5308 704.535 18.3662V18.3662C704.535 19.7854 706.45 20.5363 707.599 19.702C708.628 18.954 709.759 18.3076 710.992 17.7629C713.659 16.6111 716.478 16.0352 719.449 16.0352Z" fill="#D53F8C"/>
<path d="M662.459 67.7777C657.73 67.7777 653.457 66.7168 649.637 64.595C645.818 62.4125 642.817 59.3813 640.635 55.5014C638.452 51.5608 637.361 47.014 637.361 41.861C637.361 36.7686 638.482 32.2521 640.725 28.3115C642.969 24.371 646.03 21.3398 649.91 19.2179C653.79 17.0961 658.125 16.0352 662.914 16.0352C667.703 16.0352 672.038 17.0961 675.918 19.2179C679.798 21.3398 682.859 24.371 685.102 28.3115C687.345 32.2521 688.467 36.7686 688.467 41.861C688.467 46.9534 687.315 51.4699 685.011 55.4104C682.708 59.351 679.555 62.4125 675.554 64.595C671.613 66.7168 667.248 67.7777 662.459 67.7777ZM662.459 58.7751C665.127 58.7751 667.612 58.1385 669.916 56.8654C672.28 55.5923 674.19 53.6826 675.645 51.1364C677.1 48.5902 677.827 45.4984 677.827 41.861C677.827 38.2235 677.13 35.162 675.736 32.6764C674.341 30.1302 672.492 28.2206 670.189 26.9475C667.885 25.6744 665.399 25.0378 662.732 25.0378C660.065 25.0378 657.579 25.6744 655.275 26.9475C653.032 28.2206 651.244 30.1302 649.91 32.6764C648.576 35.162 647.909 38.2235 647.909 41.861C647.909 47.2565 649.273 51.4396 652.002 54.4101C654.79 57.3201 658.276 58.7751 662.459 58.7751Z" fill="#D53F8C"/>
<path d="M579.729 67.7777C575 67.7777 570.726 66.7168 566.907 64.595C563.087 62.4125 560.087 59.3813 557.904 55.5014C555.722 51.5608 554.63 47.014 554.63 41.861C554.63 36.7686 555.752 32.2521 557.995 28.3115C560.238 24.371 563.3 21.3398 567.18 19.2179C571.059 17.0961 575.394 16.0352 580.183 16.0352C584.973 16.0352 589.307 17.0961 593.187 19.2179C597.067 21.3398 600.129 24.371 602.372 28.3115C604.615 32.2521 605.736 36.7686 605.736 41.861C605.736 46.9534 604.585 51.4699 602.281 55.4104C599.977 59.351 596.825 62.4125 592.823 64.595C588.883 66.7168 584.518 67.7777 579.729 67.7777ZM579.729 58.7751C582.396 58.7751 584.882 58.1385 587.185 56.8654C589.55 55.5923 591.459 53.6826 592.914 51.1364C594.369 48.5902 595.097 45.4984 595.097 41.861C595.097 38.2235 594.4 35.162 593.005 32.6764C591.611 30.1302 589.762 28.2206 587.458 26.9475C585.155 25.6744 582.669 25.0378 580.002 25.0378C577.334 25.0378 574.848 25.6744 572.545 26.9475C570.302 28.2206 568.513 30.1302 567.18 32.6764C565.846 35.162 565.179 38.2235 565.179 41.861C565.179 47.2565 566.543 51.4396 569.271 54.4101C572.06 57.3201 575.546 58.7751 579.729 58.7751Z" fill="#D53F8C"/>
<path d="M538.009 18.4231C538.009 20.0178 540.455 20.8171 541.686 19.8041C542.407 19.2113 543.182 18.6824 544.011 18.2176C546.053 17.0505 548.388 16.3515 551.015 16.1206C552.116 16.0239 553.013 16.9306 553.013 18.0352V24.7656C553.013 25.8702 552.118 26.7656 551.013 26.7656H550.376C546.314 26.7656 543.222 27.7962 541.101 29.8574C539.039 31.9186 538.009 35.4955 538.009 40.5879V64.9593C538.009 66.0639 537.113 66.9593 536.009 66.9593H529.642C528.538 66.9593 527.642 66.0639 527.642 64.9593V18.8536C527.642 17.749 528.538 16.8536 529.642 16.8536H536.439C537.306 16.8536 538.009 17.5563 538.009 18.4231V18.4231Z" fill="#D53F8C"/>
<path d="M480.925 18.7143C480.925 20.4945 483.428 21.4535 484.864 20.4012C485.85 19.6791 486.931 19.0118 488.109 18.3995C491.14 16.8233 494.565 16.0352 498.385 16.0352C502.749 16.0352 506.72 17.1264 510.297 19.3088C513.935 21.4307 516.784 24.4316 518.845 28.3115C520.906 32.1914 521.937 36.6473 521.937 41.6791C521.937 46.7109 520.906 51.2274 518.845 55.2286C516.784 59.1691 513.935 62.2609 510.297 64.504C506.72 66.6865 502.749 67.7777 498.385 67.7777C494.565 67.7777 491.17 67.0199 488.2 65.5043C487.054 64.8965 485.99 64.2345 485.006 63.5184C483.486 62.4111 480.925 63.419 480.925 65.3V88.7845C480.925 89.8891 480.029 90.7845 478.925 90.7845H472.558C471.454 90.7845 470.558 89.8891 470.558 88.7845V18.8536C470.558 17.749 471.454 16.8536 472.558 16.8536H479.064C480.092 16.8536 480.925 17.6866 480.925 18.7143V18.7143ZM511.388 41.6791C511.388 38.2235 510.661 35.253 509.206 32.7674C507.812 30.2212 505.932 28.3115 503.568 27.0384C501.264 25.7047 498.779 25.0378 496.111 25.0378C493.504 25.0378 491.019 25.7047 488.654 27.0384C486.351 28.3721 484.471 30.3121 483.016 32.8583C481.622 35.4045 480.925 38.4054 480.925 41.861C480.925 45.3165 481.622 48.3477 483.016 50.9546C484.471 53.5008 486.351 55.4407 488.654 56.7745C491.019 58.1082 493.504 58.7751 496.111 58.7751C498.779 58.7751 501.264 58.1082 503.568 56.7745C505.932 55.3801 507.812 53.3795 509.206 50.7727C510.661 48.1659 511.388 45.1347 511.388 41.6791Z" fill="#D53F8C"/>
<path d="M625.437 25.2213C624.333 25.2213 623.437 26.1167 623.437 27.2213V52.9567C623.437 54.8361 623.862 56.2001 624.71 57.0488C625.62 57.837 627.135 58.231 629.257 58.231H633.623C634.727 58.231 635.623 59.1264 635.623 60.231V64.8699C635.623 65.9745 634.727 66.8699 633.623 66.8699H627.439C622.77 66.8699 619.194 65.7787 616.708 63.5962C614.222 61.4138 612.98 57.8673 612.98 52.9567V27.2213C612.98 26.1167 612.084 25.2213 610.98 25.2213H609.069C607.964 25.2213 607.069 24.3258 607.069 23.2213V18.7642C607.069 17.6596 607.964 16.7642 609.069 16.7642H610.98C612.084 16.7642 612.98 15.8688 612.98 14.7642V2C612.98 0.895429 613.875 0 614.98 0H621.437C622.542 0 623.437 0.89543 623.437 2V14.7642C623.437 15.8688 624.333 16.7642 625.437 16.7642H633.623C634.727 16.7642 635.623 17.6596 635.623 18.7642V23.2213C635.623 24.3258 634.727 25.2213 633.623 25.2213H625.437Z" fill="#D53F8C"/>
<path d="M307.473 16.1289C320.33 16.1289 328.571 26.1809 325.854 41.8446C323.047 57.5083 311.187 67.9207 298.421 67.9207C290.542 67.9207 285.562 64.0266 283.208 59.9523L279.595 80.6215C279.176 83.0127 277.928 85.1796 276.069 86.7414C274.211 88.3032 271.861 89.1598 269.434 89.1606H266.258C266.145 89.1607 266.034 89.1361 265.931 89.0885C265.829 89.0409 265.738 88.9714 265.666 88.885C265.593 88.7986 265.54 88.6973 265.511 88.5883C265.482 88.4793 265.477 88.3652 265.496 88.254L277.937 17.5844C277.968 17.405 278.062 17.2424 278.201 17.1255C278.341 17.0085 278.517 16.9447 278.699 16.9454H289.895C290.008 16.9452 290.12 16.9698 290.222 17.0175C290.324 17.0651 290.415 17.1346 290.487 17.2211C290.559 17.3076 290.612 17.4089 290.641 17.5179C290.67 17.627 290.674 17.741 290.654 17.852L289.546 24.1874C291.801 21.6611 294.563 19.6379 297.652 18.2495C300.74 16.8611 304.087 16.1386 307.473 16.1289V16.1289ZM302.222 27.2677C295.431 27.2677 288.022 32.519 286.384 42.0139C284.663 51.5224 290.095 56.76 296.976 56.76C303.858 56.76 311.192 51.3258 312.913 41.82C314.538 32.336 309.112 27.2677 302.225 27.2677H302.222Z" fill="#2F2D32"/>
<path d="M350.316 0.355469H339.1C338.924 0.355967 338.754 0.418316 338.619 0.531622C338.484 0.644928 338.394 0.801986 338.363 0.975354L326.861 66.107C326.841 66.2201 326.846 66.3363 326.876 66.4473C326.906 66.5583 326.96 66.6614 327.033 66.7494C327.107 66.8374 327.2 66.9081 327.304 66.9566C327.408 67.0051 327.522 67.0301 327.637 67.03H338.852C339.028 67.0301 339.198 66.9683 339.333 66.8555C339.468 66.7426 339.558 66.5859 339.589 66.4128L351.091 1.2812C351.111 1.16788 351.106 1.05159 351.076 0.940456C351.046 0.829324 350.993 0.726044 350.919 0.637853C350.845 0.549661 350.753 0.47869 350.648 0.429911C350.544 0.381131 350.431 0.355724 350.316 0.355469V0.355469Z" fill="#2F2D32"/>
<path d="M401.102 16.8086H390.007C389.822 16.8089 389.643 16.8741 389.502 16.9929C389.36 17.1117 389.264 17.2765 389.232 17.4585L384.453 44.4576C383.087 52.5271 377.836 56.8772 371.037 56.8772C364.237 56.8772 360.611 52.5271 361.971 44.4576L366.703 17.7371C366.723 17.6234 366.718 17.5067 366.688 17.3953C366.658 17.2838 366.604 17.1802 366.53 17.0918C366.456 17.0033 366.363 16.9322 366.259 16.8833C366.154 16.8343 366.04 16.8089 365.925 16.8086H354.832C354.648 16.8084 354.47 16.8733 354.329 16.9917C354.188 17.1101 354.094 17.2745 354.062 17.4558L349.008 46.2709C347.162 56.6669 350.736 63.5539 357.661 66.3065L357.713 66.3311L357.861 66.383C358.451 66.6082 359.052 66.8014 359.663 66.9619C364.172 68.2454 371.405 68.9882 381.105 63.2972L380.622 66.1127C380.602 66.2253 380.607 66.3408 380.637 66.4511C380.667 66.5615 380.721 66.6639 380.794 66.7513C380.868 66.8388 380.96 66.909 381.063 66.9572C381.167 67.0054 381.28 67.0303 381.394 67.0302H392.495C392.679 67.03 392.858 66.9652 393 66.8469C393.141 66.7287 393.237 66.5645 393.27 66.383L401.875 17.7316C401.895 17.6186 401.89 17.5027 401.86 17.3919C401.831 17.2811 401.777 17.1781 401.703 17.0902C401.63 17.0022 401.538 16.9315 401.434 16.8828C401.33 16.8342 401.217 16.8088 401.102 16.8086V16.8086Z" fill="#2F2D32"/>
<path d="M425.168 15.9922C413.019 15.9922 404.77 22.2484 404.77 31.1343C404.77 47.4507 429.699 44.911 429.699 53.0706C429.699 56.6206 425.802 58.2372 421.269 58.2372C416.252 58.2372 413.229 55.6839 413.172 51.9264C413.168 51.7226 413.083 51.5287 412.937 51.3866C412.791 51.2446 412.595 51.1658 412.391 51.1672H401.572C401.378 51.1659 401.191 51.2359 401.046 51.3638C400.901 51.4918 400.808 51.6688 400.785 51.8609C399.846 61.282 408.593 67.8468 420.362 67.8468C432.692 67.8468 441.935 62.2269 441.935 52.7074C441.935 37.1147 417.186 39.201 417.186 30.7711C417.186 27.598 420.269 25.6018 424.619 25.6018C429.636 25.6018 432.498 28.0595 432.539 31.817C432.542 32.0222 432.626 32.2178 432.773 32.3614C432.92 32.505 433.117 32.5851 433.322 32.5843H443.563C443.763 32.5855 443.955 32.5105 444.102 32.3746C444.249 32.2386 444.338 32.0519 444.352 31.8525C444.895 22.5406 437.102 15.9922 425.168 15.9922Z" fill="#2F2D32"/>
<path d="M95.744 22.8925H88.8516V17.5402H95.744V0.355469H102.183V17.5402H115.774V22.8925H102.183V53.6328C102.183 59.7088 104.267 61.6121 109.979 61.6121H115.774V67.0545H108.983C100.367 67.0545 95.744 63.5182 95.744 53.6328V22.8925Z" fill="#2F2D32"/>
<path d="M122.303 17.5391H128.652V67.0534H122.303V17.5391Z" fill="#2F2D32"/>
<path d="M207.871 38.7602C207.871 27.788 202.159 22.1654 193.363 22.1654C184.384 22.1654 178.035 28.1485 178.035 40.2239V67.0674H171.779V38.7602C171.779 27.788 165.976 22.1654 157.18 22.1654C148.111 22.1654 141.855 28.1485 141.855 40.2103V67.0538H135.506V17.5394H141.855V26.0649C145.028 19.806 151.285 16.6328 158.267 16.6328C166.519 16.6328 173.592 20.5324 176.585 28.7847C179.316 20.7126 186.56 16.6328 194.45 16.6328C205.422 16.6328 214.127 23.5253 214.127 38.0339V67.0538H207.871V38.7602Z" fill="#2F2D32"/>
<path d="M243.48 67.778C229.425 67.778 219.177 57.9855 219.177 42.2972C219.177 26.5188 229.242 16.8164 243.48 16.8164C257.992 16.8164 266.878 27.1524 266.878 39.7549C266.913 41.42 266.852 43.0857 266.697 44.744H225.619C226.165 56.3498 234.231 62.4257 243.48 62.4257C251.916 62.4257 257.628 57.9828 259.442 51.3634H266.151C263.885 60.7053 255.905 67.778 243.48 67.778ZM225.619 39.5774H260.438C260.712 28.059 252.369 22.2561 243.21 22.2561C234.231 22.2561 226.342 28.059 225.619 39.5774Z" fill="#2F2D32"/>
<path d="M121.536 6.94209L122.658 0.355469H128.939L127.817 6.94209H121.536Z" fill="#2F2D32"/>
<path d="M51.64 41.9538C51.6397 38.2281 50.8318 34.5467 49.2718 31.1632C47.7119 27.7798 45.437 24.7747 42.6038 22.3551C42.3089 22.2623 42.0113 22.1712 41.7109 22.082C39.8454 22.5807 38.06 23.341 36.4077 24.3404C39.4469 26.1649 41.9619 28.7452 43.7081 31.8302C45.4542 34.9151 46.3719 38.3995 46.3719 41.9443C46.3719 45.4891 45.4542 48.9735 43.7081 52.0584C41.9619 55.1433 39.4469 57.7236 36.4077 59.5482C38.0595 60.5478 39.8451 61.3073 41.7109 61.8038C42.0113 61.7246 42.3089 61.6372 42.6038 61.5444C45.4358 59.1256 47.71 56.1218 49.2699 52.7399C50.8298 49.358 51.6384 45.6782 51.64 41.9538Z" fill="#F2DBF3"/>
<path d="M5.25782 41.9538C5.26386 37.584 6.6596 33.3295 9.24319 29.8053C11.8268 26.2811 15.4643 23.67 19.6298 22.3496C22.9216 19.5218 26.8741 17.5709 31.1208 16.6778C27.3617 15.8901 23.4742 15.9509 19.7415 16.8556C16.0088 17.7603 12.525 19.4863 9.54364 21.9077C6.56232 24.3291 4.15863 27.385 2.50766 30.8528C0.856687 34.3206 0 38.113 0 41.9538C0 45.7946 0.856687 49.587 2.50766 53.0548C4.15863 56.5226 6.56232 59.5785 9.54364 61.9999C12.525 64.4213 16.0088 66.1473 19.7415 67.052C23.4742 67.9567 27.3617 68.0175 31.1208 67.2298C26.8814 66.3343 22.9365 64.3835 19.6516 61.558C15.4819 60.2418 11.8393 57.6324 9.25148 54.1078C6.66365 50.5832 5.26491 46.3264 5.25782 41.9538V41.9538Z" fill="#F2DBF3"/>
<path d="M62.2513 41.9529C62.251 38.2256 61.4423 34.5426 59.8809 31.1581C58.3194 27.7736 56.0425 24.768 53.207 22.3487C49.4812 21.1758 45.4986 21.0868 41.7241 22.092C46.1005 23.2587 49.969 25.8382 52.7285 29.4297C55.488 33.0213 56.984 37.4237 56.984 41.9529C56.984 46.4821 55.488 50.8846 52.7285 54.4761C49.969 58.0676 46.1005 60.6471 41.7241 61.8138C45.4982 62.8228 49.4818 62.7338 53.207 61.5571C56.0429 59.1381 58.3202 56.1326 59.8816 52.748C61.4431 49.3634 62.2516 45.6803 62.2513 41.9529V41.9529Z" fill="#EA9FCC"/>
<path d="M30.2278 61.558C26.0595 60.2425 22.4189 57.6327 19.8348 54.1074C17.2506 50.5821 15.8574 46.3248 15.8574 41.9538C15.8574 37.5828 17.2506 33.3255 19.8348 29.8002C22.4189 26.2749 26.0595 23.6651 30.2278 22.3496C33.5173 19.523 37.4668 17.5722 41.7106 16.6778C37.9515 15.8901 34.064 15.9509 30.3313 16.8556C26.5987 17.7603 23.1148 19.4863 20.1335 21.9077C17.1522 24.3291 14.7485 27.385 13.0975 30.8528C11.4465 34.3206 10.5898 38.113 10.5898 41.9538C10.5898 45.7946 11.4465 49.587 13.0975 53.0548C14.7485 56.5226 17.1522 59.5785 20.1335 61.9999C23.1148 64.4213 26.5987 66.1473 30.3313 67.052C34.064 67.9567 37.9515 68.0175 41.7106 67.2298C37.4664 66.3365 33.5166 64.3856 30.2278 61.558V61.558Z" fill="#EA9FCC"/>
<path d="M47.0108 16.1289C41.9031 16.1289 36.9102 17.6435 32.6633 20.4812C28.4165 23.3189 25.1064 27.3522 23.1518 32.071C21.1972 36.7899 20.6858 41.9825 21.6823 46.992C22.6787 52.0015 25.1383 56.6031 28.7499 60.2148C32.3616 63.8264 36.9631 66.286 41.9726 67.2825C46.9821 68.2789 52.1746 67.7675 56.8935 65.8129C61.6123 63.8583 65.6456 60.5482 68.4832 56.3013C71.3209 52.0545 72.8355 47.0615 72.8355 41.9538C72.8275 35.1071 70.1042 28.543 65.2628 23.7016C60.4215 18.8602 53.8575 16.1369 47.0108 16.1289V16.1289ZM67.5651 41.9538C67.5657 46.0199 66.3604 49.9948 64.1018 53.3758C61.8431 56.7569 58.6326 59.3922 54.8762 60.9484C51.1197 62.5047 46.9862 62.912 42.9982 62.1189C39.0103 61.3258 35.3471 59.3678 32.472 56.4927C29.5968 53.6176 27.6389 49.9543 26.8458 45.9664C26.0527 41.9784 26.46 37.8448 28.0163 34.0884C29.5725 30.3319 32.2078 27.1213 35.5888 24.8627C38.9698 22.604 42.9447 21.3988 47.0108 21.3993C52.4601 21.4058 57.6844 23.5734 61.5377 27.4268C65.391 31.2801 67.5586 36.5044 67.5651 41.9538V41.9538Z" fill="#FF244E"/>
<defs>
<linearGradient id="paint0_linear_19_252" x1="64.4309" y1="41.9538" x2="-0.59422" y2="41.9538" gradientUnits="userSpaceOnUse">
<stop stop-color="#D53C97"/>
<stop offset="0.52" stop-color="#AC1BB5"/>
<stop offset="1" stop-color="#8934D9"/>
</linearGradient>
<linearGradient id="paint1_linear_19_252" x1="148.691" y1="30.8742" x2="40.7487" y2="30.8742" gradientUnits="userSpaceOnUse">
<stop stop-color="#D53C97"/>
<stop offset="0.52" stop-color="#AC1BB5"/>
<stop offset="1" stop-color="#8934D9"/>
</linearGradient>
<linearGradient id="paint2_linear_19_252" x1="64.4305" y1="41.9538" x2="-0.594183" y2="41.9538" gradientUnits="userSpaceOnUse">
<stop stop-color="#D53C97"/>
<stop offset="0.52" stop-color="#AC1BB5"/>
<stop offset="1" stop-color="#8934D9"/>
</linearGradient>
<linearGradient id="paint3_linear_19_252" x1="148.682" y1="87.6491" x2="40.7404" y2="87.6491" gradientUnits="userSpaceOnUse">
<stop stop-color="#D53C97"/>
<stop offset="0.52" stop-color="#AC1BB5"/>
<stop offset="1" stop-color="#8934D9"/>
</linearGradient>
<linearGradient id="paint4_linear_19_252" x1="64.4305" y1="41.9529" x2="-0.594624" y2="41.9529" gradientUnits="userSpaceOnUse">
<stop stop-color="#FF3B65"/>
<stop offset="0.61" stop-color="#F9597C"/>
<stop offset="1" stop-color="#D53C97"/>
</linearGradient>
<linearGradient id="paint5_linear_19_252" x1="64.4305" y1="41.9538" x2="-0.594197" y2="41.9538" gradientUnits="userSpaceOnUse">
<stop stop-color="#FF3B65"/>
<stop offset="0.61" stop-color="#F9597C"/>
<stop offset="1" stop-color="#D53C97"/>
</linearGradient>
</defs>
</svg>
