<svg width="740" height="91" viewBox="0 0 740 91" fill="none" xmlns="http://www.w3.org/2000/svg">
<path d="M307.473 16.1289C320.329 16.1289 328.57 26.1809 325.853 41.8445C323.046 57.5082 311.186 67.9207 298.42 67.9207C290.542 67.9207 285.561 64.0266 283.207 59.9523L279.594 80.6215C279.176 83.0126 277.927 85.1795 276.069 86.7413C274.21 88.3031 271.861 89.1597 269.433 89.1606H266.257C266.145 89.1607 266.033 89.1361 265.931 89.0884C265.828 89.0408 265.738 88.9714 265.665 88.8849C265.592 88.7985 265.54 88.6973 265.51 88.5882C265.481 88.4792 265.476 88.3651 265.496 88.2539L277.937 17.5844C277.968 17.405 278.061 17.2424 278.201 17.1255C278.34 17.0085 278.517 16.9447 278.699 16.9454H289.895C290.008 16.9452 290.119 16.9698 290.221 17.0175C290.324 17.0651 290.414 17.1346 290.486 17.2211C290.559 17.3076 290.611 17.4089 290.64 17.5179C290.669 17.627 290.674 17.741 290.654 17.852L289.545 24.1874C291.8 21.6611 294.562 19.6379 297.651 18.2495C300.74 16.8611 304.086 16.1386 307.473 16.1289V16.1289ZM302.221 27.2677C295.43 27.2677 288.022 32.519 286.383 42.0139C284.663 51.5224 290.094 56.76 296.976 56.76C303.857 56.76 311.192 51.3258 312.912 41.82C314.537 32.336 309.111 27.2677 302.224 27.2677H302.221Z" fill="white"/>
<path d="M350.316 0.351562H339.1C338.924 0.352061 338.754 0.41441 338.619 0.527716C338.484 0.641021 338.394 0.798079 338.363 0.971447L326.861 66.103C326.841 66.2162 326.846 66.3324 326.876 66.4434C326.906 66.5544 326.96 66.6575 327.033 66.7455C327.107 66.8335 327.2 66.9042 327.304 66.9526C327.408 67.0011 327.522 67.0261 327.637 67.026H338.852C339.028 67.0261 339.198 66.9644 339.333 66.8515C339.468 66.7387 339.558 66.5819 339.589 66.4088L351.091 1.27729C351.111 1.16398 351.106 1.04768 351.076 0.936549C351.046 0.825417 350.993 0.722138 350.919 0.633946C350.845 0.545754 350.753 0.474783 350.648 0.426004C350.544 0.377225 350.431 0.351818 350.316 0.351563V0.351562Z" fill="white"/>
<path d="M401.102 16.8086H390.007C389.822 16.8089 389.643 16.8741 389.501 16.9929C389.36 17.1117 389.264 17.2765 389.232 17.4585L384.453 44.4576C383.087 52.527 377.836 56.8772 371.037 56.8772C364.237 56.8772 360.611 52.527 361.97 44.4576L366.703 17.7371C366.723 17.6234 366.718 17.5067 366.688 17.3953C366.658 17.2838 366.604 17.1802 366.53 17.0918C366.456 17.0033 366.363 16.9322 366.259 16.8833C366.154 16.8343 366.04 16.8089 365.925 16.8086H354.832C354.648 16.8084 354.47 16.8733 354.329 16.9917C354.188 17.1101 354.094 17.2745 354.062 17.4558L349.008 46.2708C347.162 56.6669 350.736 63.5539 357.661 66.3065L357.713 66.3311L357.861 66.383C358.451 66.6081 359.052 66.8014 359.663 66.9619C364.171 68.2453 371.405 68.9881 381.105 63.2972L380.622 66.1126C380.602 66.2252 380.607 66.3408 380.637 66.4511C380.667 66.5614 380.721 66.6639 380.794 66.7513C380.868 66.8387 380.96 66.909 381.063 66.9572C381.167 67.0053 381.28 67.0302 381.394 67.0301H392.495C392.679 67.03 392.858 66.9651 393 66.8469C393.141 66.7286 393.237 66.5645 393.27 66.383L401.875 17.7316C401.895 17.6186 401.89 17.5027 401.86 17.3919C401.831 17.2811 401.777 17.1781 401.703 17.0902C401.63 17.0022 401.538 16.9315 401.434 16.8828C401.33 16.8342 401.217 16.8088 401.102 16.8086V16.8086Z" fill="white"/>
<path d="M425.169 15.9883C413.02 15.9883 404.77 22.2445 404.77 31.1304C404.77 47.4467 429.699 44.9071 429.699 53.0666C429.699 56.6166 425.802 58.2333 421.269 58.2333C416.253 58.2333 413.23 55.68 413.173 51.9225C413.168 51.7187 413.084 51.5248 412.938 51.3827C412.792 51.2406 412.595 51.1618 412.392 51.1633H401.572C401.379 51.162 401.192 51.2319 401.047 51.3599C400.902 51.4879 400.809 51.6648 400.786 51.8569C399.847 61.2781 408.593 67.8428 420.363 67.8428C432.692 67.8428 441.936 62.2229 441.936 52.7035C441.936 37.1108 417.187 39.1971 417.187 30.7672C417.187 27.594 420.27 25.5979 424.62 25.5979C429.636 25.5979 432.498 28.0555 432.539 31.8131C432.543 32.0183 432.627 32.2139 432.774 32.3575C432.92 32.5011 433.118 32.5812 433.323 32.5804H443.563C443.763 32.5816 443.956 32.5066 444.102 32.3706C444.249 32.2347 444.338 32.048 444.352 31.8486C444.896 22.5367 437.102 15.9883 425.169 15.9883Z" fill="white"/>
<path d="M95.744 22.8886H88.8516V17.5363H95.744V0.351562H102.183V17.5363H115.774V22.8886H102.183V53.6288C102.183 59.7048 104.267 61.6081 109.979 61.6081H115.774V67.0506H108.983C100.367 67.0506 95.744 63.5142 95.744 53.6288V22.8886Z" fill="white"/>
<path d="M122.304 17.5391H128.653V67.0534H122.304V17.5391Z" fill="white"/>
<path d="M207.872 38.7602C207.872 27.788 202.159 22.1653 193.363 22.1653C184.385 22.1653 178.036 28.1485 178.036 40.2239V67.0674H171.779V38.7602C171.779 27.788 165.977 22.1653 157.181 22.1653C148.112 22.1653 141.856 28.1485 141.856 40.2103V67.0537H135.507V17.5394H141.856V26.0649C145.029 19.806 151.285 16.6328 158.268 16.6328C166.52 16.6328 173.593 20.5323 176.585 28.7847C179.316 20.7126 186.561 16.6328 194.45 16.6328C205.422 16.6328 214.128 23.5253 214.128 38.0338V67.0537H207.872V38.7602Z" fill="white"/>
<path d="M243.48 67.778C229.425 67.778 219.177 57.9855 219.177 42.2972C219.177 26.5188 229.242 16.8164 243.48 16.8164C257.992 16.8164 266.878 27.1524 266.878 39.7549C266.913 41.42 266.852 43.0857 266.697 44.744H225.619C226.165 56.3497 234.231 62.4257 243.48 62.4257C251.916 62.4257 257.628 57.9827 259.442 51.3634H266.151C263.885 60.7053 255.905 67.778 243.48 67.778ZM225.619 39.5774H260.438C260.711 28.059 252.369 22.2561 243.21 22.2561C234.231 22.2561 226.342 28.059 225.619 39.5774Z" fill="white"/>
<path d="M121.536 6.93817L122.658 0.351562H128.939L127.817 6.93817H121.536Z" fill="white"/>
<path d="M51.6399 41.9538C51.6397 38.2281 50.8318 34.5467 49.2718 31.1632C47.7119 27.7798 45.437 24.7747 42.6038 22.3551C42.3089 22.2623 42.0112 22.1712 41.7109 22.082C39.8454 22.5807 38.06 23.341 36.4077 24.3404C39.4469 26.1649 41.9619 28.7452 43.7081 31.8301C45.4542 34.9151 46.3719 38.3995 46.3719 41.9443C46.3719 45.4891 45.4542 48.9735 43.7081 52.0584C41.9619 55.1433 39.4469 57.7236 36.4077 59.5482C38.0595 60.5478 39.8451 61.3073 41.7109 61.8038C42.0112 61.7246 42.3089 61.6372 42.6038 61.5444C45.4358 59.1255 47.7099 56.1218 49.2699 52.7398C50.8298 49.3579 51.6383 45.6782 51.6399 41.9538Z" fill="url(#paint0_linear_18_265)"/>
<path d="M42.1725 21.9883L41.7192 22.1002C41.864 22.0566 42.0196 22.0265 42.1725 21.9883Z" fill="url(#paint1_linear_18_265)"/>
<path d="M5.2583 41.9538C5.26435 37.584 6.66008 33.3294 9.24367 29.8053C11.8273 26.2811 15.4648 23.67 19.6302 22.3496C22.922 19.5218 26.8745 17.5709 31.1212 16.6778C27.3621 15.8901 23.4746 15.9509 19.742 16.8556C16.0093 17.7603 12.5254 19.4863 9.54412 21.9076C6.5628 24.329 4.15912 27.3849 2.50815 30.8528C0.857174 34.3206 0.000488281 38.113 0.000488281 41.9538C0.000488281 45.7945 0.857174 49.587 2.50815 53.0548C4.15912 56.5226 6.5628 59.5785 9.54412 61.9999C12.5254 64.4213 16.0093 66.1472 19.742 67.0519C23.4746 67.9567 27.3621 68.0174 31.1212 67.2298C26.8819 66.3343 22.937 64.3835 19.6521 61.558C15.4823 60.2417 11.8398 57.6324 9.25195 54.1078C6.66414 50.5832 5.26539 46.3264 5.2583 41.9538V41.9538Z" fill="url(#paint2_linear_18_265)"/>
<path d="M41.7109 61.8125C41.8611 61.8535 42.0141 61.889 42.1642 61.9272C42.0195 61.8835 41.8639 61.8535 41.7109 61.8125Z" fill="url(#paint3_linear_18_265)"/>
<path d="M62.2523 41.949C62.252 38.2217 61.4433 34.5387 59.8818 31.1542C58.3204 27.7697 56.0434 24.7641 53.208 22.3448C49.4822 21.1719 45.4996 21.0829 41.7251 22.0881C46.1015 23.2548 49.97 25.8343 52.7295 29.4258C55.489 33.0173 56.985 37.4198 56.985 41.949C56.985 46.4782 55.489 50.8806 52.7295 54.4722C49.97 58.0637 46.1015 60.6432 41.7251 61.8099C45.4992 62.8189 49.4828 62.7298 53.208 61.5532C56.0439 59.1342 58.3211 56.1287 59.8826 52.7441C61.4441 49.3595 62.2526 45.6764 62.2523 41.949V41.949Z" fill="url(#paint4_linear_18_265)"/>
<path d="M30.2278 61.558C26.0594 60.2425 22.4189 57.6326 19.8347 54.1073C17.2506 50.582 15.8574 46.3248 15.8574 41.9538C15.8574 37.5828 17.2506 33.3255 19.8347 29.8002C22.4189 26.2749 26.0594 23.6651 30.2278 22.3496C33.5173 19.523 37.4668 17.5722 41.7106 16.6778C37.9515 15.8901 34.064 15.9509 30.3313 16.8556C26.5987 17.7603 23.1148 19.4863 20.1335 21.9076C17.1522 24.329 14.7485 27.3849 13.0975 30.8528C11.4465 34.3206 10.5898 38.113 10.5898 41.9538C10.5898 45.7945 11.4465 49.587 13.0975 53.0548C14.7485 56.5226 17.1522 59.5785 20.1335 61.9999C23.1148 64.4213 26.5987 66.1472 30.3313 67.0519C34.064 67.9567 37.9515 68.0174 41.7106 67.2298C37.4664 66.3365 33.5166 64.3855 30.2278 61.558V61.558Z" fill="url(#paint5_linear_18_265)"/>
<path d="M47.0112 16.1289C41.9036 16.1289 36.9107 17.6435 32.6638 20.4812C28.417 23.3189 25.1069 27.3521 23.1523 32.071C21.1977 36.7899 20.6863 41.9824 21.6827 46.992C22.6792 52.0015 25.1388 56.6031 28.7504 60.2147C32.3621 63.8264 36.9636 66.286 41.9731 67.2824C46.9826 68.2789 52.1751 67.7675 56.8939 65.8129C61.6128 63.8582 65.646 60.5482 68.4837 56.3013C71.3213 52.0544 72.8359 47.0615 72.8359 41.9538C72.828 35.107 70.1046 28.543 65.2633 23.7016C60.4219 18.8602 53.8579 16.1369 47.0112 16.1289V16.1289ZM67.5656 41.9538C67.5661 46.0198 66.3609 49.9948 64.1022 53.3758C61.8436 56.7568 58.633 59.3921 54.8766 60.9484C51.1202 62.5047 46.9866 62.912 42.9987 62.1189C39.0107 61.3257 35.3476 59.3678 32.4725 56.4927C29.5973 53.6175 27.6394 49.9543 26.8463 45.9664C26.0532 41.9784 26.4605 37.8448 28.0168 34.0883C29.573 30.3319 32.2083 27.1213 35.5893 24.8627C38.9703 22.604 42.9452 21.3987 47.0112 21.3993C52.4606 21.4058 57.6849 23.5734 61.5382 27.4267C65.3915 31.28 67.5591 36.5044 67.5656 41.9538V41.9538Z" fill="white"/>
<path d="M719.449 16.0352C723.389 16.0352 726.905 16.8536 729.997 18.4904C733.15 20.1273 735.605 22.5522 737.363 25.7653C739.121 28.9784 740 32.8583 740 37.4051V66.604C740 66.8002 739.841 66.9593 739.645 66.9593H730.08C729.883 66.9593 729.724 66.8002 729.724 66.604V38.951C729.724 34.4648 728.603 31.0396 726.36 28.6752C724.117 26.2503 721.055 25.0378 717.175 25.0378C713.295 25.0378 710.203 26.2503 707.9 28.6752C705.657 31.0396 704.535 34.4648 704.535 38.951V66.604C704.535 66.8002 704.376 66.9593 704.18 66.9593H694.524C694.327 66.9593 694.168 66.8002 694.168 66.604V17.2088C694.168 17.0126 694.327 16.8536 694.524 16.8536H704.18C704.376 16.8536 704.535 17.0126 704.535 17.2088V21.5924C704.535 21.9257 704.96 22.0816 705.187 21.8374C706.773 20.1303 708.708 18.7721 710.992 17.7629C713.659 16.6111 716.478 16.0352 719.449 16.0352Z" fill="#ED64A6"/>
<path d="M662.459 67.7777C657.73 67.7777 653.457 66.7168 649.637 64.5949C645.818 62.4125 642.817 59.3813 640.635 55.5013C638.452 51.5608 637.361 47.014 637.361 41.8609C637.361 36.7685 638.482 32.2521 640.725 28.3115C642.969 24.3709 646.03 21.3397 649.91 19.2179C653.79 17.0961 658.125 16.0352 662.914 16.0352C667.703 16.0352 672.038 17.0961 675.918 19.2179C679.798 21.3397 682.859 24.3709 685.102 28.3115C687.345 32.2521 688.467 36.7685 688.467 41.8609C688.467 46.9534 687.315 51.4698 685.011 55.4104C682.708 59.351 679.555 62.4125 675.554 64.5949C671.613 66.7168 667.248 67.7777 662.459 67.7777ZM662.459 58.775C665.127 58.775 667.612 58.1385 669.916 56.8654C672.28 55.5923 674.19 53.6826 675.645 51.1364C677.1 48.5902 677.827 45.4984 677.827 41.8609C677.827 38.2235 677.13 35.162 675.736 32.6764C674.341 30.1302 672.492 28.2206 670.189 26.9475C667.885 25.6744 665.399 25.0378 662.732 25.0378C660.064 25.0378 657.579 25.6744 655.275 26.9475C653.032 28.2206 651.244 30.1302 649.91 32.6764C648.576 35.162 647.909 38.2235 647.909 41.8609C647.909 47.2565 649.273 51.4395 652.002 54.4101C654.79 57.3201 658.276 58.775 662.459 58.775Z" fill="#ED64A6"/>
<path d="M579.729 67.7777C575 67.7777 570.726 66.7168 566.907 64.5949C563.087 62.4125 560.087 59.3813 557.904 55.5013C555.722 51.5608 554.63 47.014 554.63 41.8609C554.63 36.7685 555.752 32.2521 557.995 28.3115C560.238 24.3709 563.3 21.3397 567.18 19.2179C571.059 17.0961 575.394 16.0352 580.183 16.0352C584.973 16.0352 589.307 17.0961 593.187 19.2179C597.067 21.3397 600.129 24.3709 602.372 28.3115C604.615 32.2521 605.736 36.7685 605.736 41.8609C605.736 46.9534 604.584 51.4698 602.281 55.4104C599.977 59.351 596.825 62.4125 592.823 64.5949C588.883 66.7168 584.518 67.7777 579.729 67.7777ZM579.729 58.775C582.396 58.775 584.882 58.1385 587.185 56.8654C589.55 55.5923 591.459 53.6826 592.914 51.1364C594.369 48.5902 595.097 45.4984 595.097 41.8609C595.097 38.2235 594.4 35.162 593.005 32.6764C591.611 30.1302 589.762 28.2206 587.458 26.9475C585.155 25.6744 582.669 25.0378 580.001 25.0378C577.334 25.0378 574.848 25.6744 572.545 26.9475C570.302 28.2206 568.513 30.1302 567.18 32.6764C565.846 35.162 565.179 38.2235 565.179 41.8609C565.179 47.2565 566.543 51.4395 569.271 54.4101C572.06 57.3201 575.546 58.775 579.729 58.775Z" fill="#ED64A6"/>
<path d="M538.008 22.8372C538.008 23.1981 538.501 23.3393 538.708 23.0433C540.122 21.0156 541.89 19.4071 544.01 18.2176C546.469 16.8127 549.351 16.0861 552.657 16.0377C552.854 16.0349 553.013 16.1942 553.013 16.3904V26.4104C553.013 26.6066 552.854 26.7656 552.657 26.7656H550.376C546.314 26.7656 543.222 27.7962 541.1 29.8574C539.039 31.9186 538.008 35.4954 538.008 40.5878V66.604C538.008 66.8002 537.849 66.9593 537.653 66.9593H527.997C527.801 66.9593 527.642 66.8002 527.642 66.604V17.2088C527.642 17.0126 527.801 16.8536 527.997 16.8536H537.653C537.849 16.8536 538.008 17.0126 538.008 17.2088V22.8372Z" fill="#ED64A6"/>
<path d="M480.925 23.1684C480.925 23.5083 481.366 23.661 481.588 23.4036C483.269 21.4541 485.443 19.786 488.109 18.3995C491.14 16.8233 494.566 16.0352 498.385 16.0352C502.75 16.0352 506.721 17.1264 510.298 19.3088C513.935 21.4307 516.784 24.4316 518.846 28.3115C520.907 32.1914 521.937 36.6473 521.937 41.6791C521.937 46.7109 520.907 51.2273 518.846 55.2285C516.784 59.1691 513.935 62.2609 510.298 64.504C506.721 66.6864 502.75 67.7777 498.385 67.7777C494.566 67.7777 491.171 67.0199 488.2 65.5043C485.561 64.1038 483.352 62.4162 481.574 60.4415C481.351 60.1932 480.925 60.3477 480.925 60.6817V90.4292C480.925 90.6254 480.766 90.7845 480.57 90.7845H470.914C470.718 90.7845 470.559 90.6254 470.559 90.4292V17.2088C470.559 17.0126 470.718 16.8536 470.914 16.8536H480.57C480.766 16.8536 480.925 17.0126 480.925 17.2088V23.1684ZM511.389 41.6791C511.389 38.2235 510.661 35.2529 509.206 32.7674C507.812 30.2211 505.933 28.3115 503.568 27.0384C501.265 25.7047 498.779 25.0378 496.112 25.0378C493.505 25.0378 491.019 25.7047 488.655 27.0384C486.351 28.3721 484.472 30.3121 483.017 32.8583C481.622 35.4045 480.925 38.4054 480.925 41.8609C480.925 45.3165 481.622 48.3477 483.017 50.9545C484.472 53.5007 486.351 55.4407 488.655 56.7744C491.019 58.1082 493.505 58.775 496.112 58.775C498.779 58.775 501.265 58.1082 503.568 56.7744C505.933 55.3801 507.812 53.3795 509.206 50.7727C510.661 48.1658 511.389 45.1346 511.389 41.6791Z" fill="#ED64A6"/>
<path d="M623.792 25.2212C623.596 25.2212 623.437 25.3803 623.437 25.5765V52.9567C623.437 54.836 623.861 56.2001 624.71 57.0488C625.619 57.8369 627.135 58.231 629.257 58.231H635.267C635.463 58.231 635.622 58.39 635.622 58.5862V66.5147C635.622 66.7108 635.463 66.8699 635.267 66.8699H627.438C622.77 66.8699 619.193 65.7786 616.708 63.5962C614.222 61.4137 612.979 57.8672 612.979 52.9567V25.5765C612.979 25.3803 612.82 25.2212 612.624 25.2212H607.424C607.227 25.2212 607.068 25.0622 607.068 24.866V17.1194C607.068 16.9232 607.227 16.7642 607.424 16.7642H612.624C612.82 16.7642 612.979 16.6052 612.979 16.409V0.355218C612.979 0.159037 613.138 0 613.334 0H623.082C623.278 0 623.437 0.159037 623.437 0.355218V16.409C623.437 16.6052 623.596 16.7642 623.792 16.7642H635.267C635.463 16.7642 635.622 16.9232 635.622 17.1194V24.866C635.622 25.0622 635.463 25.2212 635.267 25.2212H623.792Z" fill="#ED64A6"/>
<defs>
<linearGradient id="paint0_linear_18_265" x1="64.4309" y1="41.9538" x2="-0.594188" y2="41.9538" gradientUnits="userSpaceOnUse">
<stop stop-color="#D53C97"/>
<stop offset="0.52" stop-color="#AC1BB5"/>
<stop offset="1" stop-color="#8934D9"/>
</linearGradient>
<linearGradient id="paint1_linear_18_265" x1="148.691" y1="30.8781" x2="40.7492" y2="30.8781" gradientUnits="userSpaceOnUse">
<stop stop-color="#D53C97"/>
<stop offset="0.52" stop-color="#AC1BB5"/>
<stop offset="1" stop-color="#8934D9"/>
</linearGradient>
<linearGradient id="paint2_linear_18_265" x1="64.4309" y1="41.9538" x2="-0.593694" y2="41.9538" gradientUnits="userSpaceOnUse">
<stop stop-color="#D53C97"/>
<stop offset="0.52" stop-color="#AC1BB5"/>
<stop offset="1" stop-color="#8934D9"/>
</linearGradient>
<linearGradient id="paint3_linear_18_265" x1="148.683" y1="87.6491" x2="40.7409" y2="87.6491" gradientUnits="userSpaceOnUse">
<stop stop-color="#D53C97"/>
<stop offset="0.52" stop-color="#AC1BB5"/>
<stop offset="1" stop-color="#8934D9"/>
</linearGradient>
<linearGradient id="paint4_linear_18_265" x1="64.4314" y1="41.949" x2="-0.593612" y2="41.949" gradientUnits="userSpaceOnUse">
<stop stop-color="#FF3B65"/>
<stop offset="0.61" stop-color="#F9597C"/>
<stop offset="1" stop-color="#D53C97"/>
</linearGradient>
<linearGradient id="paint5_linear_18_265" x1="64.4304" y1="41.9538" x2="-0.594186" y2="41.9538" gradientUnits="userSpaceOnUse">
<stop stop-color="#FF3B65"/>
<stop offset="0.61" stop-color="#F9597C"/>
<stop offset="1" stop-color="#D53C97"/>
</linearGradient>
</defs>
</svg>
